<svg width="62" height="56" viewBox="0 0 62 56" fill="none" xmlns="http://www.w3.org/2000/svg" xmlns:xlink="http://www.w3.org/1999/xlink">
<g opacity="0.7">
<rect  x="-0.624" y="0" width="57.368" height="51.755" rx="13.1" fill="#828282" fill-opacity="0.26" stroke="#696969" stroke-width="1.4" stroke-miterlimit="3.999327"/>
<path d="M0.316,18.182L12.809,18.182L12.809,15.382L0.316,15.382L0.316,18.182ZM18.659,43.074L18.659,53.479L21.459,53.479L21.459,43.074L18.659,43.074ZM18.659,24.032L18.659,29.928L21.459,29.928L21.459,24.032L18.659,24.032ZM18.659,29.928L18.659,43.074L21.459,43.074L21.459,29.928L18.659,29.928ZM20.059,41.674L0.316,41.674L0.316,44.474L20.059,44.474L20.059,41.674ZM20.059,28.528L0.316,28.528L0.316,31.328L20.059,31.328L20.059,28.528ZM12.809,18.182C16.04,18.182 18.659,20.801 18.659,24.032L21.459,24.032C21.459,19.255 17.586,15.382 12.809,15.382L12.809,18.182Z" fill="#696969"/>
<path d="M39.801,18.182L58.604,18.182L58.604,15.382L39.801,15.382L39.801,18.182ZM57.204,43.074L57.204,53.479L60.004,53.479L60.004,43.074L57.204,43.074ZM57.204,16.782L57.204,29.928L60.004,29.928L60.004,16.782L57.204,16.782ZM57.204,29.928L57.204,43.074L60.004,43.074L60.004,29.928L57.204,29.928ZM58.604,41.674L39.801,41.674L39.801,44.474L58.604,44.474L58.604,41.674ZM58.604,28.528L39.801,28.528L39.801,31.328L58.604,31.328L58.604,28.528ZM60.004,16.782L60.004,1.119L57.204,1.119L57.204,16.782L60.004,16.782Z" transform="rotate(360 49.203 27.299)" fill="#696969"/>
</g>
</svg>
