<svg width="72" height="56" viewBox="0 0 72 56" fill="none" xmlns="http://www.w3.org/2000/svg" xmlns:xlink="http://www.w3.org/1999/xlink">
<g opacity="0.7">
<rect  x="0" y="0" width="68.804" height="51.755" rx="13.1" fill="#828282" fill-opacity="0.26" stroke="#696969" stroke-width="1.4" stroke-miterlimit="3.999327"/>
<path d="M1.119,18.182L17.364,18.182L17.364,15.382L1.119,15.382L1.119,18.182ZM23.214,43.074L23.214,53.479L26.014,53.479L26.014,43.074L23.214,43.074ZM23.214,24.032L23.214,29.928L26.014,29.928L26.014,24.032L23.214,24.032ZM23.214,29.928L23.214,43.074L26.014,43.074L26.014,29.928L23.214,29.928ZM24.614,41.674L1.119,41.674L1.119,44.474L24.614,44.474L24.614,41.674ZM24.614,28.528L1.119,28.528L1.119,31.328L24.614,31.328L24.614,28.528ZM17.364,18.182C20.595,18.182 23.214,20.801 23.214,24.032L26.014,24.032C26.014,19.255 22.141,15.382 17.364,15.382L17.364,18.182Z" fill="#696969"/>
<path d="M48.109,18.182L70.485,18.182L70.485,15.382L48.109,15.382L48.109,18.182ZM69.085,43.074L69.085,53.479L71.885,53.479L71.885,43.074L69.085,43.074ZM69.085,16.782L69.085,29.928L71.885,29.928L71.885,16.782L69.085,16.782ZM69.085,29.928L69.085,43.074L71.885,43.074L71.885,29.928L69.085,29.928ZM70.485,41.674L48.109,41.674L48.109,44.474L70.485,44.474L70.485,41.674ZM70.485,28.528L48.109,28.528L48.109,31.328L70.485,31.328L70.485,28.528ZM71.885,16.782L71.885,1.119L69.085,1.119L69.085,16.782L71.885,16.782Z" transform="rotate(360 59.297 27.299)" fill="#696969"/>
</g>
</svg>
