<svg width="2076" height="356" viewBox="0 0 2076 356" fill="none" xmlns="http://www.w3.org/2000/svg" xmlns:xlink="http://www.w3.org/1999/xlink">
<line x1="-0.707" y1="355.293" x2="355.293" y2="-0.707" stroke="#63B178" stroke-width="1" stroke-miterlimit="3.999327"/>
<line x1="39.293" y1="355.293" x2="395.293" y2="-0.707" stroke="#63B178" stroke-width="1" stroke-miterlimit="3.999327"/>
<line x1="79.293" y1="355.293" x2="435.293" y2="-0.707" stroke="#63B178" stroke-width="1" stroke-miterlimit="3.999327"/>
<line x1="119.293" y1="355.293" x2="475.293" y2="-0.707" stroke="#63B178" stroke-width="1" stroke-miterlimit="3.999327"/>
<line x1="159.293" y1="355.293" x2="515.293" y2="-0.707" stroke="#63B178" stroke-width="1" stroke-miterlimit="3.999327"/>
<line x1="199.293" y1="355.293" x2="555.293" y2="-0.707" stroke="#63B178" stroke-width="1" stroke-miterlimit="3.999327"/>
<line x1="239.293" y1="355.293" x2="595.293" y2="-0.707" stroke="#63B178" stroke-width="1" stroke-miterlimit="3.999327"/>
<line x1="279.293" y1="355.293" x2="635.293" y2="-0.707" stroke="#63B178" stroke-width="1" stroke-miterlimit="3.999327"/>
<line x1="319.293" y1="355.293" x2="675.293" y2="-0.707" stroke="#63B178" stroke-width="1" stroke-miterlimit="3.999327"/>
<line x1="359.293" y1="355.293" x2="715.293" y2="-0.707" stroke="#63B178" stroke-width="1" stroke-miterlimit="3.999327"/>
<line x1="399.293" y1="355.293" x2="755.293" y2="-0.707" stroke="#63B178" stroke-width="1" stroke-miterlimit="3.999327"/>
<line x1="439.293" y1="355.293" x2="795.293" y2="-0.707" stroke="#63B178" stroke-width="1" stroke-miterlimit="3.999327"/>
<line x1="479.293" y1="355.293" x2="835.293" y2="-0.707" stroke="#63B178" stroke-width="1" stroke-miterlimit="3.999327"/>
<line x1="519.293" y1="355.293" x2="875.293" y2="-0.707" stroke="#63B178" stroke-width="1" stroke-miterlimit="3.999327"/>
<line x1="559.293" y1="355.293" x2="915.293" y2="-0.707" stroke="#63B178" stroke-width="1" stroke-miterlimit="3.999327"/>
<line x1="599.293" y1="355.293" x2="955.293" y2="-0.707" stroke="#63B178" stroke-width="1" stroke-miterlimit="3.999327"/>
<line x1="639.293" y1="355.293" x2="995.293" y2="-0.707" stroke="#63B178" stroke-width="1" stroke-miterlimit="3.999327"/>
<line x1="679.293" y1="355.293" x2="1035.293" y2="-0.707" stroke="#63B178" stroke-width="1" stroke-miterlimit="3.999327"/>
<line x1="719.293" y1="355.293" x2="1075.293" y2="-0.707" stroke="#63B178" stroke-width="1" stroke-miterlimit="3.999327"/>
<line x1="759.293" y1="355.293" x2="1115.293" y2="-0.707" stroke="#63B178" stroke-width="1" stroke-miterlimit="3.999327"/>
<line x1="799.293" y1="355.293" x2="1155.293" y2="-0.707" stroke="#63B178" stroke-width="1" stroke-miterlimit="3.999327"/>
<line x1="839.293" y1="355.293" x2="1195.293" y2="-0.707" stroke="#63B178" stroke-width="1" stroke-miterlimit="3.999327"/>
<line x1="879.293" y1="355.293" x2="1235.293" y2="-0.707" stroke="#63B178" stroke-width="1" stroke-miterlimit="3.999327"/>
<line x1="919.293" y1="355.293" x2="1275.293" y2="-0.707" stroke="#63B178" stroke-width="1" stroke-miterlimit="3.999327"/>
<line x1="959.293" y1="355.293" x2="1315.293" y2="-0.707" stroke="#63B178" stroke-width="1" stroke-miterlimit="3.999327"/>
<line x1="999.293" y1="355.293" x2="1355.293" y2="-0.707" stroke="#63B178" stroke-width="1" stroke-miterlimit="3.999327"/>
<line x1="1039.293" y1="355.293" x2="1395.293" y2="-0.707" stroke="#63B178" stroke-width="1" stroke-miterlimit="3.999327"/>
<line x1="1079.293" y1="355.293" x2="1435.293" y2="-0.707" stroke="#63B178" stroke-width="1" stroke-miterlimit="3.999327"/>
<line x1="1119.293" y1="355.293" x2="1475.293" y2="-0.707" stroke="#63B178" stroke-width="1" stroke-miterlimit="3.999327"/>
<line x1="1159.293" y1="355.293" x2="1515.293" y2="-0.707" stroke="#63B178" stroke-width="1" stroke-miterlimit="3.999327"/>
<line x1="1199.293" y1="355.293" x2="1555.293" y2="-0.707" stroke="#63B178" stroke-width="1" stroke-miterlimit="3.999327"/>
<line x1="1239.293" y1="355.293" x2="1595.293" y2="-0.707" stroke="#63B178" stroke-width="1" stroke-miterlimit="3.999327"/>
<line x1="1279.293" y1="355.293" x2="1635.293" y2="-0.707" stroke="#63B178" stroke-width="1" stroke-miterlimit="3.999327"/>
<line x1="1319.293" y1="355.293" x2="1675.293" y2="-0.707" stroke="#63B178" stroke-width="1" stroke-miterlimit="3.999327"/>
<line x1="1359.293" y1="355.293" x2="1715.293" y2="-0.707" stroke="#63B178" stroke-width="1" stroke-miterlimit="3.999327"/>
<line x1="1399.293" y1="355.293" x2="1755.293" y2="-0.707" stroke="#63B178" stroke-width="1" stroke-miterlimit="3.999327"/>
<line x1="1439.293" y1="355.293" x2="1795.293" y2="-0.707" stroke="#63B178" stroke-width="1" stroke-miterlimit="3.999327"/>
<line x1="1479.293" y1="355.293" x2="1835.293" y2="-0.707" stroke="#63B178" stroke-width="1" stroke-miterlimit="3.999327"/>
<line x1="1519.293" y1="355.293" x2="1875.293" y2="-0.707" stroke="#63B178" stroke-width="1" stroke-miterlimit="3.999327"/>
<line x1="1559.293" y1="355.293" x2="1915.293" y2="-0.707" stroke="#63B178" stroke-width="1" stroke-miterlimit="3.999327"/>
<line x1="1599.293" y1="355.293" x2="1955.293" y2="-0.707" stroke="#63B178" stroke-width="1" stroke-miterlimit="3.999327"/>
<line x1="1639.293" y1="355.293" x2="1995.293" y2="-0.707" stroke="#63B178" stroke-width="1" stroke-miterlimit="3.999327"/>
<line x1="1679.293" y1="355.293" x2="2035.293" y2="-0.707" stroke="#63B178" stroke-width="1" stroke-miterlimit="3.999327"/>
<line x1="1719.293" y1="355.293" x2="2075.293" y2="-0.707" stroke="#63B178" stroke-width="1" stroke-miterlimit="3.999327"/>
</svg>
