<svg width="970" height="896" viewBox="0 0 970 896" fill="none" xmlns="http://www.w3.org/2000/svg" xmlns:xlink="http://www.w3.org/1999/xlink">
<path d="M496.461,89.533L493.461,89.574L493.543,95.573L496.543,95.533L496.461,89.533ZM477.143,96.323L480.135,96.119L479.729,90.133L476.735,90.337L477.143,96.323ZM466.907,91.141L463.921,91.426L464.491,97.399L467.477,97.113L466.907,91.141ZM448.217,99.491L451.183,99.041L450.285,93.109L447.319,93.558L448.217,99.491ZM437.561,95.175L434.609,95.706L435.671,101.611L438.625,101.08L437.561,95.175ZM419.625,105.045L422.543,104.351L421.155,98.513L418.237,99.207L419.625,105.045ZM408.669,101.623L405.771,102.398L407.319,108.194L410.217,107.42L408.669,101.623ZM391.609,112.952L394.459,112.018L392.591,106.316L389.739,107.251L391.609,112.952ZM380.405,110.455L377.581,111.468L379.609,117.115L382.431,116.102L380.405,110.455ZM364.353,123.161L367.117,121.993L364.781,116.467L362.017,117.635L364.353,123.161ZM352.969,121.609L350.239,122.854L352.729,128.313L355.459,127.069L352.969,121.609ZM338.026,135.607L340.683,134.213L337.896,128.9L335.239,130.293L338.026,135.607ZM326.561,135L323.944,136.466L326.876,141.7L329.494,140.234L326.561,135ZM312.826,150.187L315.358,148.578L312.141,143.514L309.609,145.122L312.826,150.187ZM301.352,150.528L298.865,152.205L302.22,157.179L304.707,155.502L301.352,150.528ZM288.915,166.797L291.306,164.985L287.683,160.202L285.292,162.014L288.915,166.797ZM277.504,168.084L275.164,169.96L278.917,174.642L281.257,172.765L277.504,168.084ZM266.449,185.319L268.684,183.317L264.68,178.848L262.445,180.85L266.449,185.319ZM255.184,187.539L253.005,189.601L257.13,193.958L259.309,191.896L255.184,187.539ZM245.581,205.624L247.643,203.445L243.286,199.32L241.224,201.499L245.581,205.624ZM234.535,208.761L232.533,210.995L237.002,214.999L239.004,212.764L234.535,208.761ZM226.45,227.573L228.327,225.232L223.645,221.479L221.769,223.819L226.45,227.573ZM215.699,231.607L213.887,233.998L218.67,237.621L220.481,235.23L215.699,231.607ZM209.187,251.022L210.864,248.535L205.89,245.18L204.212,247.667L209.187,251.022ZM198.807,255.924L197.199,258.456L202.263,261.673L203.872,259.141L198.807,255.924ZM193.919,275.809L195.385,273.192L190.151,270.259L188.684,272.876L193.919,275.809ZM183.978,281.554L182.585,284.211L187.898,286.998L189.292,284.341L183.978,281.554ZM180.754,301.774L181.998,299.044L176.539,296.556L175.294,299.284L180.754,301.774ZM171.32,308.332L170.152,311.096L175.678,313.432L176.846,310.668L171.32,308.332ZM169.787,328.746L170.8,325.924L165.153,323.896L164.14,326.72L169.787,328.746ZM160.936,336.054L160.001,338.906L165.703,340.774L166.637,337.924L160.936,336.054ZM161.105,356.534L161.879,353.634L156.083,352.086L155.308,354.984L161.105,356.534ZM152.893,364.552L152.199,367.47L158.036,368.858L158.73,365.94L152.893,364.552ZM154.765,384.94L155.296,381.986L149.391,380.924L148.86,383.876L154.765,384.94ZM147.243,393.634L146.794,396.6L152.726,397.498L153.176,394.532L147.243,393.634ZM150.799,413.792L151.084,410.806L145.111,410.236L144.826,413.222L150.799,413.792ZM144.022,423.05L143.818,426.044L149.804,426.45L150.008,423.458L144.022,423.05ZM149.218,442.858L149.258,439.858L143.259,439.776L143.218,442.776L149.218,442.858ZM143.218,452.69L143.259,455.688L149.258,455.608L149.218,452.608L143.218,452.69ZM150.008,472.008L149.804,469.016L143.818,469.422L144.022,472.416L150.008,472.008ZM144.826,482.244L145.111,485.23L151.084,484.66L150.799,481.674L144.826,482.244ZM153.176,500.934L152.726,497.968L146.794,498.866L147.243,501.832L153.176,500.934ZM148.86,511.588L149.391,514.542L155.296,513.48L154.765,510.526L148.86,511.588ZM158.73,529.526L158.036,526.608L152.199,527.996L152.893,530.914L158.73,529.526ZM155.308,540.482L156.083,543.38L161.879,541.832L161.105,538.932L155.308,540.482ZM166.637,557.542L165.703,554.692L160.001,556.56L160.936,559.412L166.637,557.542ZM164.14,568.746L165.153,571.57L170.8,569.542L169.787,566.72L164.14,568.746ZM176.846,584.798L175.678,582.034L170.152,584.37L171.32,587.134L176.846,584.798ZM175.294,596.182L176.539,598.912L181.998,596.422L180.754,593.692L175.294,596.182ZM189.292,611.124L187.898,608.468L182.585,611.256L183.978,613.912L189.292,611.124ZM188.684,622.59L190.151,625.208L195.385,622.274L193.919,619.658L188.684,622.59ZM203.872,636.326L202.263,633.792L197.199,637.01L198.807,639.542L203.872,636.326ZM204.212,647.8L205.89,650.286L210.864,646.932L209.187,644.444L204.212,647.8ZM220.481,660.236L218.67,657.844L213.887,661.468L215.699,663.86L220.481,660.236ZM221.769,671.646L223.645,673.988L228.326,670.234L226.45,667.894L221.769,671.646ZM239.004,682.702L237.002,680.468L232.533,684.472L234.535,686.706L239.004,682.702ZM241.224,693.968L243.286,696.146L247.643,692.022L245.581,689.842L241.224,693.968ZM259.308,703.57L257.13,701.508L253.005,705.866L255.184,707.928L259.308,703.57ZM262.445,714.616L264.68,716.618L268.684,712.15L266.449,710.148L262.445,714.616ZM281.257,722.702L278.917,720.826L275.164,725.506L277.504,727.382L281.257,722.702ZM285.292,733.452L287.683,735.264L291.306,730.482L288.915,728.67L285.292,733.452ZM304.707,739.966L302.219,738.288L298.864,743.262L301.351,744.94L304.707,739.966ZM309.609,750.344L312.141,751.954L315.358,746.888L312.825,745.28L309.609,750.344ZM329.493,755.234L326.876,753.766L323.943,759.002L326.561,760.468L329.493,755.234ZM335.239,765.174L337.895,766.568L340.683,761.254L338.026,759.86L335.239,765.174ZM355.459,768.398L352.729,767.154L350.239,772.614L352.969,773.858L355.459,768.398ZM362.017,777.832L364.779,779L367.117,773.474L364.353,772.306L362.017,777.832ZM382.431,779.366L379.607,778.352L377.581,784L380.405,785.012L382.431,779.366ZM389.739,788.216L392.591,789.152L394.459,783.45L391.609,782.516L389.739,788.216ZM410.217,788.048L407.319,787.274L405.771,793.07L408.669,793.844L410.217,788.048ZM418.235,796.26L421.155,796.954L422.543,791.118L419.623,790.422L418.235,796.26ZM438.625,794.388L435.671,793.856L434.609,799.762L437.561,800.294L438.625,794.388ZM447.319,801.91L450.285,802.358L451.183,796.426L448.217,795.978L447.319,801.91ZM467.477,798.354L464.491,798.068L463.921,804.042L466.907,804.328L467.477,798.354ZM476.735,805.132L479.729,805.334L480.135,799.348L477.143,799.144L476.735,805.132ZM496.543,799.936L493.543,799.894L493.461,805.894L496.461,805.934L496.543,799.936ZM506.375,805.934L509.373,805.894L509.293,799.894L506.293,799.936L506.375,805.934ZM525.693,799.144L522.701,799.348L523.107,805.334L526.101,805.132L525.693,799.144ZM535.929,804.328L538.915,804.042L538.345,798.068L535.359,798.354L535.929,804.328ZM554.619,795.978L551.653,796.426L552.551,802.358L555.517,801.91L554.619,795.978ZM565.273,800.294L568.227,799.762L567.163,793.856L564.211,794.388L565.273,800.294ZM583.211,790.422L580.293,791.116L581.681,796.954L584.599,796.26L583.211,790.422ZM594.167,793.844L597.065,793.07L595.517,787.274L592.617,788.048L594.167,793.844ZM611.227,782.516L608.377,783.45L610.245,789.152L613.095,788.216L611.227,782.516ZM622.431,785.012L625.255,784L623.227,778.352L620.403,779.366L622.431,785.012ZM638.483,772.306L635.719,773.474L638.055,779L640.819,777.832L638.483,772.306ZM649.867,773.858L652.595,772.614L650.107,767.154L647.377,768.398L649.867,773.858ZM664.809,759.86L662.153,761.254L664.939,766.568L667.597,765.174L664.809,759.86ZM676.275,760.468L678.891,759.002L675.959,753.766L673.341,755.234L676.275,760.468ZM690.009,745.28L687.477,746.888L690.695,751.954L693.227,750.344L690.009,745.28ZM701.483,744.94L703.971,743.262L700.615,738.288L698.129,739.966L701.483,744.94ZM713.921,728.67L711.529,730.482L715.153,735.264L717.543,733.452L713.921,728.67ZM725.331,727.382L727.671,725.506L723.919,720.826L721.577,722.702L725.331,727.382ZM736.385,710.148L734.151,712.15L738.155,716.618L740.389,714.616L736.385,710.148ZM747.651,707.928L749.831,705.866L745.705,701.508L743.527,703.57L747.651,707.928ZM757.255,689.842L755.193,692.022L759.549,696.146L761.611,693.968L757.255,689.842ZM768.299,686.706L770.301,684.472L765.833,680.468L763.831,682.702L768.299,686.706ZM776.385,667.894L774.509,670.234L779.191,673.988L781.067,671.646L776.385,667.894ZM787.137,663.86L788.947,661.468L784.165,657.844L782.353,660.236L787.137,663.86ZM793.649,644.444L791.971,646.932L796.945,650.286L798.623,647.8L793.649,644.444ZM804.029,639.542L805.637,637.01L800.571,633.792L798.963,636.326L804.029,639.542ZM808.917,619.658L807.451,622.274L812.685,625.208L814.151,622.59L808.917,619.658ZM818.857,613.912L820.251,611.256L814.937,608.468L813.543,611.124L818.857,613.912ZM822.081,593.692L820.837,596.422L826.297,598.912L827.541,596.182L822.081,593.692ZM831.515,587.134L832.683,584.37L827.157,582.034L825.989,584.798L831.515,587.134ZM833.049,566.72L832.035,569.542L837.683,571.57L838.695,568.746L833.049,566.72ZM841.899,559.412L842.833,556.56L837.133,554.692L836.199,557.542L841.899,559.412ZM841.731,538.932L840.955,541.832L846.753,543.38L847.527,540.482L841.731,538.932ZM849.943,530.914L850.637,527.996L844.799,526.608L844.105,529.526L849.943,530.914ZM848.071,510.526L847.539,513.478L853.445,514.542L853.975,511.588L848.071,510.526ZM855.591,501.832L856.041,498.866L850.109,497.968L849.659,500.934L855.591,501.832ZM852.037,481.674L851.751,484.66L857.725,485.23L858.009,482.244L852.037,481.674ZM858.813,472.416L859.017,469.422L853.031,469.016L852.827,472.008L858.813,472.416ZM853.617,452.608L853.577,455.608L859.577,455.688L859.617,452.69L853.617,452.608ZM859.617,442.776L859.577,439.776L853.577,439.858L853.617,442.858L859.617,442.776ZM852.827,423.458L853.031,426.45L859.017,426.044L858.813,423.05L852.827,423.458ZM858.009,413.222L857.725,410.236L851.751,410.806L852.037,413.792L858.009,413.222ZM849.659,394.532L850.109,397.498L856.041,396.6L855.591,393.634L849.659,394.532ZM853.975,383.876L853.445,380.924L847.539,381.986L848.071,384.94L853.975,383.876ZM844.105,365.94L844.799,368.858L850.637,367.47L849.943,364.552L844.105,365.94ZM847.527,354.984L846.753,352.086L840.955,353.634L841.731,356.532L847.527,354.984ZM836.199,337.924L837.133,340.774L842.833,338.906L841.899,336.054L836.199,337.924ZM838.695,326.72L837.683,323.896L832.035,325.924L833.049,328.746L838.695,326.72ZM825.989,310.668L827.157,313.432L832.683,311.096L831.515,308.332L825.989,310.668ZM827.541,299.284L826.297,296.556L820.837,299.044L822.081,301.774L827.541,299.284ZM813.543,284.341L814.937,286.998L820.251,284.211L818.857,281.554L813.543,284.341ZM814.151,272.876L812.685,270.259L807.449,273.192L808.917,275.809L814.151,272.876ZM798.963,259.141L800.571,261.673L805.637,258.456L804.029,255.924L798.963,259.141ZM798.623,247.667L796.945,245.18L791.971,248.535L793.649,251.022L798.623,247.667ZM782.353,235.23L784.165,237.621L788.947,233.998L787.137,231.607L782.353,235.23ZM781.067,223.819L779.189,221.479L774.509,225.232L776.385,227.572L781.067,223.819ZM763.831,212.764L765.833,214.999L770.301,210.995L768.299,208.76L763.831,212.764ZM761.611,201.499L759.549,199.32L755.191,203.445L757.255,205.624L761.611,201.499ZM743.527,191.896L745.705,193.958L749.831,189.601L747.651,187.539L743.527,191.896ZM740.389,180.85L738.155,178.848L734.151,183.317L736.385,185.319L740.389,180.85ZM721.577,172.765L723.919,174.642L727.671,169.96L725.331,168.084L721.577,172.765ZM717.543,162.014L715.153,160.202L711.529,164.985L713.921,166.796L717.543,162.014ZM698.129,155.502L700.615,157.179L703.971,152.205L701.483,150.528L698.129,155.502ZM693.227,145.122L690.695,143.514L687.477,148.578L690.009,150.187L693.227,145.122ZM673.341,140.234L675.959,141.7L678.891,136.466L676.275,134.999L673.341,140.234ZM667.597,130.293L664.939,128.9L662.153,134.213L664.809,135.607L667.597,130.293ZM647.377,127.069L650.107,128.313L652.595,122.854L649.865,121.609L647.377,127.069ZM640.819,117.635L638.055,116.467L635.719,121.993L638.481,123.161L640.819,117.635ZM620.403,116.102L623.227,117.115L625.253,111.468L622.431,110.455L620.403,116.102ZM613.095,107.251L610.245,106.316L608.375,112.018L611.227,112.952L613.095,107.251ZM592.617,107.42L595.515,108.194L597.065,102.398L594.167,101.623L592.617,107.42ZM584.599,99.207L581.681,98.513L580.293,104.351L583.211,105.045L584.599,99.207ZM564.211,101.08L567.163,101.611L568.227,95.706L565.273,95.175L564.211,101.08ZM555.517,93.558L552.551,93.109L551.653,99.041L554.619,99.491L555.517,93.558ZM535.357,97.113L538.345,97.399L538.915,91.426L535.929,91.141L535.357,97.113ZM526.101,90.337L523.107,90.133L522.701,96.119L525.693,96.323L526.101,90.337ZM506.293,95.533L509.293,95.573L509.373,89.574L506.373,89.533L506.293,95.533ZM501.417,89.5C499.763,89.5 498.111,89.511 496.461,89.533L496.543,95.533C498.165,95.511 499.791,95.5 501.417,95.5L501.417,89.5ZM476.735,90.337C473.447,90.561 470.171,90.829 466.907,91.141L467.477,97.113C470.687,96.807 473.909,96.543 477.143,96.323L476.735,90.337ZM447.319,93.558C444.051,94.053 440.799,94.592 437.561,95.175L438.625,101.08C441.807,100.507 445.005,99.977 448.217,99.491L447.319,93.558ZM418.237,99.207C415.029,99.97 411.841,100.775 408.669,101.623L410.217,107.42C413.337,106.586 416.473,105.794 419.625,105.045L418.237,99.207ZM389.739,107.251C386.609,108.277 383.497,109.345 380.405,110.455L382.431,116.102C385.471,115.011 388.531,113.961 391.609,112.952L389.739,107.251ZM362.017,117.635C358.979,118.919 355.963,120.244 352.969,121.609L355.459,127.069C358.403,125.727 361.367,124.424 364.353,123.161L362.017,117.635ZM335.239,130.293C332.322,131.823 329.429,133.392 326.561,135L329.494,140.234C332.314,138.654 335.158,137.111 338.026,135.607L335.239,130.293ZM309.609,145.122C306.83,146.887 304.078,148.689 301.352,150.528L304.707,155.502C307.387,153.694 310.094,151.922 312.826,150.187L309.609,145.122ZM285.292,162.014C282.668,164.002 280.071,166.026 277.504,168.084L281.257,172.765C283.782,170.741 286.335,168.752 288.915,166.797L285.292,162.014ZM262.445,180.85C259.994,183.047 257.573,185.277 255.184,187.539L259.309,191.896C261.658,189.671 264.039,187.479 266.449,185.319L262.445,180.85ZM241.224,201.499C238.961,203.888 236.732,206.309 234.535,208.761L239.004,212.764C241.164,210.354 243.356,207.974 245.581,205.624L241.224,201.499ZM221.769,223.819C219.711,226.387 217.687,228.983 215.699,231.607L220.481,235.23C222.436,232.65 224.426,230.097 226.45,227.573L221.769,223.819ZM204.212,247.667C202.374,250.393 200.572,253.145 198.807,255.924L203.872,259.141C205.607,256.409 207.379,253.702 209.187,251.022L204.212,247.667ZM188.684,272.876C187.077,275.744 185.508,278.637 183.978,281.554L189.292,284.341C190.796,281.474 192.338,278.629 193.919,275.809L188.684,272.876ZM175.294,299.284C173.929,302.278 172.604,305.294 171.32,308.332L176.846,310.668C178.109,307.682 179.412,304.718 180.754,301.774L175.294,299.284ZM164.14,326.72C163.03,329.812 161.962,332.924 160.936,336.054L166.637,337.924C167.646,334.846 168.696,331.786 169.787,328.746L164.14,326.72ZM155.308,354.984C154.46,358.156 153.655,361.346 152.893,364.552L158.73,365.94C159.479,362.788 160.271,359.652 161.105,356.534L155.308,354.984ZM148.86,383.876C148.277,387.114 147.738,390.366 147.243,393.634L153.176,394.532C153.662,391.32 154.192,388.122 154.765,384.94L148.86,383.876ZM144.826,413.222C144.514,416.486 144.246,419.762 144.022,423.05L150.008,423.458C150.228,420.224 150.492,417.002 150.799,413.792L144.826,413.222ZM143.218,442.776C143.196,444.426 143.185,446.078 143.185,447.732L149.185,447.732C149.185,446.106 149.196,444.48 149.218,442.858L143.218,442.776ZM143.185,447.732C143.185,449.388 143.196,451.04 143.218,452.69L149.218,452.608C149.196,450.986 149.185,449.36 149.185,447.732L143.185,447.732ZM144.022,472.416C144.246,475.704 144.514,478.98 144.826,482.244L150.799,481.674C150.492,478.464 150.228,475.242 150.008,472.008L144.022,472.416ZM147.243,501.832C147.738,505.1 148.277,508.352 148.86,511.588L154.765,510.526C154.192,507.344 153.662,504.146 153.176,500.934L147.243,501.832ZM152.893,530.914C153.655,534.12 154.46,537.31 155.308,540.482L161.105,538.932C160.271,535.814 159.479,532.678 158.73,529.526L152.893,530.914ZM160.936,559.412C161.962,562.542 163.03,565.654 164.14,568.746L169.787,566.72C168.696,563.68 167.646,560.62 166.637,557.542L160.936,559.412ZM171.32,587.134C172.604,590.172 173.929,593.188 175.294,596.182L180.754,593.692C179.412,590.748 178.109,587.784 176.846,584.798L171.32,587.134ZM183.978,613.912C185.508,616.828 187.077,619.722 188.684,622.59L193.919,619.658C192.338,616.836 190.796,613.992 189.292,611.124L183.978,613.912ZM198.807,639.542C200.572,642.32 202.374,645.074 204.212,647.8L209.187,644.444C207.379,641.764 205.607,639.058 203.872,636.326L198.807,639.542ZM215.699,663.86C217.687,666.484 219.711,669.08 221.769,671.646L226.45,667.894C224.426,665.37 222.436,662.816 220.481,660.236L215.699,663.86ZM234.535,686.706C236.732,689.158 238.961,691.578 241.224,693.968L245.581,689.842C243.356,687.492 241.164,685.112 239.004,682.702L234.535,686.706ZM255.184,707.928C257.573,710.19 259.994,712.42 262.445,714.616L266.449,710.148C264.039,707.988 261.658,705.796 259.308,703.57L255.184,707.928ZM277.504,727.382C280.071,729.442 282.667,731.464 285.292,733.452L288.915,728.67C286.334,726.716 283.782,724.726 281.257,722.702L277.504,727.382ZM301.351,744.94C304.077,746.778 306.83,748.58 309.609,750.344L312.825,745.28C310.093,743.544 307.387,741.772 304.707,739.966L301.351,744.94ZM326.561,760.468C329.429,762.074 332.322,763.644 335.239,765.174L338.026,759.86C335.158,758.356 332.314,756.814 329.493,755.234L326.561,760.468ZM352.969,773.858C355.963,775.224 358.979,776.548 362.017,777.832L364.353,772.306C361.367,771.044 358.401,769.74 355.459,768.398L352.969,773.858ZM380.405,785.012C383.497,786.122 386.609,787.19 389.739,788.216L391.609,782.516C388.531,781.506 385.471,780.456 382.431,779.366L380.405,785.012ZM408.669,793.844C411.841,794.692 415.029,795.498 418.235,796.26L419.623,790.422C416.471,789.674 413.337,788.882 410.217,788.048L408.669,793.844ZM437.561,800.294C440.799,800.876 444.051,801.414 447.319,801.91L448.217,795.978C445.005,795.49 441.807,794.96 438.625,794.388L437.561,800.294ZM466.907,804.328C470.171,804.64 473.447,804.908 476.735,805.132L477.143,799.144C473.909,798.924 470.687,798.662 467.477,798.354L466.907,804.328ZM496.461,805.934C498.111,805.958 499.763,805.968 501.417,805.968L501.417,799.968C499.791,799.968 498.165,799.958 496.543,799.936L496.461,805.934ZM501.417,805.968C503.073,805.968 504.725,805.958 506.375,805.934L506.293,799.936C504.671,799.958 503.045,799.968 501.417,799.968L501.417,805.968ZM526.101,805.132C529.389,804.908 532.665,804.64 535.929,804.328L535.359,798.354C532.149,798.662 528.927,798.924 525.693,799.144L526.101,805.132ZM555.517,801.91C558.785,801.414 562.037,800.876 565.273,800.294L564.211,794.388C561.029,794.96 557.831,795.49 554.619,795.978L555.517,801.91ZM584.599,796.26C587.805,795.498 590.995,794.692 594.167,793.844L592.617,788.048C589.499,788.882 586.363,789.674 583.211,790.422L584.599,796.26ZM613.095,788.216C616.227,787.19 619.339,786.122 622.431,785.012L620.403,779.366C617.365,780.456 614.305,781.506 611.227,782.516L613.095,788.216ZM640.819,777.832C643.857,776.548 646.873,775.224 649.867,773.858L647.377,768.398C644.433,769.74 641.469,771.044 638.483,772.306L640.819,777.832ZM667.597,765.174C670.513,763.644 673.407,762.074 676.275,760.468L673.341,755.234C670.521,756.814 667.677,758.356 664.809,759.86L667.597,765.174ZM693.227,750.344C696.005,748.58 698.757,746.778 701.483,744.94L698.129,739.966C695.449,741.772 692.741,743.544 690.009,745.28L693.227,750.344ZM717.543,733.452C720.167,731.464 722.763,729.442 725.331,727.382L721.577,722.702C719.053,724.726 716.501,726.716 713.921,728.67L717.543,733.452ZM740.389,714.616C742.841,712.42 745.263,710.19 747.651,707.928L743.527,703.57C741.177,705.796 738.797,707.988 736.385,710.148L740.389,714.616ZM761.611,693.968C763.873,691.578 766.103,689.158 768.299,686.706L763.831,682.702C761.671,685.112 759.479,687.492 757.255,689.842L761.611,693.968ZM781.067,671.646C783.125,669.08 785.149,666.484 787.137,663.86L782.353,660.236C780.399,662.816 778.409,665.37 776.385,667.894L781.067,671.646ZM798.623,647.8C800.461,645.074 802.263,642.32 804.029,639.542L798.963,636.326C797.229,639.058 795.457,641.764 793.649,644.444L798.623,647.8ZM814.151,622.59C815.759,619.722 817.327,616.828 818.857,613.912L813.543,611.124C812.039,613.992 810.497,616.836 808.917,619.658L814.151,622.59ZM827.541,596.182C828.905,593.188 830.231,590.172 831.515,587.134L825.989,584.798C824.727,587.784 823.423,590.748 822.081,593.692L827.541,596.182ZM838.695,568.746C839.805,565.654 840.873,562.542 841.899,559.412L836.199,557.542C835.189,560.62 834.139,563.68 833.049,566.72L838.695,568.746ZM847.527,540.482C848.375,537.31 849.181,534.12 849.943,530.914L844.105,529.526C843.355,532.678 842.565,535.814 841.731,538.932L847.527,540.482ZM853.975,511.588C854.559,508.352 855.097,505.1 855.591,501.832L849.659,500.934C849.173,504.146 848.643,507.344 848.071,510.526L853.975,511.588ZM858.009,482.244C858.321,478.98 858.589,475.704 858.813,472.416L852.827,472.008C852.607,475.242 852.343,478.464 852.037,481.674L858.009,482.244ZM859.617,452.69C859.639,451.04 859.651,449.388 859.651,447.732L853.651,447.732C853.651,449.36 853.639,450.986 853.617,452.608L859.617,452.69ZM859.651,447.732C859.651,446.078 859.639,444.426 859.617,442.776L853.617,442.858C853.639,444.48 853.651,446.106 853.651,447.732L859.651,447.732ZM858.813,423.05C858.589,419.762 858.321,416.486 858.009,413.222L852.037,413.792C852.343,417.002 852.607,420.224 852.827,423.458L858.813,423.05ZM855.591,393.634C855.097,390.366 854.559,387.114 853.975,383.876L848.071,384.94C848.643,388.122 849.173,391.32 849.659,394.532L855.591,393.634ZM849.943,364.552C849.181,361.346 848.375,358.156 847.527,354.984L841.731,356.532C842.565,359.652 843.355,362.788 844.105,365.94L849.943,364.552ZM841.899,336.054C840.873,332.924 839.805,329.812 838.695,326.72L833.049,328.746C834.139,331.786 835.189,334.846 836.199,337.924L841.899,336.054ZM831.515,308.332C830.231,305.294 828.905,302.278 827.541,299.284L822.081,301.774C823.423,304.718 824.727,307.682 825.989,310.668L831.515,308.332ZM818.857,281.554C817.327,278.637 815.757,275.744 814.151,272.876L808.917,275.809C810.497,278.629 812.039,281.474 813.543,284.341L818.857,281.554ZM804.029,255.924C802.263,253.145 800.461,250.393 798.623,247.667L793.649,251.022C795.457,253.702 797.229,256.409 798.963,259.141L804.029,255.924ZM787.137,231.607C785.149,228.983 783.125,226.387 781.067,223.819L776.385,227.572C778.409,230.097 780.399,232.65 782.353,235.23L787.137,231.607ZM768.299,208.76C766.103,206.309 763.873,203.888 761.611,201.499L757.255,205.624C759.479,207.973 761.671,210.354 763.831,212.764L768.299,208.76ZM747.651,187.539C745.261,185.276 742.841,183.047 740.389,180.85L736.385,185.319C738.797,187.479 741.177,189.671 743.527,191.896L747.651,187.539ZM725.331,168.084C722.763,166.026 720.167,164.002 717.543,162.014L713.921,166.796C716.501,168.751 719.053,170.741 721.577,172.765L725.331,168.084ZM701.483,150.528C698.757,148.689 696.005,146.887 693.227,145.122L690.009,150.187C692.741,151.922 695.449,153.694 698.129,155.502L701.483,150.528ZM676.275,134.999C673.405,133.392 670.513,131.823 667.597,130.293L664.809,135.607C667.677,137.111 670.521,138.653 673.341,140.234L676.275,134.999ZM649.865,121.609C646.871,120.244 643.855,118.919 640.819,117.635L638.481,123.161C641.469,124.424 644.433,125.727 647.377,127.069L649.865,121.609ZM622.431,110.455C619.339,109.345 616.227,108.277 613.095,107.251L611.227,112.952C614.305,113.961 617.363,115.011 620.403,116.102L622.431,110.455ZM594.167,101.623C590.995,100.775 587.805,99.97 584.599,99.207L583.211,105.045C586.363,105.794 589.499,106.586 592.617,107.42L594.167,101.623ZM565.273,95.175C562.037,94.592 558.785,94.053 555.517,93.558L554.619,99.491C557.831,99.977 561.029,100.507 564.211,101.08L565.273,95.175ZM535.929,91.141C532.665,90.829 529.389,90.561 526.101,90.337L525.693,96.323C528.927,96.543 532.149,96.807 535.357,97.113L535.929,91.141ZM506.373,89.533C504.725,89.511 503.073,89.5 501.417,89.5L501.417,95.5C503.045,95.5 504.671,95.511 506.293,95.533L506.373,89.533Z" transform="rotate(210 501.417 447.734)" fill="#3AD9AC"/>
<path d="M408.547,244.727L594.129,244.727C599.527,244.727 603.905,249.105 603.905,254.503L603.905,649.241C603.905,654.641 599.527,659.017 594.129,659.017L408.547,659.017C403.146,659.017 398.771,654.641 398.771,649.241L398.771,254.503C398.771,249.105 403.146,244.727 408.547,244.727Z" fill="#454061"/>
<path d="M456.363,253.447L411.063,253.447C408.362,253.447 406.173,255.636 406.173,258.335L406.173,646.201C406.173,648.899 408.362,651.085 411.063,651.085L591.613,651.085C594.311,651.085 596.503,648.899 596.503,646.201L596.503,258.348C596.503,255.649 594.311,253.46 591.613,253.46L456.363,253.46L456.363,253.447Z" fill="#36A691"/>
<rect  x="422.441" y="263.309" width="17.285" height="7.348" fill="#454061"/>
<path d="M422.441,263.309L422.441,262.809C422.165,262.809 421.941,263.033 421.941,263.309L422.441,263.309ZM439.726,263.309L440.226,263.309C440.226,263.033 440.002,262.809 439.726,262.809L439.726,263.309ZM439.726,270.656L439.726,271.156C440.002,271.156 440.226,270.933 440.226,270.656L439.726,270.656ZM422.441,270.656L421.941,270.656C421.941,270.933 422.165,271.156 422.441,271.156L422.441,270.656ZM422.441,263.809L439.726,263.809L439.726,262.809L422.441,262.809L422.441,263.809ZM439.226,263.309L439.226,270.656L440.226,270.656L440.226,263.309L439.226,263.309ZM439.726,270.156L422.441,270.156L422.441,271.156L439.726,271.156L439.726,270.156ZM422.941,270.656L422.941,263.309L421.941,263.309L421.941,270.656L422.941,270.656Z" fill="#454061"/>
<rect  x="439.726" y="264.547" width="2.683" height="4.878" fill="#454061"/>
<path d="M439.726,264.547L439.726,264.047C439.449,264.047 439.226,264.27 439.226,264.547L439.726,264.547ZM442.409,264.547L442.909,264.547C442.909,264.27 442.685,264.047 442.409,264.047L442.409,264.547ZM442.409,269.424L442.409,269.924C442.685,269.924 442.909,269.7 442.909,269.424L442.409,269.424ZM439.726,269.424L439.226,269.424C439.226,269.7 439.449,269.924 439.726,269.924L439.726,269.424ZM439.726,265.047L442.409,265.047L442.409,264.047L439.726,264.047L439.726,265.047ZM441.909,264.547L441.909,269.424L442.909,269.424L442.909,264.547L441.909,264.547ZM442.409,268.924L439.726,268.924L439.726,269.924L442.409,269.924L442.409,268.924ZM440.226,269.424L440.226,264.547L439.226,264.547L439.226,269.424L440.226,269.424Z" fill="#454061"/>
<rect  x="559.216" y="267.994" width="3.068" height="2.662" fill="#454061"/>
<path d="M559.216,267.994L559.216,267.494C558.94,267.494 558.716,267.718 558.716,267.994L559.216,267.994ZM562.284,267.994L562.784,267.994C562.784,267.718 562.56,267.494 562.284,267.494L562.284,267.994ZM562.284,270.657L562.284,271.157C562.56,271.157 562.784,270.933 562.784,270.657L562.284,270.657ZM559.216,270.657L558.716,270.657C558.716,270.933 558.94,271.157 559.216,271.157L559.216,270.657ZM559.216,268.494L562.284,268.494L562.284,267.494L559.216,267.494L559.216,268.494ZM561.784,267.994L561.784,270.657L562.784,270.657L562.784,267.994L561.784,267.994ZM562.284,270.157L559.216,270.157L559.216,271.157L562.284,271.157L562.284,270.157ZM559.716,270.657L559.716,267.994L558.716,267.994L558.716,270.657L559.716,270.657Z" fill="#454061"/>
<rect  x="565.202" y="265.313" width="3.068" height="5.346" fill="#454061"/>
<path d="M565.202,265.313L565.202,264.813C564.926,264.813 564.702,265.037 564.702,265.313L565.202,265.313ZM568.27,265.313L568.77,265.313C568.77,265.037 568.546,264.813 568.27,264.813L568.27,265.313ZM568.27,270.659L568.27,271.159C568.546,271.159 568.77,270.935 568.77,270.659L568.27,270.659ZM565.202,270.659L564.702,270.659C564.702,270.935 564.926,271.159 565.202,271.159L565.202,270.659ZM565.202,265.813L568.27,265.813L568.27,264.813L565.202,264.813L565.202,265.813ZM567.77,265.313L567.77,270.659L568.77,270.659L568.77,265.313L567.77,265.313ZM568.27,270.159L565.202,270.159L565.202,271.159L568.27,271.159L568.27,270.159ZM565.702,270.659L565.702,265.313L564.702,265.313L564.702,270.659L565.702,270.659Z" fill="#454061"/>
<rect  x="571.185" y="262.63" width="3.068" height="8.029" fill="#454061"/>
<path d="M571.185,262.63L571.185,262.13C570.908,262.13 570.685,262.354 570.685,262.63L571.185,262.63ZM574.253,262.63L574.753,262.63C574.753,262.354 574.529,262.13 574.253,262.13L574.253,262.63ZM574.253,270.659L574.253,271.159C574.529,271.159 574.753,270.935 574.753,270.659L574.253,270.659ZM571.185,270.659L570.685,270.659C570.685,270.935 570.908,271.159 571.185,271.159L571.185,270.659ZM571.185,263.13L574.253,263.13L574.253,262.13L571.185,262.13L571.185,263.13ZM573.753,262.63L573.753,270.659L574.753,270.659L574.753,262.63L573.753,262.63ZM574.253,270.159L571.185,270.159L571.185,271.159L574.253,271.159L574.253,270.159ZM571.685,270.659L571.685,262.63L570.685,262.63L570.685,270.659L571.685,270.659Z" fill="#454061"/>
<rect  x="577.167" y="259.952" width="3.068" height="10.707" fill="#454061"/>
<path d="M577.167,259.952L577.167,259.452C576.891,259.452 576.667,259.676 576.667,259.952L577.167,259.952ZM580.235,259.952L580.735,259.952C580.735,259.676 580.511,259.452 580.235,259.452L580.235,259.952ZM580.235,270.659L580.235,271.159C580.511,271.159 580.735,270.935 580.735,270.659L580.235,270.659ZM577.167,270.659L576.667,270.659C576.667,270.935 576.891,271.159 577.167,271.159L577.167,270.659ZM577.167,260.452L580.235,260.452L580.235,259.452L577.167,259.452L577.167,260.452ZM579.735,259.952L579.735,270.659L580.735,270.659L580.735,259.952L579.735,259.952ZM580.235,270.159L577.167,270.159L577.167,271.159L580.235,271.159L580.235,270.159ZM577.667,270.659L577.667,259.952L576.667,259.952L576.667,270.659L577.667,270.659Z" fill="#454061"/>
<path d="M735.449,547.689L956.328,547.689C962.646,547.689 967.768,552.814 967.768,559.129L967.768,692.129C967.768,698.445 962.646,703.569 956.328,703.569L735.449,703.569C729.131,703.569 724.012,698.445 724.012,692.129L724.012,559.129C724.012,552.814 729.131,547.689 735.449,547.689Z" transform="rotate(3.253 845.889 625.629)" fill="#454061"/>
<path d="M735.382,547.712L959.579,547.712C964.983,547.712 969.359,552.09 969.359,557.488L969.359,591.262L725.603,591.262L725.603,557.488C725.603,552.09 729.982,547.712 735.382,547.712Z" transform="rotate(3.253 847.481 569.487)" fill="#79768E"/>
<path d="M752.069,606.066L797.276,606.066C800.874,606.066 803.794,608.983 803.794,612.584L803.794,638.782C803.794,642.383 800.874,645.3 797.276,645.3L752.069,645.3C748.468,645.3 745.549,642.383 745.549,638.782L745.549,612.584C745.549,608.983 748.468,606.066 752.069,606.066Z" transform="rotate(3.253 774.671 625.683)" fill="#575274"/>
<path d="M894.75,610.112L939.957,610.112C943.555,610.112 946.475,613.029 946.475,616.63L946.475,616.942C946.475,620.543 943.555,623.46 939.957,623.46L894.75,623.46C891.149,623.46 888.23,620.543 888.23,616.942L888.23,616.63C888.23,613.029 891.149,610.112 894.75,610.112Z" transform="rotate(3.253 917.352 616.786)" fill="#575274"/>
<path d="M915.706,631.981L939.34,631.981C942.941,631.981 945.858,634.899 945.858,638.5L945.858,638.812C945.858,642.413 942.941,645.33 939.34,645.33L915.706,645.33C912.105,645.33 909.188,642.413 909.188,638.812L909.188,638.5C909.188,634.899 912.105,631.981 915.706,631.981Z" transform="rotate(3.253 927.523 638.656)" fill="#575274"/>
<path d="M8.931,388.471L266.392,388.471C269.994,388.471 272.91,391.391 272.91,394.992L272.91,496.02C272.91,499.621 269.994,502.538 266.392,502.538L8.931,502.538C5.33,502.538 2.412,499.621 2.412,496.02L2.412,394.992C2.412,391.391 5.33,388.471 8.931,388.471Z" transform="rotate(-5.103 137.662 445.504)" fill="#454061"/>
<path d="M194.207,469.356L182.767,469.356L198.666,411.948L210.109,411.948L194.207,469.356Z" transform="rotate(-5.103 196.438 440.652)" fill="#79768E"/>
<path d="M188.329,415.927C187.461,414.796 186.075,414.185 184.653,414.302L121.793,414.302L118.691,425.544L175.87,425.544L172.532,437.556L126.795,437.556L126.795,437.533L115.358,437.533L105.87,471.803L117.31,471.803L123.667,448.817L175.088,448.817C176.739,448.806 178.34,448.229 179.619,447.184C180.974,446.175 181.957,444.743 182.412,443.118L188.769,420.131C189.304,418.74 189.141,417.177 188.329,415.927Z" transform="rotate(-5.103 147.475 443.046)" fill="#79768E"/>
<path d="M99.274,471.285C98.642,473.557 96.578,475.135 94.219,475.146L35.231,475.146C33.837,475.245 32.488,474.631 31.645,473.516C30.839,472.317 30.655,470.806 31.151,469.449L45.537,417.631L56.974,417.631L44.128,463.909L89.901,463.909L102.747,417.631L114.187,417.631L99.274,471.285Z" transform="rotate(-5.103 72.532 446.394)" fill="#79768E"/>
<path d="M229.839,410.594L244.303,439.368L213.888,468.137L229.839,410.594Z" transform="rotate(-5.103 229.095 439.366)" fill="#575274"/>
<path d="M219.686,411.047L234.147,439.822L203.706,468.591L219.686,411.047Z" transform="rotate(-5.103 218.927 439.819)" fill="#79768E"/>
<path d="M453.07,447.77C456.658,450.776 462.004,450.308 465.009,446.72C468.015,443.134 467.544,437.789 463.956,434.783C460.376,431.777 455.033,432.245 452.025,435.828C449.014,439.414 449.485,444.759 453.07,447.77Z" transform="rotate(-271.857 458.514 441.276)" fill="#454061"/>
<path d="M465.634,404.081C465.109,404.081 464.581,404.127 464.061,404.218C459.17,405.071 455.897,409.725 456.75,414.616C457.501,418.919 461.237,422.06 465.603,422.062C466.131,422.062 466.661,422.015 467.181,421.924C472.069,421.051 475.324,416.379 474.451,411.493C473.689,407.219 469.979,404.099 465.634,404.081Z" transform="rotate(-271.857 465.603 413.071)" fill="#454061"/>
<path d="M493.882,387.774C489.338,385.148 483.521,386.703 480.893,391.248C478.267,395.795 479.824,401.609 484.369,404.237C488.914,406.863 494.73,405.306 497.356,400.761L497.359,400.759C499.99,396.232 498.453,390.431 493.929,387.8C493.914,387.792 493.898,387.782 493.882,387.774Z" transform="rotate(-271.857 489.13 396.006)" fill="#454061"/>
<path d="M518.125,388.061C512.592,388.061 508.11,392.546 508.11,398.078C508.112,403.606 512.597,408.091 518.128,408.088C523.66,408.088 528.145,403.606 528.145,398.073C528.145,396.908 527.937,395.751 527.54,394.657C526.097,390.697 522.337,388.061 518.125,388.061Z" transform="rotate(-271.857 518.128 398.074)" fill="#454061"/>
<path d="M542.673,408.398C537.2,406.396 531.139,409.214 529.14,414.687C527.14,420.16 529.956,426.218 535.429,428.217C540.899,430.217 546.96,427.401 548.959,421.931C549.921,419.297 549.797,416.39 548.614,413.85C547.436,411.315 545.299,409.355 542.673,408.398Z" transform="rotate(-271.857 539.048 418.307)" fill="#454061"/>
<path d="M551.587,441.594C548.537,436.308 541.783,434.501 536.497,437.549L536.489,437.549C531.203,440.601 529.394,447.361 532.443,452.644C535.444,457.961 542.183,459.841 547.5,456.841C552.817,453.84 554.697,447.104 551.696,441.787C551.66,441.724 551.623,441.657 551.587,441.594Z" transform="rotate(-271.857 542.043 447.169)" fill="#454061"/>
<path d="M525.769,482.876C532.157,482.866 537.326,477.679 537.315,471.29C537.305,465.685 533.28,460.893 527.76,459.918C527.092,459.804 526.411,459.746 525.732,459.746C519.344,459.757 514.175,464.944 514.186,471.332C514.194,476.935 518.224,481.727 523.743,482.699C524.414,482.819 525.09,482.876 525.769,482.876Z" transform="rotate(-271.857 525.751 471.311)" fill="#454061"/>
<path d="M497.768,491.362C504.439,491.362 509.85,485.957 509.852,479.283C509.852,472.614 504.447,467.203 497.773,467.2C491.104,467.198 485.691,472.606 485.691,479.277C485.688,482.114 486.686,484.86 488.506,487.033C490.802,489.774 494.193,491.36 497.768,491.362Z" transform="rotate(-271.857 497.771 479.281)" fill="#454061"/>
<path d="M471.225,454.285C478.482,454.285 484.366,460.169 484.366,467.425C484.366,474.682 478.482,480.566 471.225,480.566C463.966,480.566 458.085,474.682 458.085,467.425C458.085,460.169 463.966,454.285 471.225,454.285Z" transform="rotate(-271.857 471.225 467.425)" fill="#454061"/>
<path d="M747.358,113.531C787.745,113.531 820.483,146.269 820.483,186.655C820.483,227.042 787.745,259.78 747.358,259.78C706.972,259.78 674.233,227.042 674.233,186.655C674.233,146.269 706.972,113.531 747.358,113.531Z" fill="#79768E"/>
<path d="M749.972,259.78C761.157,258.189 770.958,246.522 777.128,229.285C768.21,227.288 759.11,226.215 749.972,226.087L749.972,259.78Z" fill="#454061"/>
<path d="M767.842,257.041C768.502,256.85 769.163,256.659 769.817,256.449C770.369,256.271 770.909,256.075 771.452,255.889C772.096,255.665 772.734,255.439 773.373,255.207C773.919,255 774.456,254.779 774.996,254.56L776.86,253.777C777.395,253.54 777.927,253.291 778.462,253.043C779.062,252.759 779.665,252.47 780.26,252.17C780.781,251.903 781.305,251.627 781.829,251.349C782.416,251.035 783,250.713 783.578,250.385C784.099,250.088 784.601,249.793 785.109,249.488L786.8,248.443C787.305,248.123 787.799,247.799 788.293,247.463C788.844,247.092 789.387,246.699 789.93,246.314C790.413,245.973 790.902,245.629 791.374,245.269C791.898,244.865 792.432,244.451 792.956,244.033C793.42,243.659 793.889,243.294 794.348,242.912C794.869,242.475 795.371,242.025 795.87,241.575C796.318,241.182 796.763,240.792 797.197,240.388C797.696,239.921 798.182,239.438 798.667,238.961C799.088,238.543 799.513,238.134 799.925,237.706C800.002,237.626 800.075,237.542 800.154,237.46C794.454,234.516 788.454,232.205 782.249,230.567C779.024,240.857 773.28,250.184 765.544,257.696L766.183,257.543C766.745,257.379 767.296,257.193 767.842,257.041Z" fill="#454061"/>
<path d="M820.48,189.42L789.136,189.42C789.016,201.655 787.24,213.822 783.856,225.582C790.757,227.424 797.415,230.074 803.696,233.476C814.008,221.05 819.91,205.557 820.48,189.42Z" fill="#454061"/>
<path d="M749.975,184.192L783.914,184.192C783.788,172.385 782.061,160.649 778.784,149.303C769.332,151.453 759.681,152.602 749.986,152.725L749.975,184.192Z" fill="#454061"/>
<path d="M749.972,113.823L749.972,147.521C759.11,147.39 768.21,146.318 777.128,144.321C770.972,127.084 761.157,115.411 749.972,113.823Z" fill="#454061"/>
<path d="M749.972,220.856C759.664,220.979 769.318,222.128 778.77,224.278C782.047,212.932 783.774,201.196 783.903,189.39L749.958,189.39L749.972,220.856Z" fill="#454061"/>
<path d="M803.699,140.135C797.42,143.537 790.763,146.187 783.862,148.029C787.245,159.789 789.019,171.956 789.136,184.191L820.475,184.191C819.904,168.054 814.005,152.561 803.699,140.135Z" fill="#454061"/>
<path d="M800.174,136.17C800.097,136.091 800.021,136.012 799.947,135.93C799.535,135.502 799.101,135.092 798.681,134.678C798.195,134.2 797.718,133.717 797.218,133.253C796.787,132.849 796.337,132.47 795.892,132.066C795.385,131.619 794.866,131.163 794.356,130.727C793.903,130.345 793.439,129.982 792.986,129.616C792.465,129.19 791.928,128.773 791.39,128.369C790.918,128.025 790.443,127.684 789.96,127.321C789.414,126.928 788.861,126.538 788.304,126.162C787.816,125.82 787.319,125.512 786.822,125.198C786.257,124.835 785.695,124.478 785.111,124.134C784.612,123.834 784.085,123.531 783.589,123.245C783.005,122.909 782.415,122.584 781.826,122.271C781.302,122.011 780.784,121.722 780.26,121.463C779.657,121.157 779.051,120.865 778.426,120.576C777.905,120.328 777.378,120.088 776.835,119.853C776.216,119.577 775.588,119.329 774.966,119.067C774.426,118.849 773.891,118.628 773.348,118.423C772.712,118.18 772.068,117.957 771.427,117.741C770.882,117.55 770.339,117.356 769.79,117.182C769.138,116.969 768.483,116.775 767.815,116.579C767.269,116.418 766.718,116.259 766.172,116.112C765.959,116.055 765.749,116.008 765.536,115.954C773.275,123.466 779.013,132.792 782.241,143.082C788.451,141.442 794.465,139.123 800.174,136.17Z" fill="#454061"/>
<path d="M674.233,184.189L705.572,184.189C705.692,171.951 707.468,159.786 710.852,148.026C703.951,146.184 697.29,143.535 691.012,140.132C680.703,152.558 674.801,168.051 674.233,184.189Z" fill="#454061"/>
<path d="M744.741,259.78L744.741,226.087C735.603,226.215 726.503,227.288 717.586,229.285C723.761,246.522 733.559,258.187 744.741,259.78Z" fill="#454061"/>
<path d="M744.742,189.417L710.797,189.417C710.923,201.224 712.647,212.962 715.927,224.305C725.379,222.155 735.033,221.009 744.728,220.886L744.742,189.417Z" fill="#454061"/>
<path d="M744.741,113.823C733.557,115.413 723.753,127.084 717.586,144.321C726.503,146.321 735.603,147.393 744.741,147.521L744.741,113.823Z" fill="#454061"/>
<path d="M744.741,152.749C735.049,152.627 725.395,151.48 715.943,149.33C712.666,160.673 710.939,172.412 710.811,184.219L744.755,184.219L744.741,152.749Z" fill="#454061"/>
<path d="M729.161,115.94L728.525,116.096C727.968,116.24 727.42,116.407 726.871,116.565C726.214,116.759 725.564,116.952 724.904,117.165C724.35,117.345 723.802,117.536 723.256,117.725C722.618,117.951 721.979,118.178 721.349,118.409C720.8,118.617 720.26,118.838 719.72,119.059L717.862,119.842C717.324,120.079 716.792,120.325 716.257,120.573C715.657,120.857 715.054,121.146 714.459,121.449C713.938,121.714 713.414,121.989 712.893,122.268C712.306,122.582 711.719,122.904 711.144,123.231C710.622,123.523 710.109,123.82 709.602,124.129C709.034,124.47 708.472,124.814 707.913,125.177C707.408,125.496 706.912,125.826 706.418,126.159C705.866,126.533 705.323,126.915 704.783,127.302C704.297,127.646 703.812,127.987 703.337,128.35C702.802,128.754 702.292,129.171 701.754,129.586C701.291,129.96 700.818,130.325 700.363,130.713C699.842,131.144 699.337,131.594 698.84,132.039C698.393,132.435 697.942,132.819 697.503,133.234C697.009,133.695 696.524,134.178 696.041,134.656C695.62,135.073 695.192,135.485 694.78,135.911C694.706,135.99 694.633,136.08 694.551,136.159C700.251,139.103 706.257,141.417 712.462,143.052C715.687,132.77 721.431,123.449 729.161,115.94Z" fill="#454061"/>
<path d="M696.032,238.933C696.518,239.411 697.001,239.897 697.5,240.366C697.934,240.77 698.376,241.146 698.826,241.547C699.334,242 699.852,242.453 700.363,242.887C700.813,243.266 701.277,243.635 701.73,244C702.254,244.426 702.777,244.844 703.331,245.25C703.803,245.591 704.281,245.935 704.761,246.298C705.307,246.691 705.861,247.084 706.417,247.46C706.903,247.801 707.4,248.11 707.899,248.426C708.461,248.789 709.026,249.141 709.607,249.488C710.109,249.791 710.62,250.088 711.133,250.38C711.716,250.716 712.303,251.04 712.895,251.354C713.416,251.613 713.94,251.905 714.464,252.164C715.067,252.47 715.67,252.757 716.295,253.049C716.816,253.294 717.348,253.54 717.889,253.774C718.505,254.05 719.13,254.296 719.755,254.557C720.293,254.776 720.83,254.997 721.373,255.201C722.006,255.444 722.653,255.671 723.294,255.884C723.837,256.075 724.383,256.271 724.934,256.446C725.586,256.656 726.238,256.85 726.91,257.043C727.455,257.202 728.001,257.36 728.549,257.507C728.76,257.567 728.972,257.614 729.185,257.668C721.447,250.153 715.711,240.83 712.483,230.54C706.281,232.174 700.275,234.491 694.575,237.438C694.649,237.514 694.725,237.596 694.802,237.678C695.184,238.104 695.609,238.519 696.032,238.933Z" fill="#454061"/>
<path d="M691.015,233.471C697.296,230.068 703.951,227.418 710.855,225.577C707.468,213.816 705.695,201.652 705.575,189.414L674.236,189.414C674.807,205.551 680.706,221.044 691.015,233.471Z" fill="#454061"/>
</svg>
