<svg width="1028" height="842" viewBox="0 0 1028 842" fill="none" xmlns="http://www.w3.org/2000/svg" xmlns:xlink="http://www.w3.org/1999/xlink">
<path d="M525.486,41.994L522.486,42.032L522.564,48.032L525.564,47.993L525.486,41.994ZM506.056,48.748L509.05,48.554L508.664,42.567L505.67,42.76L506.056,48.748ZM495.786,43.528L492.798,43.799L493.34,49.775L496.328,49.503L495.786,43.528ZM476.942,51.775L479.912,51.348L479.058,45.409L476.088,45.836L476.942,51.775ZM466.286,47.376L463.328,47.881L464.338,53.796L467.294,53.291L466.286,47.376ZM448.148,57.079L451.074,56.42L449.754,50.567L446.828,51.226L448.148,57.079ZM437.192,53.531L434.284,54.268L435.756,60.084L438.666,59.348L437.192,53.531ZM419.88,64.636L422.744,63.747L420.966,58.016L418.102,58.905L419.88,64.636ZM408.656,61.972L405.816,62.936L407.744,68.618L410.586,67.654L408.656,61.972ZM392.274,74.411L395.06,73.299L392.836,67.727L390.05,68.839L392.274,74.411ZM380.892,72.636L378.138,73.822L380.508,79.334L383.264,78.148L380.892,72.636ZM365.542,86.332L368.23,85.003L365.574,79.624L362.884,80.952L365.542,86.332ZM354.049,85.463L351.395,86.862L354.193,92.169L356.848,90.77L354.049,85.463ZM339.826,100.323L342.403,98.787L339.33,93.633L336.753,95.169L339.826,100.323ZM328.301,100.36L325.765,101.963L328.971,107.035L331.507,105.431L328.301,100.36ZM315.286,116.291L317.735,114.557L314.268,109.661L311.819,111.394L315.286,116.291ZM303.803,117.228L301.401,119.025L304.994,123.83L307.396,122.033L303.803,117.228ZM292.073,134.129L294.379,132.209L290.54,127.598L288.234,129.518L292.073,134.129ZM280.695,135.963L278.44,137.942L282.398,142.451L284.653,140.473L280.695,135.963ZM270.321,153.727L272.47,151.633L268.283,147.336L266.134,149.429L270.321,153.727ZM259.122,156.442L257.028,158.59L261.326,162.778L263.419,160.629L259.122,156.442ZM250.165,174.96L252.144,172.706L247.635,168.748L245.656,171.002L250.165,174.96ZM239.21,178.542L237.291,180.847L241.902,184.686L243.821,182.381L239.21,178.542ZM231.726,197.704L233.522,195.302L228.718,191.708L226.921,194.11L231.726,197.704ZM221.087,202.127L219.353,204.575L224.25,208.042L225.984,205.594L221.087,202.127ZM215.124,221.814L216.727,219.279L211.656,216.072L210.053,218.608L215.124,221.814ZM204.862,227.061L203.326,229.638L208.479,232.71L210.015,230.133L204.862,227.061ZM200.463,247.156L201.862,244.501L196.554,241.703L195.155,244.357L200.463,247.156ZM190.645,253.192L189.316,255.882L194.695,258.538L196.024,255.85L190.645,253.192ZM187.841,273.572L189.026,270.816L183.515,268.446L182.329,271.2L187.841,273.572ZM178.532,280.358L177.419,283.144L182.991,285.368L184.104,282.582L178.532,280.358ZM177.346,300.894L178.31,298.052L172.629,296.124L171.665,298.964L177.346,300.894ZM168.598,308.41L167.709,311.276L173.44,313.052L174.328,310.188L168.598,308.41ZM169.041,328.974L169.777,326.066L163.961,324.592L163.224,327.5L169.041,328.974ZM160.919,337.136L160.259,340.062L166.113,341.382L166.772,338.456L160.919,337.136ZM162.984,357.604L163.488,354.646L157.574,353.636L157.069,356.594L162.984,357.604ZM155.528,366.396L155.101,369.366L161.04,370.22L161.467,367.25L155.528,366.396ZM159.196,386.636L159.467,383.648L153.492,383.106L153.221,386.094L159.196,386.636ZM152.453,395.978L152.259,398.972L158.247,399.358L158.44,396.364L152.453,395.978ZM157.686,415.872L157.724,412.872L151.725,412.796L151.686,415.794L157.686,415.872ZM151.686,425.754L151.725,428.754L157.724,428.676L157.686,425.676L151.686,425.754ZM158.44,445.184L158.247,442.19L152.259,442.576L152.453,445.57L158.44,445.184ZM153.221,455.456L153.492,458.442L159.467,457.9L159.196,454.912L153.221,455.456ZM161.467,474.298L161.04,471.328L155.101,472.182L155.528,475.152L161.467,474.298ZM157.069,484.954L157.574,487.912L163.488,486.902L162.984,483.946L157.069,484.954ZM166.772,503.094L166.113,500.166L160.259,501.486L160.919,504.412L166.772,503.094ZM163.224,514.048L163.961,516.956L169.777,515.484L169.041,512.576L163.224,514.048ZM174.328,531.362L173.44,528.496L167.709,530.274L168.598,533.138L174.328,531.362ZM171.665,542.584L172.629,545.424L178.31,543.496L177.346,540.656L171.665,542.584ZM184.104,558.966L182.991,556.18L177.419,558.406L178.532,561.192L184.104,558.966ZM182.329,570.348L183.515,573.104L189.026,570.732L187.841,567.976L182.329,570.348ZM196.024,585.7L194.695,583.01L189.316,585.668L190.645,588.358L196.024,585.7ZM195.155,597.192L196.554,599.846L201.862,597.048L200.463,594.394L195.155,597.192ZM210.015,611.416L208.479,608.838L203.326,611.91L204.862,614.488L210.015,611.416ZM210.053,622.94L211.656,625.476L216.727,622.27L215.124,619.734L210.053,622.94ZM225.984,635.954L224.25,633.506L219.353,636.974L221.087,639.422L225.984,635.954ZM226.921,647.438L228.717,649.84L233.522,646.248L231.725,643.844L226.921,647.438ZM243.821,659.168L241.902,656.862L237.291,660.702L239.21,663.008L243.821,659.168ZM245.655,670.546L247.634,672.802L252.144,668.844L250.165,666.588L245.655,670.546ZM263.419,680.92L261.326,678.772L257.028,682.958L259.122,685.108L263.419,680.92ZM266.134,692.12L268.283,694.214L272.47,689.916L270.321,687.822L266.134,692.12ZM284.653,701.076L282.398,699.098L278.44,703.608L280.695,705.586L284.653,701.076ZM288.234,712.032L290.54,713.95L294.379,709.34L292.073,707.42L288.234,712.032ZM307.396,719.516L304.994,717.72L301.4,722.524L303.803,724.322L307.396,719.516ZM311.819,730.156L314.267,731.89L317.735,726.992L315.286,725.258L311.819,730.156ZM331.507,736.118L328.971,734.514L325.765,739.586L328.3,741.19L331.507,736.118ZM336.753,746.38L339.33,747.916L342.403,742.764L339.826,741.226L336.753,746.38ZM356.846,750.78L354.193,749.38L351.395,754.688L354.049,756.088L356.846,750.78ZM362.884,760.598L365.572,761.926L368.23,756.548L365.54,755.218L362.884,760.598ZM383.264,763.402L380.508,762.216L378.136,767.728L380.892,768.914L383.264,763.402ZM390.05,772.71L392.836,773.824L395.06,768.252L392.274,767.138L390.05,772.71ZM410.584,773.896L407.744,772.932L405.816,778.614L408.656,779.578L410.584,773.896ZM418.102,782.646L420.966,783.534L422.744,777.804L419.878,776.914L418.102,782.646ZM438.666,782.202L435.756,781.466L434.284,787.282L437.192,788.018L438.666,782.202ZM446.828,790.324L449.754,790.984L451.074,785.13L448.148,784.472L446.828,790.324ZM467.294,788.26L464.338,787.754L463.328,793.67L466.286,794.174L467.294,788.26ZM476.088,795.714L479.058,796.142L479.912,790.202L476.942,789.776L476.088,795.714ZM496.328,792.048L493.34,791.776L492.798,797.752L495.786,798.022L496.328,792.048ZM505.67,798.79L508.664,798.984L509.05,792.996L506.056,792.802L505.67,798.79ZM525.564,793.558L522.564,793.518L522.488,799.518L525.486,799.556L525.564,793.558ZM535.446,799.556L538.446,799.518L538.368,793.518L535.368,793.558L535.446,799.556ZM554.876,792.802L551.882,792.996L552.268,798.984L555.262,798.79L554.876,792.802ZM565.148,798.022L568.134,797.752L567.592,791.776L564.604,792.048L565.148,798.022ZM583.99,789.776L581.02,790.202L581.874,796.142L584.844,795.714L583.99,789.776ZM594.646,794.174L597.604,793.67L596.594,787.754L593.638,788.26L594.646,794.174ZM612.786,784.472L609.858,785.13L611.178,790.984L614.104,790.324L612.786,784.472ZM623.74,788.018L626.648,787.282L625.176,781.466L622.268,782.202L623.74,788.018ZM641.054,776.914L638.188,777.804L639.966,783.534L642.83,782.646L641.054,776.914ZM652.276,779.578L655.116,778.614L653.188,772.932L650.348,773.896L652.276,779.578ZM668.658,767.138L665.872,768.252L668.096,773.824L670.884,772.71L668.658,767.138ZM680.04,768.914L682.796,767.728L680.424,762.216L677.668,763.402L680.04,768.914ZM695.392,755.218L692.702,756.548L695.36,761.926L698.05,760.598L695.392,755.218ZM706.884,756.086L709.538,754.688L706.74,749.38L704.086,750.78L706.884,756.086ZM721.106,741.226L718.53,742.764L721.602,747.916L724.18,746.38L721.106,741.226ZM732.632,741.19L735.168,739.586L731.962,734.514L729.426,736.118L732.632,741.19ZM745.646,725.258L743.198,726.992L746.664,731.888L749.114,730.156L745.646,725.258ZM757.13,724.322L759.532,722.524L755.938,717.72L753.536,719.516L757.13,724.322ZM768.86,707.42L766.554,709.34L770.392,713.95L772.698,712.032L768.86,707.42ZM780.238,705.586L782.492,703.608L778.534,699.098L776.28,701.076L780.238,705.586ZM790.612,687.822L788.462,689.916L792.65,694.214L794.798,692.12L790.612,687.822ZM801.81,685.108L803.904,682.958L799.606,678.772L797.514,680.92L801.81,685.108ZM810.768,666.588L808.788,668.844L813.298,672.802L815.276,670.546L810.768,666.588ZM821.722,663.008L823.642,660.702L819.03,656.862L817.112,659.168L821.722,663.008ZM829.206,643.844L827.41,646.248L832.216,649.84L834.012,647.438L829.206,643.844ZM839.846,639.422L841.58,636.974L836.682,633.506L834.948,635.954L839.846,639.422ZM845.808,619.734L844.206,622.27L849.276,625.476L850.88,622.94L845.808,619.734ZM856.07,614.488L857.606,611.91L852.454,608.838L850.918,611.416L856.07,614.488ZM860.47,594.394L859.07,597.048L864.378,599.846L865.778,597.192L860.47,594.394ZM870.288,588.358L871.616,585.668L866.238,583.01L864.908,585.7L870.288,588.358ZM873.092,567.976L871.906,570.732L877.418,573.104L878.604,570.348L873.092,567.976ZM882.4,561.192L883.514,558.404L877.94,556.18L876.828,558.966L882.4,561.192ZM883.586,540.656L882.622,543.496L888.304,545.424L889.268,542.584L883.586,540.656ZM892.334,533.138L893.224,530.274L887.492,528.496L886.604,531.362L892.334,533.138ZM891.892,512.576L891.156,515.484L896.972,516.956L897.708,514.048L891.892,512.576ZM900.014,504.412L900.674,501.486L894.82,500.166L894.16,503.092L900.014,504.412ZM897.948,483.946L897.444,486.902L903.358,487.912L903.864,484.954L897.948,483.946ZM905.404,475.152L905.832,472.182L899.892,471.328L899.466,474.298L905.404,475.152ZM901.736,454.912L901.466,457.9L907.44,458.442L907.712,455.456L901.736,454.912ZM908.48,445.57L908.672,442.576L902.686,442.19L902.492,445.184L908.48,445.57ZM903.246,425.676L903.208,428.676L909.208,428.754L909.246,425.754L903.246,425.676ZM909.246,415.794L909.208,412.794L903.208,412.872L903.246,415.872L909.246,415.794ZM902.492,396.364L902.686,399.358L908.672,398.972L908.48,395.978L902.492,396.364ZM907.712,386.094L907.44,383.106L901.466,383.648L901.736,386.636L907.712,386.094ZM899.466,367.25L899.892,370.22L905.832,369.366L905.404,366.396L899.466,367.25ZM903.864,356.594L903.358,353.636L897.444,354.646L897.948,357.604L903.864,356.594ZM894.16,338.456L894.82,341.382L900.674,340.062L900.014,337.136L894.16,338.456ZM897.708,327.5L896.972,324.592L891.156,326.064L891.892,328.974L897.708,327.5ZM886.604,310.188L887.492,313.052L893.224,311.274L892.334,308.41L886.604,310.188ZM889.268,298.964L888.304,296.124L882.622,298.052L883.586,300.894L889.268,298.964ZM876.828,282.582L877.94,285.368L883.514,283.144L882.4,280.358L876.828,282.582ZM878.604,271.2L877.418,268.446L871.906,270.816L873.092,273.572L878.604,271.2ZM864.908,255.85L866.236,258.538L871.616,255.882L870.288,253.192L864.908,255.85ZM865.776,244.356L864.378,241.703L859.07,244.501L860.47,247.156L865.776,244.356ZM850.916,230.133L852.454,232.71L857.606,229.638L856.07,227.061L850.916,230.133ZM850.88,218.608L849.276,216.072L844.206,219.279L845.808,221.814L850.88,218.608ZM834.948,205.594L836.682,208.042L841.58,204.575L839.846,202.127L834.948,205.594ZM834.012,194.11L832.214,191.708L827.41,195.301L829.206,197.704L834.012,194.11ZM817.11,182.381L819.03,184.686L823.642,180.847L821.722,178.542L817.11,182.381ZM815.276,171.002L813.298,168.748L808.788,172.705L810.768,174.96L815.276,171.002ZM797.514,160.629L799.606,162.778L803.904,158.59L801.81,156.442L797.514,160.629ZM794.798,149.429L792.65,147.336L788.462,151.633L790.61,153.727L794.798,149.429ZM776.28,140.472L778.534,142.451L782.492,137.942L780.238,135.963L776.28,140.472ZM772.698,129.518L770.392,127.598L766.554,132.209L768.86,134.129L772.698,129.518ZM753.536,122.033L755.938,123.83L759.532,119.025L757.13,117.228L753.536,122.033ZM749.114,111.394L746.664,109.661L743.198,114.557L745.646,116.291L749.114,111.394ZM729.426,105.431L731.962,107.035L735.168,101.963L732.632,100.36L729.426,105.431ZM724.178,95.169L721.602,93.633L718.53,98.787L721.106,100.323L724.178,95.169ZM704.086,90.77L706.738,92.169L709.538,86.862L706.884,85.463L704.086,90.77ZM698.048,80.952L695.36,79.624L692.702,85.003L695.39,86.332L698.048,80.952ZM677.668,78.148L680.424,79.334L682.796,73.822L680.04,72.636L677.668,78.148ZM670.882,68.839L668.096,67.727L665.872,73.299L668.658,74.411L670.882,68.839ZM650.348,67.654L653.188,68.618L655.116,62.936L652.276,61.972L650.348,67.654ZM642.83,58.905L639.966,58.016L638.188,63.747L641.054,64.636L642.83,58.905ZM622.266,59.348L625.176,60.084L626.648,54.268L623.74,53.531L622.266,59.348ZM614.104,51.226L611.178,50.567L609.858,56.42L612.784,57.079L614.104,51.226ZM593.638,53.291L596.594,53.796L597.604,47.881L594.646,47.376L593.638,53.291ZM584.844,45.836L581.874,45.409L581.02,51.348L583.99,51.775L584.844,45.836ZM564.604,49.503L567.592,49.775L568.134,43.799L565.146,43.528L564.604,49.503ZM555.262,42.76L552.268,42.567L551.882,48.554L554.876,48.748L555.262,42.76ZM535.368,47.993L538.368,48.032L538.446,42.032L535.446,41.994L535.368,47.993ZM530.466,41.962C528.804,41.962 527.144,41.972 525.486,41.994L525.564,47.993C527.196,47.972 528.83,47.962 530.466,47.962L530.466,41.962ZM505.67,42.76C502.364,42.974 499.068,43.23 495.786,43.528L496.328,49.503C499.558,49.21 502.802,48.958 506.056,48.748L505.67,42.76ZM476.088,45.836C472.808,46.307 469.54,46.821 466.286,47.376L467.294,53.291C470.498,52.744 473.714,52.239 476.942,51.775L476.088,45.836ZM446.828,51.226C443.6,51.954 440.388,52.722 437.192,53.531L438.666,59.348C441.81,58.552 444.972,57.795 448.148,57.079L446.828,51.226ZM418.102,58.905C414.936,59.887 411.786,60.91 408.656,61.972L410.586,67.654C413.666,66.608 416.764,65.602 419.88,64.636L418.102,58.905ZM390.05,68.839C386.978,70.066 383.924,71.332 380.892,72.636L383.264,78.148C386.248,76.864 389.252,75.619 392.274,74.411L390.05,68.839ZM362.884,80.952C359.916,82.418 356.972,83.922 354.049,85.463L356.848,90.77C359.724,89.254 362.622,87.774 365.542,86.332L362.884,80.952ZM336.753,95.169C333.912,96.864 331.094,98.594 328.301,100.36L331.507,105.431C334.256,103.693 337.029,101.99 339.826,100.323L336.753,95.169ZM311.819,111.394C309.121,113.305 306.449,115.249 303.803,117.228L307.396,122.033C310,120.086 312.631,118.171 315.286,116.291L311.819,111.394ZM288.234,129.518C285.693,131.634 283.18,133.782 280.695,135.963L284.653,140.473C287.098,138.326 289.572,136.212 292.073,134.129L288.234,129.518ZM266.134,149.429C263.766,151.736 261.429,154.074 259.122,156.442L263.419,160.629C265.69,158.298 267.991,155.997 270.321,153.727L266.134,149.429ZM245.656,171.002C243.475,173.487 241.326,176 239.21,178.542L243.821,182.381C245.904,179.879 248.019,177.406 250.165,174.96L245.656,171.002ZM226.921,194.11C224.942,196.756 222.997,199.428 221.087,202.127L225.984,205.594C227.864,202.938 229.778,200.308 231.726,197.704L226.921,194.11ZM210.053,218.608C208.287,221.401 206.556,224.219 204.862,227.061L210.015,230.133C211.683,227.337 213.386,224.563 215.124,221.814L210.053,218.608ZM195.155,244.357C193.615,247.28 192.111,250.224 190.645,253.192L196.024,255.85C197.467,252.93 198.947,250.032 200.463,247.156L195.155,244.357ZM182.329,271.2C181.025,274.232 179.759,277.286 178.532,280.358L184.104,282.582C185.311,279.56 186.557,276.556 187.841,273.572L182.329,271.2ZM171.665,298.964C170.602,302.094 169.58,305.244 168.598,308.41L174.328,310.188C175.295,307.072 176.301,303.974 177.346,300.894L171.665,298.964ZM163.224,327.5C162.415,330.696 161.646,333.908 160.919,337.136L166.772,338.456C167.488,335.28 168.244,332.118 169.041,328.974L163.224,327.5ZM157.069,356.594C156.514,359.848 156,363.116 155.528,366.396L161.467,367.25C161.931,364.022 162.437,360.806 162.984,357.604L157.069,356.594ZM153.221,386.094C152.923,389.376 152.667,392.672 152.453,395.978L158.44,396.364C158.651,393.11 158.903,389.866 159.196,386.636L153.221,386.094ZM151.686,415.794C151.665,417.452 151.654,419.112 151.654,420.774L157.654,420.774C157.654,419.138 157.665,417.504 157.686,415.872L151.686,415.794ZM151.654,420.774C151.654,422.436 151.665,424.096 151.686,425.754L157.686,425.676C157.665,424.044 157.654,422.41 157.654,420.774L151.654,420.774ZM152.453,445.57C152.667,448.878 152.923,452.172 153.221,455.456L159.196,454.912C158.903,451.682 158.651,448.438 158.44,445.184L152.453,445.57ZM155.528,475.152C156,478.434 156.514,481.702 157.069,484.954L162.984,483.946C162.437,480.744 161.931,477.528 161.467,474.298L155.528,475.152ZM160.919,504.412C161.646,507.64 162.415,510.852 163.224,514.048L169.041,512.576C168.244,509.43 167.488,506.27 166.772,503.094L160.919,504.412ZM168.598,533.138C169.58,536.306 170.602,539.454 171.665,542.584L177.346,540.656C176.301,537.576 175.295,534.478 174.328,531.362L168.598,533.138ZM178.532,561.192C179.759,564.264 181.025,567.316 182.329,570.348L187.841,567.976C186.557,564.994 185.311,561.99 184.104,558.966L178.532,561.192ZM190.645,588.358C192.111,591.324 193.615,594.27 195.155,597.192L200.463,594.394C198.947,591.518 197.467,588.62 196.024,585.7L190.645,588.358ZM204.862,614.488C206.556,617.33 208.287,620.148 210.053,622.94L215.124,619.734C213.386,616.986 211.683,614.212 210.015,611.416L204.862,614.488ZM221.087,639.422C222.997,642.12 224.942,644.792 226.921,647.438L231.725,643.844C229.778,641.24 227.864,638.61 225.984,635.954L221.087,639.422ZM239.21,663.008C241.326,665.548 243.475,668.062 245.655,670.546L250.165,666.588C248.019,664.144 245.904,661.67 243.821,659.168L239.21,663.008ZM259.122,685.108C261.429,687.476 263.766,689.812 266.134,692.12L270.321,687.822C267.991,685.552 265.69,683.25 263.419,680.92L259.122,685.108ZM280.695,705.586C283.179,707.766 285.693,709.916 288.234,712.032L292.073,707.42C289.572,705.338 287.098,703.222 284.653,701.076L280.695,705.586ZM303.803,724.322C306.448,726.3 309.121,728.244 311.819,730.156L315.286,725.258C312.63,723.378 310,721.464 307.396,719.516L303.803,724.322ZM328.3,741.19C331.093,742.956 333.911,744.686 336.753,746.38L339.826,741.226C337.029,739.56 334.256,737.856 331.507,736.118L328.3,741.19ZM354.049,756.088C356.972,757.628 359.916,759.132 362.884,760.598L365.54,755.218C362.622,753.776 359.722,752.296 356.846,750.78L354.049,756.088ZM380.892,768.914C383.924,770.218 386.976,771.484 390.05,772.71L392.274,767.138C389.252,765.932 386.248,764.686 383.264,763.402L380.892,768.914ZM408.656,779.578C411.786,780.64 414.936,781.664 418.102,782.646L419.878,776.914C416.764,775.948 413.664,774.942 410.584,773.896L408.656,779.578ZM437.192,788.018C440.388,788.828 443.6,789.596 446.828,790.324L448.148,784.472C444.97,783.756 441.81,782.998 438.666,782.202L437.192,788.018ZM466.286,794.174C469.54,794.73 472.808,795.244 476.088,795.714L476.942,789.776C473.714,789.312 470.498,788.806 467.294,788.26L466.286,794.174ZM495.786,798.022C499.068,798.32 502.364,798.576 505.67,798.79L506.056,792.802C502.802,792.592 499.558,792.34 496.328,792.048L495.786,798.022ZM525.486,799.556C527.144,799.578 528.804,799.59 530.466,799.59L530.466,793.59C528.83,793.59 527.196,793.578 525.564,793.558L525.486,799.556ZM530.466,799.59C532.128,799.59 533.788,799.578 535.446,799.556L535.368,793.558C533.736,793.578 532.102,793.59 530.466,793.59L530.466,799.59ZM555.262,798.79C558.57,798.576 561.864,798.32 565.148,798.022L564.604,792.048C561.374,792.34 558.13,792.592 554.876,792.802L555.262,798.79ZM584.844,795.714C588.126,795.244 591.392,794.73 594.646,794.174L593.638,788.26C590.436,788.806 587.22,789.312 583.99,789.776L584.844,795.714ZM614.104,790.324C617.332,789.596 620.544,788.828 623.74,788.018L622.268,782.202C619.122,782.998 615.962,783.756 612.786,784.472L614.104,790.324ZM642.83,782.646C645.998,781.664 649.146,780.64 652.276,779.578L650.348,773.896C647.268,774.942 644.17,775.948 641.054,776.914L642.83,782.646ZM670.884,772.71C673.956,771.484 677.008,770.218 680.04,768.914L677.668,763.402C674.684,764.686 671.682,765.932 668.658,767.138L670.884,772.71ZM698.05,760.598C701.016,759.132 703.962,757.628 706.884,756.086L704.086,750.78C701.21,752.296 698.312,753.776 695.392,755.218L698.05,760.598ZM724.18,746.38C727.022,744.686 729.838,742.956 732.632,741.19L729.426,736.118C726.676,737.856 723.904,739.56 721.106,741.226L724.18,746.38ZM749.114,730.156C751.812,728.244 754.484,726.3 757.13,724.322L753.536,719.516C750.932,721.464 748.302,723.378 745.646,725.258L749.114,730.156ZM772.698,712.032C775.24,709.916 777.754,707.766 780.238,705.586L776.28,701.076C773.834,703.222 771.36,705.338 768.86,707.42L772.698,712.032ZM794.798,692.12C797.166,689.812 799.504,687.476 801.81,685.108L797.514,680.92C795.242,683.25 792.942,685.552 790.612,687.822L794.798,692.12ZM815.276,670.546C817.458,668.062 819.606,665.548 821.722,663.008L817.112,659.168C815.028,661.67 812.914,664.144 810.768,666.588L815.276,670.546ZM834.012,647.438C835.99,644.792 837.936,642.12 839.846,639.422L834.948,635.954C833.068,638.61 831.154,641.24 829.206,643.844L834.012,647.438ZM850.88,622.94C852.646,620.148 854.376,617.33 856.07,614.488L850.918,611.416C849.25,614.212 847.546,616.986 845.808,619.734L850.88,622.94ZM865.778,597.192C867.318,594.27 868.822,591.324 870.288,588.358L864.908,585.7C863.466,588.62 861.986,591.518 860.47,594.394L865.778,597.192ZM878.604,570.348C879.908,567.316 881.174,564.264 882.4,561.192L876.828,558.966C875.622,561.99 874.376,564.994 873.092,567.976L878.604,570.348ZM889.268,542.584C890.33,539.454 891.352,536.306 892.334,533.138L886.604,531.362C885.638,534.478 884.632,537.576 883.586,540.656L889.268,542.584ZM897.708,514.048C898.518,510.852 899.286,507.64 900.014,504.412L894.16,503.092C893.444,506.27 892.688,509.43 891.892,512.576L897.708,514.048ZM903.864,484.954C904.418,481.7 904.932,478.434 905.404,475.152L899.466,474.298C899,477.528 898.496,480.744 897.948,483.946L903.864,484.954ZM907.712,455.456C908.01,452.172 908.266,448.876 908.48,445.57L902.492,445.184C902.282,448.438 902.03,451.682 901.736,454.912L907.712,455.456ZM909.246,425.754C909.268,424.096 909.278,422.436 909.278,420.774L903.278,420.774C903.278,422.41 903.268,424.044 903.246,425.676L909.246,425.754ZM909.278,420.774C909.278,419.112 909.268,417.452 909.246,415.794L903.246,415.872C903.268,417.504 903.278,419.138 903.278,420.774L909.278,420.774ZM908.48,395.978C908.266,392.672 908.01,389.376 907.712,386.094L901.736,386.636C902.03,389.866 902.282,393.11 902.492,396.364L908.48,395.978ZM905.404,366.396C904.932,363.116 904.418,359.848 903.864,356.594L897.948,357.604C898.496,360.806 899,364.022 899.466,367.25L905.404,366.396ZM900.014,337.136C899.286,333.908 898.518,330.696 897.708,327.5L891.892,328.974C892.688,332.118 893.444,335.28 894.16,338.456L900.014,337.136ZM892.334,308.41C891.352,305.244 890.33,302.094 889.268,298.964L883.586,300.894C884.632,303.974 885.638,307.072 886.604,310.188L892.334,308.41ZM882.4,280.358C881.174,277.286 879.908,274.232 878.604,271.2L873.092,273.572C874.376,276.556 875.622,279.56 876.828,282.582L882.4,280.358ZM870.288,253.192C868.822,250.224 867.318,247.28 865.776,244.356L860.47,247.156C861.986,250.032 863.466,252.93 864.908,255.85L870.288,253.192ZM856.07,227.061C854.376,224.219 852.646,221.401 850.88,218.608L845.808,221.814C847.546,224.563 849.25,227.337 850.916,230.133L856.07,227.061ZM839.846,202.127C837.936,199.428 835.99,196.756 834.012,194.11L829.206,197.704C831.154,200.308 833.068,202.938 834.948,205.594L839.846,202.127ZM821.722,178.542C819.606,176 817.458,173.487 815.276,171.002L810.768,174.96C812.914,177.406 815.028,179.879 817.11,182.381L821.722,178.542ZM801.81,156.442C799.504,154.074 797.166,151.736 794.798,149.429L790.61,153.727C792.942,155.997 795.242,158.298 797.514,160.629L801.81,156.442ZM780.238,135.963C777.752,133.782 775.24,131.634 772.698,129.518L768.86,134.129C771.36,136.211 773.834,138.326 776.28,140.472L780.238,135.963ZM757.13,117.228C754.484,115.249 751.812,113.305 749.114,111.394L745.646,116.291C748.302,118.171 750.932,120.086 753.536,122.033L757.13,117.228ZM732.632,100.36C729.838,98.594 727.02,96.864 724.178,95.169L721.106,100.323C723.904,101.99 726.676,103.693 729.426,105.431L732.632,100.36ZM706.884,85.463C703.96,83.922 701.016,82.418 698.048,80.952L695.39,86.332C698.31,87.774 701.21,89.254 704.086,90.77L706.884,85.463ZM680.04,72.636C677.008,71.332 673.954,70.066 670.882,68.839L668.658,74.411C671.68,75.619 674.684,76.864 677.668,78.148L680.04,72.636ZM652.276,61.972C649.146,60.91 645.996,59.887 642.83,58.905L641.054,64.636C644.168,65.602 647.266,66.608 650.348,67.654L652.276,61.972ZM623.74,53.531C620.544,52.722 617.332,51.954 614.104,51.226L612.784,57.079C615.962,57.795 619.122,58.552 622.266,59.348L623.74,53.531ZM594.646,47.376C591.392,46.821 588.124,46.307 584.844,45.836L583.99,51.775C587.22,52.239 590.436,52.744 593.638,53.291L594.646,47.376ZM565.146,43.528C561.864,43.23 558.568,42.974 555.262,42.76L554.876,48.748C558.13,48.958 561.374,49.21 564.604,49.503L565.146,43.528ZM535.446,41.994C533.788,41.972 532.128,41.962 530.466,41.962L530.466,47.962C532.102,47.962 533.736,47.972 535.368,47.993L535.446,41.994Z" transform="rotate(194.691 530.466 420.775)" fill="#3AD9AC"/>
<path d="M432.207,206.007L628.54,206.007C634.25,206.007 638.882,210.639 638.882,216.349L638.882,633.955C638.882,639.667 634.25,644.297 628.54,644.297L432.207,644.297C426.494,644.297 421.864,639.667 421.864,633.955L421.864,216.349C421.864,210.639 426.494,206.007 432.207,206.007Z" fill="#454061"/>
<path d="M482.793,215.232L434.869,215.232C432.011,215.232 429.695,217.548 429.695,220.404L429.695,630.738C429.695,633.594 432.011,635.906 434.869,635.906L625.878,635.906C628.733,635.906 631.051,633.594 631.051,630.738L631.051,220.417C631.051,217.562 628.733,215.246 625.878,215.246L482.793,215.246L482.793,215.232Z" fill="#36A691"/>
<rect  x="446.906" y="225.666" width="18.286" height="7.773" fill="#454061"/>
<path d="M446.906,225.666L446.906,225.166C446.63,225.166 446.406,225.389 446.406,225.666L446.906,225.666ZM465.192,225.666L465.692,225.666C465.692,225.389 465.468,225.166 465.192,225.166L465.192,225.666ZM465.192,233.439L465.192,233.939C465.468,233.939 465.692,233.715 465.692,233.439L465.192,233.439ZM446.906,233.439L446.406,233.439C446.406,233.715 446.63,233.939 446.906,233.939L446.906,233.439ZM446.906,226.166L465.192,226.166L465.192,225.166L446.906,225.166L446.906,226.166ZM464.692,225.666L464.692,233.439L465.692,233.439L465.692,225.666L464.692,225.666ZM465.192,232.939L446.906,232.939L446.906,233.939L465.192,233.939L465.192,232.939ZM447.406,233.439L447.406,225.666L446.406,225.666L446.406,233.439L447.406,233.439Z" fill="#454061"/>
<rect  x="465.192" y="226.975" width="2.839" height="5.16" fill="#454061"/>
<path d="M465.192,226.975L465.192,226.475C464.916,226.475 464.692,226.699 464.692,226.975L465.192,226.975ZM468.031,226.975L468.531,226.975C468.531,226.699 468.307,226.475 468.031,226.475L468.031,226.975ZM468.031,232.135L468.031,232.635C468.307,232.635 468.531,232.411 468.531,232.135L468.031,232.135ZM465.192,232.135L464.692,232.135C464.692,232.411 464.916,232.635 465.192,232.635L465.192,232.135ZM465.192,227.475L468.031,227.475L468.031,226.475L465.192,226.475L465.192,227.475ZM467.531,226.975L467.531,232.135L468.531,232.135L468.531,226.975L467.531,226.975ZM468.031,231.635L465.192,231.635L465.192,232.635L468.031,232.635L468.031,231.635ZM465.692,232.135L465.692,226.975L464.692,226.975L464.692,232.135L465.692,232.135Z" fill="#454061"/>
<rect  x="591.604" y="230.622" width="3.246" height="2.817" fill="#454061"/>
<path d="M591.604,230.622L591.604,230.122C591.328,230.122 591.104,230.346 591.104,230.622L591.604,230.622ZM594.85,230.622L595.35,230.622C595.35,230.346 595.126,230.122 594.85,230.122L594.85,230.622ZM594.85,233.439L594.85,233.939C595.126,233.939 595.35,233.715 595.35,233.439L594.85,233.439ZM591.604,233.439L591.104,233.439C591.104,233.715 591.328,233.939 591.604,233.939L591.604,233.439ZM591.604,231.122L594.85,231.122L594.85,230.122L591.604,230.122L591.604,231.122ZM594.35,230.622L594.35,233.439L595.35,233.439L595.35,230.622L594.35,230.622ZM594.85,232.939L591.604,232.939L591.604,233.939L594.85,233.939L594.85,232.939ZM592.104,233.439L592.104,230.622L591.104,230.622L591.104,233.439L592.104,233.439Z" fill="#454061"/>
<rect  x="597.937" y="227.786" width="3.246" height="5.655" fill="#454061"/>
<path d="M597.937,227.786L597.937,227.286C597.66,227.286 597.437,227.51 597.437,227.786L597.937,227.786ZM601.182,227.786L601.682,227.786C601.682,227.51 601.458,227.286 601.182,227.286L601.182,227.786ZM601.182,233.442L601.182,233.942C601.458,233.942 601.682,233.718 601.682,233.442L601.182,233.442ZM597.937,233.442L597.437,233.442C597.437,233.718 597.66,233.942 597.937,233.942L597.937,233.442ZM597.937,228.286L601.182,228.286L601.182,227.286L597.937,227.286L597.937,228.286ZM600.682,227.786L600.682,233.442L601.682,233.442L601.682,227.786L600.682,227.786ZM601.182,232.942L597.937,232.942L597.937,233.942L601.182,233.942L601.182,232.942ZM598.437,233.442L598.437,227.786L597.437,227.786L597.437,233.442L598.437,233.442Z" fill="#454061"/>
<rect  x="604.266" y="224.948" width="3.246" height="8.494" fill="#454061"/>
<path d="M604.266,224.948L604.266,224.448C603.99,224.448 603.766,224.671 603.766,224.948L604.266,224.948ZM607.512,224.948L608.012,224.948C608.012,224.671 607.788,224.448 607.512,224.448L607.512,224.948ZM607.512,233.441L607.512,233.941C607.788,233.941 608.012,233.718 608.012,233.441L607.512,233.441ZM604.266,233.441L603.766,233.441C603.766,233.718 603.99,233.941 604.266,233.941L604.266,233.441ZM604.266,225.448L607.512,225.448L607.512,224.448L604.266,224.448L604.266,225.448ZM607.012,224.948L607.012,233.441L608.012,233.441L608.012,224.948L607.012,224.948ZM607.512,232.941L604.266,232.941L604.266,233.941L607.512,233.941L607.512,232.941ZM604.766,233.441L604.766,224.948L603.766,224.948L603.766,233.441L604.766,233.441Z" fill="#454061"/>
<rect  x="610.595" y="222.114" width="3.246" height="11.327" fill="#454061"/>
<path d="M610.595,222.114L610.595,221.614C610.319,221.614 610.095,221.838 610.095,222.114L610.595,222.114ZM613.841,222.114L614.341,222.114C614.341,221.838 614.117,221.614 613.841,221.614L613.841,222.114ZM613.841,233.441L613.841,233.941C614.117,233.941 614.341,233.717 614.341,233.441L613.841,233.441ZM610.595,233.441L610.095,233.441C610.095,233.717 610.319,233.941 610.595,233.941L610.595,233.441ZM610.595,222.614L613.841,222.614L613.841,221.614L610.595,221.614L610.595,222.614ZM613.341,222.114L613.341,233.441L614.341,233.441L614.341,222.114L613.341,222.114ZM613.841,232.941L610.595,232.941L610.595,233.941L613.841,233.941L613.841,232.941ZM611.095,233.441L611.095,222.114L610.095,222.114L610.095,233.441L611.095,233.441Z" fill="#454061"/>
<path d="M778.044,526.52L1011.718,526.52C1018.402,526.52 1023.82,531.942 1023.82,538.623L1023.82,679.328C1023.82,686.01 1018.402,691.431 1011.718,691.431L778.044,691.431C771.36,691.431 765.944,686.01 765.944,679.328L765.944,538.623C765.944,531.942 771.36,526.52 778.044,526.52Z" transform="rotate(3.253 894.882 608.976)" fill="#454061"/>
<path d="M777.973,526.545L1015.16,526.545C1020.876,526.545 1025.504,531.177 1025.504,536.887L1025.504,572.618L767.628,572.618L767.628,536.887C767.628,531.177 772.26,526.545 777.973,526.545Z" transform="rotate(3.253 896.566 549.581)" fill="#79768E"/>
<path d="M795.628,588.279L843.453,588.279C847.26,588.279 850.349,591.365 850.349,595.174L850.349,622.89C850.349,626.699 847.26,629.786 843.453,629.786L795.628,629.786C791.818,629.786 788.729,626.699 788.729,622.89L788.729,595.174C788.729,591.365 791.818,588.279 795.628,588.279Z" transform="rotate(3.253 819.539 609.032)" fill="#575274"/>
<path d="M946.574,592.559L994.399,592.559C998.206,592.559 1001.295,595.645 1001.295,599.455L1001.295,599.785C1001.295,603.595 998.206,606.681 994.399,606.681L946.574,606.681C942.765,606.681 939.676,603.595 939.676,599.785L939.676,599.455C939.676,595.645 942.765,592.559 946.574,592.559Z" transform="rotate(3.253 970.486 599.62)" fill="#575274"/>
<path d="M968.744,615.697L993.747,615.697C997.557,615.697 1000.643,618.783 1000.643,622.592L1000.643,622.922C1000.643,626.732 997.557,629.818 993.747,629.818L968.744,629.818C964.935,629.818 961.848,626.732 961.848,622.922L961.848,622.592C961.848,618.783 964.935,615.697 968.744,615.697Z" transform="rotate(3.253 981.246 622.757)" fill="#575274"/>
<path d="M9.44,358.078L281.818,358.078C285.628,358.078 288.714,361.167 288.714,364.976L288.714,471.857C288.714,475.667 285.628,478.753 281.818,478.753L9.44,478.753C5.631,478.753 2.544,475.667 2.544,471.857L2.544,364.976C2.544,361.167 5.631,358.078 9.44,358.078Z" transform="rotate(-5.103 145.629 418.416)" fill="#454061"/>
<path d="M205.451,443.649L193.348,443.649L210.168,382.915L222.273,382.915L205.451,443.649Z" transform="rotate(-5.103 207.811 413.282)" fill="#79768E"/>
<path d="M199.232,387.125C198.314,385.928 196.848,385.282 195.343,385.405L128.841,385.405L125.56,397.299L186.051,397.299L182.52,410.007L134.133,410.007L134.133,409.982L122.033,409.982L111.996,446.238L124.099,446.238L130.824,421.92L185.223,421.92C186.97,421.909 188.665,421.298 190.018,420.193C191.451,419.125 192.491,417.61 192.972,415.891L199.697,391.572C200.264,390.101 200.091,388.448 199.232,387.125Z" transform="rotate(-5.103 156.011 415.814)" fill="#79768E"/>
<path d="M105.017,445.69C104.349,448.094 102.165,449.763 99.67,449.774L37.264,449.774C35.789,449.879 34.362,449.23 33.471,448.05C32.618,446.782 32.423,445.184 32.948,443.748L48.167,388.928L60.267,388.928L46.676,437.886L95.101,437.886L108.692,388.928L120.795,388.928L105.017,445.69Z" transform="rotate(-5.103 76.726 419.357)" fill="#79768E"/>
<path d="M243.146,381.483L258.448,411.925L226.271,442.36L243.146,381.483Z" transform="rotate(-5.103 242.36 411.922)" fill="#575274"/>
<path d="M232.405,381.962L247.704,412.404L215.5,442.839L232.405,381.962Z" transform="rotate(-5.103 231.602 412.401)" fill="#79768E"/>
<path d="M479.307,420.813C483.103,423.992 488.758,423.497 491.938,419.701C495.117,415.908 494.62,410.253 490.824,407.073C487.036,403.893 481.384,404.389 478.201,408.179C475.016,411.972 475.514,417.627 479.307,420.813Z" transform="rotate(-271.857 485.066 413.943)" fill="#454061"/>
<path d="M492.598,374.592C492.043,374.592 491.484,374.642 490.934,374.738C485.76,375.64 482.297,380.564 483.2,385.738C483.995,390.29 487.947,393.613 492.565,393.615C493.124,393.615 493.685,393.566 494.235,393.47C499.406,392.545 502.85,387.603 501.926,382.434C501.12,377.912 497.195,374.611 492.598,374.592Z" transform="rotate(-271.857 492.566 384.104)" fill="#454061"/>
<path d="M522.483,357.341C517.675,354.563 511.522,356.208 508.741,361.016C505.963,365.827 507.611,371.977 512.419,374.758C517.227,377.536 523.38,375.889 526.158,371.08L526.161,371.078C528.944,366.289 527.319,360.152 522.533,357.369C522.516,357.36 522.5,357.349 522.483,357.341Z" transform="rotate(-271.857 517.456 366.049)" fill="#454061"/>
<path d="M548.13,357.644C542.277,357.644 537.535,362.389 537.535,368.242C537.538,374.09 542.283,378.835 548.133,378.832C553.986,378.832 558.731,374.09 558.731,368.237C558.731,367.004 558.511,365.78 558.09,364.622C556.564,360.433 552.586,357.644 548.13,357.644Z" transform="rotate(-271.857 548.133 368.238)" fill="#454061"/>
<path d="M574.1,379.16C568.31,377.042 561.898,380.023 559.783,385.813C557.668,391.603 560.647,398.012 566.437,400.128C572.224,402.243 578.636,399.264 580.751,393.477C581.769,390.69 581.637,387.615 580.385,384.928C579.139,382.246 576.878,380.172 574.1,379.16Z" transform="rotate(-271.857 570.266 389.643)" fill="#454061"/>
<path d="M583.531,414.279C580.304,408.687 573.158,406.775 567.566,409.999L567.558,409.999C561.966,413.228 560.052,420.38 563.278,425.969C566.452,431.594 573.582,433.583 579.207,430.409C584.832,427.235 586.821,420.108 583.646,414.483C583.608,414.417 583.569,414.345 583.531,414.279Z" transform="rotate(-271.857 573.434 420.177)" fill="#454061"/>
<path d="M556.217,457.953C562.975,457.942 568.443,452.454 568.432,445.696C568.421,439.765 564.163,434.696 558.324,433.665C557.617,433.543 556.896,433.483 556.178,433.483C549.42,433.494 543.952,438.981 543.963,445.74C543.971,451.667 548.235,456.737 554.074,457.765C554.784,457.892 555.499,457.953 556.217,457.953Z" transform="rotate(-271.857 556.198 445.718)" fill="#454061"/>
<path d="M526.594,466.93C533.652,466.93 539.376,461.212 539.379,454.151C539.379,447.095 533.66,441.371 526.599,441.369C519.544,441.366 513.817,447.087 513.817,454.145C513.814,457.146 514.87,460.051 516.796,462.35C519.225,465.25 522.812,466.927 526.594,466.93Z" transform="rotate(-271.857 526.598 454.149)" fill="#454061"/>
<path d="M498.513,427.705C506.19,427.705 512.415,433.93 512.415,441.607C512.415,449.284 506.19,455.508 498.513,455.508C490.834,455.508 484.612,449.284 484.612,441.607C484.612,433.93 490.834,427.705 498.513,427.705Z" transform="rotate(-271.857 498.513 441.607)" fill="#454061"/>
<path d="M790.643,67.211C833.369,67.211 868.004,101.845 868.004,144.572C868.004,187.298 833.369,221.933 790.643,221.933C747.917,221.933 713.282,187.298 713.282,144.572C713.282,101.845 747.917,67.211 790.643,67.211Z" fill="#79768E"/>
<path d="M793.409,221.933C805.241,220.25 815.61,207.906 822.137,189.671C812.703,187.558 803.076,186.423 793.409,186.287L793.409,221.933Z" fill="#454061"/>
<path d="M812.313,219.034C813.012,218.832 813.711,218.63 814.403,218.408C814.987,218.22 815.558,218.012 816.133,217.816C816.814,217.579 817.489,217.34 818.165,217.094C818.742,216.875 819.311,216.641 819.882,216.41L821.854,215.582C822.42,215.331 822.983,215.068 823.549,214.805C824.184,214.505 824.822,214.199 825.451,213.881C826.002,213.599 826.556,213.307 827.111,213.013C827.731,212.681 828.349,212.34 828.961,211.994C829.512,211.679 830.044,211.367 830.581,211.044L832.37,209.938C832.904,209.6 833.427,209.257 833.949,208.902C834.532,208.509 835.107,208.094 835.681,207.687C836.192,207.326 836.709,206.962 837.208,206.581C837.763,206.154 838.328,205.715 838.883,205.273C839.373,204.878 839.87,204.491 840.355,204.087C840.906,203.625 841.437,203.149 841.966,202.672C842.439,202.257 842.91,201.844 843.369,201.417C843.897,200.923 844.411,200.412 844.925,199.907C845.369,199.465 845.819,199.032 846.255,198.579C846.336,198.495 846.414,198.406 846.498,198.319C840.468,195.204 834.12,192.759 827.555,191.027C824.143,201.913 818.067,211.78 809.883,219.727L810.558,219.565C811.153,219.392 811.736,219.196 812.313,219.034Z" fill="#454061"/>
<path d="M868.001,147.496L834.842,147.496C834.715,160.44 832.835,173.312 829.256,185.754C836.556,187.702 843.6,190.505 850.245,194.105C861.154,180.959 867.398,164.568 868.001,147.496Z" fill="#454061"/>
<path d="M793.412,141.965L829.317,141.965C829.184,129.474 827.356,117.059 823.889,105.056C813.89,107.33 803.68,108.546 793.423,108.676L793.412,141.965Z" fill="#454061"/>
<path d="M793.409,67.52L793.409,103.17C803.076,103.032 812.703,101.897 822.137,99.784C815.625,81.549 805.241,69.2 793.409,67.52Z" fill="#454061"/>
<path d="M793.408,180.754C803.662,180.884 813.875,182.099 823.875,184.374C827.342,172.371 829.169,159.955 829.305,147.464L793.394,147.464L793.408,180.754Z" fill="#454061"/>
<path d="M850.248,95.356C843.606,98.956 836.562,101.759 829.262,103.707C832.841,116.149 834.718,129.021 834.842,141.965L867.996,141.965C867.392,124.893 861.151,108.502 850.248,95.356Z" fill="#454061"/>
<path d="M846.518,91.162C846.437,91.078 846.356,90.994 846.278,90.908C845.842,90.455 845.383,90.022 844.939,89.583C844.425,89.078 843.92,88.567 843.392,88.076C842.936,87.649 842.459,87.247 841.989,86.82C841.452,86.347 840.903,85.865 840.363,85.403C839.884,84.999 839.394,84.615 838.914,84.228C838.363,83.778 837.794,83.336 837.226,82.909C836.726,82.545 836.224,82.184 835.713,81.8C835.136,81.385 834.55,80.972 833.961,80.573C833.444,80.213 832.919,79.886 832.393,79.554C831.796,79.17 831.201,78.792 830.583,78.429C830.055,78.111 829.498,77.791 828.973,77.487C828.355,77.132 827.731,76.789 827.108,76.457C826.553,76.183 826.005,75.877 825.451,75.602C824.813,75.279 824.172,74.97 823.511,74.664C822.959,74.402 822.402,74.148 821.828,73.899C821.173,73.608 820.509,73.345 819.851,73.068C819.279,72.837 818.713,72.603 818.139,72.387C817.466,72.13 816.785,71.893 816.106,71.665C815.529,71.463 814.955,71.258 814.374,71.073C813.684,70.848 812.992,70.643 812.284,70.435C811.707,70.265 811.124,70.097 810.547,69.942C810.321,69.881 810.099,69.832 809.874,69.774C818.061,77.721 824.131,87.588 827.546,98.474C834.117,96.739 840.479,94.285 846.518,91.162Z" fill="#454061"/>
<path d="M713.282,141.962L746.436,141.962C746.563,129.015 748.442,116.146 752.022,103.705C744.721,101.756 737.675,98.953 731.033,95.353C720.127,108.499 713.883,124.89 713.282,141.962Z" fill="#454061"/>
<path d="M787.875,221.933L787.875,186.287C778.207,186.423 768.58,187.558 759.146,189.671C765.679,207.906 776.045,220.247 787.875,221.933Z" fill="#454061"/>
<path d="M787.874,147.493L751.964,147.493C752.097,159.984 753.921,172.403 757.391,184.403C767.39,182.128 777.604,180.916 787.86,180.786L787.874,147.493Z" fill="#454061"/>
<path d="M787.875,67.52C776.042,69.202 765.67,81.549 759.146,99.784C768.58,101.9 778.207,103.035 787.875,103.17L787.875,67.52Z" fill="#454061"/>
<path d="M787.874,108.702C777.621,108.572 767.408,107.359 757.408,105.084C753.941,117.085 752.114,129.503 751.978,141.994L787.889,141.994L787.874,108.702Z" fill="#454061"/>
<path d="M771.391,69.76L770.719,69.924C770.13,70.077 769.55,70.253 768.969,70.421C768.274,70.626 767.587,70.831 766.888,71.056C766.302,71.246 765.722,71.448 765.145,71.648C764.469,71.887 763.794,72.127 763.127,72.372C762.547,72.592 761.975,72.825 761.403,73.059L759.438,73.888C758.869,74.139 758.306,74.399 757.74,74.661C757.105,74.962 756.467,75.268 755.838,75.588C755.286,75.868 754.732,76.16 754.181,76.454C753.56,76.786 752.94,77.127 752.33,77.473C751.779,77.782 751.236,78.097 750.699,78.423C750.099,78.784 749.504,79.147 748.913,79.531C748.379,79.869 747.853,80.218 747.331,80.571C746.748,80.966 746.173,81.37 745.602,81.78C745.088,82.144 744.574,82.505 744.072,82.889C743.506,83.316 742.966,83.757 742.397,84.196C741.907,84.592 741.407,84.979 740.925,85.388C740.374,85.845 739.84,86.321 739.314,86.791C738.841,87.21 738.365,87.617 737.9,88.056C737.377,88.544 736.863,89.055 736.353,89.56C735.908,90.001 735.455,90.437 735.019,90.888C734.941,90.971 734.863,91.067 734.776,91.15C740.807,94.265 747.16,96.713 753.725,98.442C757.137,87.565 763.213,77.704 771.391,69.76Z" fill="#454061"/>
<path d="M736.344,199.878C736.858,200.383 737.369,200.897 737.897,201.394C738.356,201.821 738.823,202.219 739.3,202.644C739.837,203.123 740.385,203.602 740.925,204.061C741.401,204.462 741.892,204.852 742.371,205.239C742.925,205.689 743.48,206.131 744.066,206.561C744.565,206.922 745.07,207.285 745.578,207.669C746.156,208.085 746.742,208.501 747.331,208.899C747.844,209.26 748.37,209.586 748.898,209.921C749.493,210.305 750.09,210.677 750.705,211.044C751.236,211.364 751.776,211.679 752.319,211.988C752.937,212.343 753.557,212.686 754.184,213.018C754.735,213.293 755.289,213.602 755.843,213.876C756.481,214.199 757.119,214.502 757.78,214.811C758.332,215.071 758.895,215.331 759.466,215.579C760.119,215.871 760.78,216.13 761.441,216.407C762.009,216.638 762.578,216.872 763.153,217.089C763.822,217.346 764.506,217.585 765.185,217.81C765.759,218.012 766.337,218.22 766.92,218.405C767.61,218.627 768.3,218.832 769.01,219.037C769.587,219.205 770.164,219.372 770.745,219.528C770.967,219.591 771.192,219.641 771.417,219.698C763.231,211.748 757.163,201.884 753.748,190.999C747.186,192.728 740.833,195.178 734.802,198.296C734.88,198.377 734.961,198.464 735.042,198.55C735.446,199 735.896,199.439 736.344,199.878Z" fill="#454061"/>
<path d="M731.036,194.099C737.681,190.499 744.721,187.696 752.025,185.748C748.442,173.306 746.566,160.437 746.439,147.49L713.285,147.49C713.888,164.562 720.13,180.953 731.036,194.099Z" fill="#454061"/>
</svg>
