<svg width="970" height="796" viewBox="0 0 970 796" fill="none" xmlns="http://www.w3.org/2000/svg" xmlns:xlink="http://www.w3.org/1999/xlink">
<path d="M496.462,39.533L493.462,39.574L493.544,45.573L496.544,45.533L496.462,39.533ZM477.144,46.323L480.136,46.119L479.73,40.133L476.736,40.337L477.144,46.323ZM466.908,41.141L463.922,41.426L464.492,47.399L467.478,47.113L466.908,41.141ZM448.218,49.49L451.184,49.041L450.286,43.109L447.32,43.558L448.218,49.49ZM437.562,45.175L434.61,45.706L435.672,51.611L438.626,51.08L437.562,45.175ZM419.626,55.045L422.544,54.351L421.156,48.513L418.238,49.207L419.626,55.045ZM408.67,51.623L405.772,52.398L407.32,58.194L410.218,57.42L408.67,51.623ZM391.61,62.952L394.46,62.018L392.592,56.316L389.74,57.251L391.61,62.952ZM380.406,60.455L377.582,61.468L379.61,67.115L382.432,66.102L380.406,60.455ZM364.354,73.161L367.118,71.993L364.782,66.467L362.018,67.635L364.354,73.161ZM352.97,71.609L350.24,72.854L352.73,78.313L355.46,77.068L352.97,71.609ZM338.027,85.606L340.684,84.213L337.897,78.899L335.24,80.293L338.027,85.606ZM326.562,84.999L323.945,86.466L326.878,91.7L329.495,90.234L326.562,84.999ZM312.827,100.187L315.359,98.578L312.142,93.513L309.61,95.122L312.827,100.187ZM301.353,100.527L298.866,102.205L302.221,107.179L304.708,105.502L301.353,100.527ZM288.916,116.796L291.308,114.985L287.684,110.202L285.293,112.014L288.916,116.796ZM277.506,118.084L275.165,119.96L278.918,124.641L281.259,122.765L277.506,118.084ZM266.451,135.319L268.685,133.317L264.681,128.848L262.447,130.85L266.451,135.319ZM255.185,137.539L253.006,139.601L257.131,143.958L259.31,141.896L255.185,137.539ZM245.582,155.623L247.645,153.445L243.287,149.32L241.225,151.499L245.582,155.623ZM234.537,158.76L232.535,160.995L237.003,164.999L239.005,162.764L234.537,158.76ZM226.451,177.572L228.328,175.232L223.646,171.479L221.77,173.819L226.451,177.572ZM215.7,181.607L213.889,183.998L218.671,187.621L220.483,185.23L215.7,181.607ZM209.188,201.022L210.866,198.534L205.891,195.179L204.214,197.667L209.188,201.022ZM198.808,205.924L197.2,208.456L202.265,211.673L203.873,209.141L198.808,205.924ZM193.92,225.809L195.386,223.191L190.152,220.259L188.686,222.876L193.92,225.809ZM183.979,231.554L182.586,234.211L187.899,236.998L189.293,234.341L183.979,231.554ZM180.755,251.773L181.999,249.043L176.54,246.555L175.295,249.283L180.755,251.773ZM171.321,258.331L170.153,261.095L175.679,263.431L176.848,260.667L171.321,258.331ZM169.788,278.745L170.802,275.923L165.154,273.895L164.141,276.719L169.788,278.745ZM160.937,286.053L160.002,288.905L165.704,290.773L166.638,287.923L160.937,286.053ZM161.106,306.533L161.881,303.633L156.084,302.085L155.309,304.983L161.106,306.533ZM152.894,314.551L152.2,317.469L158.037,318.857L158.731,315.939L152.894,314.551ZM154.766,334.939L155.297,331.985L149.392,330.923L148.861,333.875L154.766,334.939ZM147.244,343.633L146.795,346.599L152.727,347.497L153.177,344.531L147.244,343.633ZM150.8,363.791L151.085,360.805L145.112,360.235L144.827,363.221L150.8,363.791ZM144.023,373.049L143.819,376.043L149.805,376.449L150.009,373.457L144.023,373.049ZM149.219,392.857L149.259,389.857L143.26,389.775L143.219,392.775L149.219,392.857ZM143.219,402.689L143.26,405.687L149.259,405.607L149.219,402.607L143.219,402.689ZM150.009,422.007L149.805,419.015L143.819,419.421L144.023,422.415L150.009,422.007ZM144.827,432.243L145.112,435.229L151.085,434.659L150.8,431.673L144.827,432.243ZM153.177,450.933L152.727,447.967L146.795,448.865L147.244,451.831L153.177,450.933ZM148.861,461.587L149.392,464.541L155.297,463.479L154.766,460.525L148.861,461.587ZM158.731,479.525L158.037,476.607L152.2,477.995L152.894,480.913L158.731,479.525ZM155.309,490.481L156.084,493.379L161.881,491.831L161.106,488.931L155.309,490.481ZM166.638,507.541L165.704,504.691L160.002,506.559L160.937,509.411L166.638,507.541ZM164.141,518.745L165.154,521.569L170.802,519.541L169.788,516.719L164.141,518.745ZM176.848,534.797L175.679,532.033L170.153,534.369L171.321,537.133L176.848,534.797ZM175.295,546.181L176.54,548.911L181.999,546.421L180.755,543.691L175.295,546.181ZM189.293,561.123L187.899,558.467L182.586,561.255L183.979,563.911L189.293,561.123ZM188.686,572.589L190.152,575.207L195.386,572.273L193.92,569.657L188.686,572.589ZM203.873,586.325L202.265,583.791L197.2,587.009L198.808,589.541L203.873,586.325ZM204.214,597.799L205.891,600.285L210.865,596.931L209.188,594.443L204.214,597.799ZM220.483,610.235L218.671,607.843L213.888,611.467L215.7,613.859L220.483,610.235ZM221.77,621.645L223.646,623.987L228.328,620.233L226.451,617.893L221.77,621.645ZM239.005,632.701L237.003,630.467L232.535,634.471L234.536,636.705L239.005,632.701ZM241.225,643.967L243.287,646.145L247.644,642.021L245.582,639.841L241.225,643.967ZM259.31,653.569L257.131,651.507L253.006,655.865L255.185,657.927L259.31,653.569ZM262.447,664.615L264.681,666.617L268.685,662.149L266.45,660.147L262.447,664.615ZM281.258,672.701L278.918,670.825L275.165,675.505L277.505,677.381L281.258,672.701ZM285.293,683.451L287.684,685.263L291.307,680.481L288.916,678.669L285.293,683.451ZM304.708,689.965L302.221,688.287L298.866,693.261L301.353,694.939L304.708,689.965ZM309.61,700.343L312.142,701.953L315.359,696.887L312.827,695.279L309.61,700.343ZM329.495,705.233L326.877,703.765L323.945,709.001L326.562,710.467L329.495,705.233ZM335.24,715.173L337.897,716.567L340.684,711.253L338.027,709.859L335.24,715.173ZM355.46,718.397L352.73,717.153L350.24,722.613L352.97,723.857L355.46,718.397ZM362.018,727.831L364.78,728.999L367.118,723.473L364.354,722.305L362.018,727.831ZM382.432,729.365L379.608,728.351L377.582,733.999L380.406,735.011L382.432,729.365ZM389.74,738.215L392.592,739.151L394.46,733.449L391.61,732.515L389.74,738.215ZM410.218,738.047L407.32,737.273L405.772,743.069L408.67,743.843L410.218,738.047ZM418.236,746.259L421.156,746.953L422.544,741.117L419.624,740.421L418.236,746.259ZM438.626,744.387L435.672,743.855L434.61,749.761L437.562,750.293L438.626,744.387ZM447.32,751.909L450.286,752.357L451.184,746.425L448.218,745.977L447.32,751.909ZM467.478,748.353L464.492,748.067L463.922,754.041L466.908,754.327L467.478,748.353ZM476.736,755.131L479.73,755.333L480.136,749.347L477.144,749.143L476.736,755.131ZM496.544,749.935L493.544,749.893L493.462,755.893L496.462,755.933L496.544,749.935ZM506.376,755.933L509.374,755.893L509.294,749.893L506.294,749.935L506.376,755.933ZM525.694,749.143L522.702,749.347L523.108,755.333L526.102,755.131L525.694,749.143ZM535.93,754.327L538.916,754.041L538.346,748.067L535.36,748.353L535.93,754.327ZM554.62,745.977L551.654,746.425L552.552,752.357L555.518,751.909L554.62,745.977ZM565.274,750.293L568.228,749.761L567.164,743.855L564.212,744.387L565.274,750.293ZM583.212,740.421L580.294,741.115L581.682,746.953L584.6,746.259L583.212,740.421ZM594.168,743.843L597.066,743.069L595.518,737.273L592.618,738.047L594.168,743.843ZM611.228,732.515L608.378,733.449L610.246,739.151L613.096,738.215L611.228,732.515ZM622.432,735.011L625.256,733.999L623.228,728.351L620.404,729.365L622.432,735.011ZM638.484,722.305L635.72,723.473L638.056,728.999L640.82,727.831L638.484,722.305ZM649.868,723.857L652.596,722.613L650.108,717.153L647.378,718.397L649.868,723.857ZM664.81,709.859L662.154,711.253L664.94,716.567L667.598,715.173L664.81,709.859ZM676.276,710.467L678.892,709.001L675.96,703.765L673.342,705.233L676.276,710.467ZM690.01,695.279L687.478,696.887L690.696,701.953L693.228,700.343L690.01,695.279ZM701.484,694.939L703.972,693.261L700.616,688.287L698.13,689.965L701.484,694.939ZM713.922,678.669L711.53,680.481L715.154,685.263L717.544,683.451L713.922,678.669ZM725.332,677.381L727.672,675.505L723.92,670.825L721.578,672.701L725.332,677.381ZM736.386,660.147L734.152,662.149L738.156,666.617L740.39,664.615L736.386,660.147ZM747.652,657.927L749.832,655.865L745.706,651.507L743.528,653.569L747.652,657.927ZM757.256,639.841L755.194,642.021L759.55,646.145L761.612,643.967L757.256,639.841ZM768.3,636.705L770.302,634.471L765.834,630.467L763.832,632.701L768.3,636.705ZM776.386,617.893L774.51,620.233L779.192,623.987L781.068,621.645L776.386,617.893ZM787.138,613.859L788.948,611.467L784.166,607.843L782.354,610.235L787.138,613.859ZM793.65,594.443L791.972,596.931L796.946,600.285L798.624,597.799L793.65,594.443ZM804.03,589.541L805.638,587.009L800.572,583.791L798.964,586.325L804.03,589.541ZM808.918,569.657L807.452,572.273L812.686,575.207L814.152,572.589L808.918,569.657ZM818.858,563.911L820.252,561.255L814.938,558.467L813.544,561.123L818.858,563.911ZM822.082,543.691L820.838,546.421L826.298,548.911L827.542,546.181L822.082,543.691ZM831.516,537.133L832.684,534.369L827.158,532.033L825.99,534.797L831.516,537.133ZM833.05,516.719L832.036,519.541L837.684,521.569L838.696,518.745L833.05,516.719ZM841.9,509.411L842.834,506.559L837.134,504.691L836.2,507.541L841.9,509.411ZM841.732,488.931L840.956,491.831L846.754,493.379L847.528,490.481L841.732,488.931ZM849.944,480.913L850.638,477.995L844.8,476.607L844.106,479.525L849.944,480.913ZM848.072,460.525L847.54,463.477L853.446,464.541L853.976,461.587L848.072,460.525ZM855.592,451.831L856.042,448.865L850.11,447.967L849.66,450.933L855.592,451.831ZM852.038,431.673L851.752,434.659L857.726,435.229L858.01,432.243L852.038,431.673ZM858.814,422.415L859.018,419.421L853.032,419.015L852.828,422.007L858.814,422.415ZM853.618,402.607L853.578,405.607L859.578,405.687L859.618,402.689L853.618,402.607ZM859.618,392.775L859.578,389.775L853.578,389.857L853.618,392.857L859.618,392.775ZM852.828,373.457L853.032,376.449L859.018,376.043L858.814,373.049L852.828,373.457ZM858.01,363.221L857.726,360.235L851.752,360.805L852.038,363.791L858.01,363.221ZM849.66,344.531L850.11,347.497L856.042,346.599L855.592,343.633L849.66,344.531ZM853.976,333.875L853.446,330.923L847.54,331.985L848.072,334.939L853.976,333.875ZM844.106,315.939L844.8,318.857L850.638,317.469L849.944,314.551L844.106,315.939ZM847.528,304.983L846.754,302.085L840.956,303.633L841.732,306.531L847.528,304.983ZM836.2,287.923L837.134,290.773L842.834,288.905L841.9,286.053L836.2,287.923ZM838.696,276.719L837.684,273.895L832.036,275.923L833.05,278.745L838.696,276.719ZM825.99,260.667L827.158,263.431L832.684,261.095L831.516,258.331L825.99,260.667ZM827.542,249.283L826.298,246.555L820.838,249.043L822.082,251.773L827.542,249.283ZM813.544,234.341L814.938,236.998L820.252,234.21L818.858,231.554L813.544,234.341ZM814.152,222.876L812.686,220.258L807.45,223.191L808.918,225.808L814.152,222.876ZM798.964,209.14L800.572,211.673L805.638,208.456L804.03,205.924L798.964,209.14ZM798.624,197.667L796.946,195.179L791.972,198.534L793.65,201.022L798.624,197.667ZM782.354,185.23L784.166,187.621L788.948,183.998L787.138,181.607L782.354,185.23ZM781.068,173.819L779.19,171.479L774.51,175.232L776.386,177.572L781.068,173.819ZM763.832,162.764L765.834,164.999L770.302,160.995L768.3,158.76L763.832,162.764ZM761.612,151.499L759.55,149.32L755.192,153.445L757.256,155.623L761.612,151.499ZM743.528,141.896L745.706,143.958L749.832,139.601L747.652,137.539L743.528,141.896ZM740.39,130.85L738.156,128.848L734.152,133.317L736.386,135.319L740.39,130.85ZM721.578,122.765L723.92,124.641L727.672,119.96L725.332,118.084L721.578,122.765ZM717.544,112.014L715.154,110.202L711.53,114.985L713.922,116.796L717.544,112.014ZM698.13,105.502L700.616,107.179L703.972,102.205L701.484,100.527L698.13,105.502ZM693.228,95.122L690.696,93.513L687.478,98.578L690.01,100.187L693.228,95.122ZM673.342,90.234L675.96,91.7L678.892,86.466L676.276,84.999L673.342,90.234ZM667.598,80.293L664.94,78.899L662.154,84.213L664.81,85.606L667.598,80.293ZM647.378,77.068L650.108,78.313L652.596,72.854L649.866,71.609L647.378,77.068ZM640.82,67.635L638.056,66.467L635.72,71.993L638.482,73.161L640.82,67.635ZM620.404,66.102L623.228,67.115L625.254,61.468L622.432,60.455L620.404,66.102ZM613.096,57.251L610.246,56.316L608.376,62.018L611.228,62.952L613.096,57.251ZM592.618,57.42L595.516,58.194L597.066,52.398L594.168,51.623L592.618,57.42ZM584.6,49.207L581.682,48.513L580.294,54.351L583.212,55.045L584.6,49.207ZM564.212,51.08L567.164,51.611L568.228,45.706L565.274,45.175L564.212,51.08ZM555.518,43.558L552.552,43.109L551.654,49.041L554.62,49.49L555.518,43.558ZM535.358,47.113L538.346,47.399L538.916,41.426L535.93,41.141L535.358,47.113ZM526.102,40.337L523.108,40.133L522.702,46.119L525.694,46.323L526.102,40.337ZM506.294,45.533L509.294,45.573L509.374,39.574L506.374,39.533L506.294,45.533ZM501.418,39.499C499.764,39.499 498.112,39.511 496.462,39.533L496.544,45.533C498.166,45.511 499.792,45.499 501.418,45.499L501.418,39.499ZM476.736,40.337C473.448,40.56 470.172,40.829 466.908,41.141L467.478,47.113C470.688,46.807 473.91,46.543 477.144,46.323L476.736,40.337ZM447.32,43.558C444.052,44.053 440.8,44.592 437.562,45.175L438.626,51.08C441.808,50.507 445.006,49.977 448.218,49.49L447.32,43.558ZM418.238,49.207C415.03,49.97 411.842,50.775 408.67,51.623L410.218,57.42C413.338,56.586 416.474,55.794 419.626,55.045L418.238,49.207ZM389.74,57.251C386.61,58.277 383.498,59.345 380.406,60.455L382.432,66.102C385.472,65.011 388.532,63.961 391.61,62.952L389.74,57.251ZM362.018,67.635C358.98,68.919 355.964,70.244 352.97,71.609L355.46,77.068C358.404,75.726 361.368,74.424 364.354,73.161L362.018,67.635ZM335.24,80.293C332.324,81.823 329.431,83.392 326.562,84.999L329.495,90.234C332.315,88.653 335.16,87.111 338.027,85.606L335.24,80.293ZM309.61,95.122C306.831,96.887 304.079,98.689 301.353,100.527L304.708,105.502C307.388,103.694 310.095,101.922 312.827,100.187L309.61,95.122ZM285.293,112.014C282.669,114.002 280.073,116.025 277.506,118.084L281.259,122.765C283.783,120.741 286.336,118.751 288.916,116.796L285.293,112.014ZM262.447,130.85C259.995,133.047 257.575,135.276 255.185,137.539L259.31,141.896C261.66,139.671 264.04,137.479 266.451,135.319L262.447,130.85ZM241.225,151.499C238.963,153.888 236.733,156.309 234.537,158.76L239.005,162.764C241.165,160.354 243.358,157.973 245.582,155.623L241.225,151.499ZM221.77,173.819C219.712,176.386 217.688,178.982 215.7,181.607L220.483,185.23C222.438,182.649 224.427,180.097 226.451,177.572L221.77,173.819ZM204.214,197.667C202.375,200.393 200.573,203.145 198.808,205.924L203.873,209.141C205.608,206.409 207.38,203.702 209.188,201.022L204.214,197.667ZM188.686,222.876C187.078,225.744 185.509,228.637 183.979,231.554L189.293,234.341C190.797,231.473 192.34,228.629 193.92,225.809L188.686,222.876ZM175.295,249.283C173.93,252.277 172.605,255.293 171.321,258.331L176.848,260.667C178.11,257.681 179.413,254.717 180.755,251.773L175.295,249.283ZM164.141,276.719C163.031,279.811 161.963,282.923 160.937,286.053L166.638,287.923C167.647,284.845 168.697,281.785 169.788,278.745L164.141,276.719ZM155.309,304.983C154.461,308.155 153.656,311.345 152.894,314.551L158.731,315.939C159.48,312.787 160.272,309.651 161.106,306.533L155.309,304.983ZM148.861,333.875C148.278,337.113 147.739,340.365 147.244,343.633L153.177,344.531C153.663,341.319 154.193,338.121 154.766,334.939L148.861,333.875ZM144.827,363.221C144.515,366.485 144.247,369.761 144.023,373.049L150.009,373.457C150.229,370.223 150.493,367.001 150.8,363.791L144.827,363.221ZM143.219,392.775C143.197,394.425 143.186,396.077 143.186,397.731L149.186,397.731C149.186,396.105 149.197,394.479 149.219,392.857L143.219,392.775ZM143.186,397.731C143.186,399.387 143.197,401.039 143.219,402.689L149.219,402.607C149.197,400.985 149.186,399.359 149.186,397.731L143.186,397.731ZM144.023,422.415C144.247,425.703 144.515,428.979 144.827,432.243L150.8,431.673C150.493,428.463 150.229,425.241 150.009,422.007L144.023,422.415ZM147.244,451.831C147.739,455.099 148.278,458.351 148.861,461.587L154.766,460.525C154.193,457.343 153.663,454.145 153.177,450.933L147.244,451.831ZM152.894,480.913C153.656,484.119 154.461,487.309 155.309,490.481L161.106,488.931C160.272,485.813 159.48,482.677 158.731,479.525L152.894,480.913ZM160.937,509.411C161.963,512.541 163.031,515.653 164.141,518.745L169.788,516.719C168.698,513.679 167.647,510.619 166.638,507.541L160.937,509.411ZM171.321,537.133C172.606,540.171 173.93,543.187 175.295,546.181L180.755,543.691C179.413,540.747 178.11,537.783 176.848,534.797L171.321,537.133ZM183.979,563.911C185.509,566.827 187.078,569.721 188.686,572.589L193.92,569.657C192.34,566.835 190.797,563.991 189.293,561.123L183.979,563.911ZM198.808,589.541C200.573,592.319 202.375,595.073 204.214,597.799L209.188,594.443C207.38,591.763 205.608,589.057 203.873,586.325L198.808,589.541ZM215.7,613.859C217.688,616.483 219.712,619.079 221.77,621.645L226.451,617.893C224.427,615.369 222.438,612.815 220.483,610.235L215.7,613.859ZM234.536,636.705C236.733,639.157 238.963,641.577 241.225,643.967L245.582,639.841C243.357,637.491 241.165,635.111 239.005,632.701L234.536,636.705ZM255.185,657.927C257.574,660.189 259.995,662.419 262.447,664.615L266.45,660.147C264.04,657.987 261.66,655.795 259.31,653.569L255.185,657.927ZM277.505,677.381C280.072,679.441 282.669,681.463 285.293,683.451L288.916,678.669C286.336,676.715 283.783,674.725 281.258,672.701L277.505,677.381ZM301.353,694.939C304.079,696.777 306.831,698.579 309.61,700.343L312.827,695.279C310.095,693.543 307.388,691.771 304.708,689.965L301.353,694.939ZM326.562,710.467C329.43,712.073 332.323,713.643 335.24,715.173L338.027,709.859C335.159,708.355 332.315,706.813 329.495,705.233L326.562,710.467ZM352.97,723.857C355.964,725.223 358.98,726.547 362.018,727.831L364.354,722.305C361.368,721.043 358.402,719.739 355.46,718.397L352.97,723.857ZM380.406,735.011C383.498,736.121 386.61,737.189 389.74,738.215L391.61,732.515C388.532,731.505 385.472,730.455 382.432,729.365L380.406,735.011ZM408.67,743.843C411.842,744.691 415.03,745.497 418.236,746.259L419.624,740.421C416.472,739.673 413.338,738.881 410.218,738.047L408.67,743.843ZM437.562,750.293C440.8,750.875 444.052,751.413 447.32,751.909L448.218,745.977C445.006,745.489 441.808,744.959 438.626,744.387L437.562,750.293ZM466.908,754.327C470.172,754.639 473.448,754.907 476.736,755.131L477.144,749.143C473.91,748.923 470.688,748.661 467.478,748.353L466.908,754.327ZM496.462,755.933C498.112,755.957 499.764,755.967 501.418,755.967L501.418,749.967C499.792,749.967 498.166,749.957 496.544,749.935L496.462,755.933ZM501.418,755.967C503.074,755.967 504.726,755.957 506.376,755.933L506.294,749.935C504.672,749.957 503.046,749.967 501.418,749.967L501.418,755.967ZM526.102,755.131C529.39,754.907 532.666,754.639 535.93,754.327L535.36,748.353C532.15,748.661 528.928,748.923 525.694,749.143L526.102,755.131ZM555.518,751.909C558.786,751.413 562.038,750.875 565.274,750.293L564.212,744.387C561.03,744.959 557.832,745.489 554.62,745.977L555.518,751.909ZM584.6,746.259C587.806,745.497 590.996,744.691 594.168,743.843L592.618,738.047C589.5,738.881 586.364,739.673 583.212,740.421L584.6,746.259ZM613.096,738.215C616.228,737.189 619.34,736.121 622.432,735.011L620.404,729.365C617.366,730.455 614.306,731.505 611.228,732.515L613.096,738.215ZM640.82,727.831C643.858,726.547 646.874,725.223 649.868,723.857L647.378,718.397C644.434,719.739 641.47,721.043 638.484,722.305L640.82,727.831ZM667.598,715.173C670.514,713.643 673.408,712.073 676.276,710.467L673.342,705.233C670.522,706.813 667.678,708.355 664.81,709.859L667.598,715.173ZM693.228,700.343C696.006,698.579 698.758,696.777 701.484,694.939L698.13,689.965C695.45,691.771 692.742,693.543 690.01,695.279L693.228,700.343ZM717.544,683.451C720.168,681.463 722.764,679.441 725.332,677.381L721.578,672.701C719.054,674.725 716.502,676.715 713.922,678.669L717.544,683.451ZM740.39,664.615C742.842,662.419 745.264,660.189 747.652,657.927L743.528,653.569C741.178,655.795 738.798,657.987 736.386,660.147L740.39,664.615ZM761.612,643.967C763.874,641.577 766.104,639.157 768.3,636.705L763.832,632.701C761.672,635.111 759.48,637.491 757.256,639.841L761.612,643.967ZM781.068,621.645C783.126,619.079 785.15,616.483 787.138,613.859L782.354,610.235C780.4,612.815 778.41,615.369 776.386,617.893L781.068,621.645ZM798.624,597.799C800.462,595.073 802.264,592.319 804.03,589.541L798.964,586.325C797.23,589.057 795.458,591.763 793.65,594.443L798.624,597.799ZM814.152,572.589C815.76,569.721 817.328,566.827 818.858,563.911L813.544,561.123C812.04,563.991 810.498,566.835 808.918,569.657L814.152,572.589ZM827.542,546.181C828.906,543.187 830.232,540.171 831.516,537.133L825.99,534.797C824.728,537.783 823.424,540.747 822.082,543.691L827.542,546.181ZM838.696,518.745C839.806,515.653 840.874,512.541 841.9,509.411L836.2,507.541C835.19,510.619 834.14,513.679 833.05,516.719L838.696,518.745ZM847.528,490.481C848.376,487.309 849.182,484.119 849.944,480.913L844.106,479.525C843.356,482.677 842.566,485.813 841.732,488.931L847.528,490.481ZM853.976,461.587C854.56,458.351 855.098,455.099 855.592,451.831L849.66,450.933C849.174,454.145 848.644,457.343 848.072,460.525L853.976,461.587ZM858.01,432.243C858.322,428.979 858.59,425.703 858.814,422.415L852.828,422.007C852.608,425.241 852.344,428.463 852.038,431.673L858.01,432.243ZM859.618,402.689C859.64,401.039 859.652,399.387 859.652,397.731L853.652,397.731C853.652,399.359 853.64,400.985 853.618,402.607L859.618,402.689ZM859.652,397.731C859.652,396.077 859.64,394.425 859.618,392.775L853.618,392.857C853.64,394.479 853.652,396.105 853.652,397.731L859.652,397.731ZM858.814,373.049C858.59,369.761 858.322,366.485 858.01,363.221L852.038,363.791C852.344,367.001 852.608,370.223 852.828,373.457L858.814,373.049ZM855.592,343.633C855.098,340.365 854.56,337.113 853.976,333.875L848.072,334.939C848.644,338.121 849.174,341.319 849.66,344.531L855.592,343.633ZM849.944,314.551C849.182,311.345 848.376,308.155 847.528,304.983L841.732,306.531C842.566,309.651 843.356,312.787 844.106,315.939L849.944,314.551ZM841.9,286.053C840.874,282.923 839.806,279.811 838.696,276.719L833.05,278.745C834.14,281.785 835.19,284.845 836.2,287.923L841.9,286.053ZM831.516,258.331C830.232,255.293 828.906,252.277 827.542,249.283L822.082,251.773C823.424,254.717 824.728,257.681 825.99,260.667L831.516,258.331ZM818.858,231.554C817.328,228.637 815.758,225.744 814.152,222.876L808.918,225.808C810.498,228.629 812.04,231.473 813.544,234.341L818.858,231.554ZM804.03,205.924C802.264,203.145 800.462,200.392 798.624,197.667L793.65,201.022C795.458,203.702 797.23,206.408 798.964,209.14L804.03,205.924ZM787.138,181.607C785.15,178.982 783.126,176.386 781.068,173.819L776.386,177.572C778.41,180.097 780.4,182.649 782.354,185.23L787.138,181.607ZM768.3,158.76C766.104,156.309 763.874,153.888 761.612,151.499L757.256,155.623C759.48,157.973 761.672,160.354 763.832,162.764L768.3,158.76ZM747.652,137.539C745.262,135.276 742.842,133.047 740.39,130.85L736.386,135.319C738.798,137.479 741.178,139.671 743.528,141.896L747.652,137.539ZM725.332,118.084C722.764,116.025 720.168,114.002 717.544,112.014L713.922,116.796C716.502,118.751 719.054,120.741 721.578,122.765L725.332,118.084ZM701.484,100.527C698.758,98.689 696.006,96.887 693.228,95.122L690.01,100.187C692.742,101.922 695.45,103.694 698.13,105.502L701.484,100.527ZM676.276,84.999C673.406,83.392 670.514,81.823 667.598,80.293L664.81,85.606C667.678,87.111 670.522,88.653 673.342,90.234L676.276,84.999ZM649.866,71.609C646.872,70.244 643.856,68.919 640.82,67.635L638.482,73.161C641.47,74.424 644.434,75.726 647.378,77.068L649.866,71.609ZM622.432,60.455C619.34,59.345 616.228,58.277 613.096,57.251L611.228,62.952C614.306,63.961 617.364,65.011 620.404,66.102L622.432,60.455ZM594.168,51.623C590.996,50.775 587.806,49.97 584.6,49.207L583.212,55.045C586.364,55.794 589.5,56.586 592.618,57.42L594.168,51.623ZM565.274,45.175C562.038,44.592 558.786,44.053 555.518,43.558L554.62,49.49C557.832,49.977 561.03,50.507 564.212,51.08L565.274,45.175ZM535.93,41.141C532.666,40.829 529.39,40.56 526.102,40.337L525.694,46.323C528.928,46.543 532.15,46.807 535.358,47.113L535.93,41.141ZM506.374,39.533C504.726,39.511 503.074,39.499 501.418,39.499L501.418,45.499C503.046,45.499 504.672,45.511 506.294,45.533L506.374,39.533Z" transform="rotate(194.691 501.419 397.734)" fill="#3AD9AC"/>
<path d="M408.539,194.726L594.122,194.726C599.519,194.726 603.897,199.104 603.897,204.502L603.897,599.24C603.897,604.64 599.519,609.016 594.122,609.016L408.539,609.016C403.139,609.016 398.763,604.64 398.763,599.24L398.763,204.502C398.763,199.104 403.139,194.726 408.539,194.726Z" fill="#454061"/>
<path d="M456.356,203.446L411.056,203.446C408.355,203.446 406.166,205.636 406.166,208.334L406.166,596.2C406.166,598.898 408.355,601.084 411.056,601.084L591.605,601.084C594.304,601.084 596.496,598.898 596.496,596.2L596.496,208.347C596.496,205.649 594.304,203.459 591.605,203.459L456.356,203.459L456.356,203.446Z" fill="#36A691"/>
<rect  x="422.434" y="213.308" width="17.285" height="7.348" fill="#454061"/>
<path d="M422.434,213.308L422.434,212.808C422.157,212.808 421.934,213.032 421.934,213.308L422.434,213.308ZM439.718,213.308L440.218,213.308C440.218,213.032 439.995,212.808 439.718,212.808L439.718,213.308ZM439.718,220.656L439.718,221.156C439.995,221.156 440.218,220.932 440.218,220.656L439.718,220.656ZM422.434,220.656L421.934,220.656C421.934,220.932 422.157,221.156 422.434,221.156L422.434,220.656ZM422.434,213.808L439.718,213.808L439.718,212.808L422.434,212.808L422.434,213.808ZM439.218,213.308L439.218,220.656L440.218,220.656L440.218,213.308L439.218,213.308ZM439.718,220.156L422.434,220.156L422.434,221.156L439.718,221.156L439.718,220.156ZM422.934,220.656L422.934,213.308L421.934,213.308L421.934,220.656L422.934,220.656Z" fill="#454061"/>
<rect  x="439.718" y="214.546" width="2.683" height="4.878" fill="#454061"/>
<path d="M439.718,214.546L439.718,214.046C439.442,214.046 439.218,214.27 439.218,214.546L439.718,214.546ZM442.401,214.546L442.901,214.546C442.901,214.27 442.678,214.046 442.401,214.046L442.401,214.546ZM442.401,219.423L442.401,219.923C442.678,219.923 442.901,219.7 442.901,219.423L442.401,219.423ZM439.718,219.423L439.218,219.423C439.218,219.7 439.442,219.923 439.718,219.923L439.718,219.423ZM439.718,215.046L442.401,215.046L442.401,214.046L439.718,214.046L439.718,215.046ZM441.901,214.546L441.901,219.423L442.901,219.423L442.901,214.546L441.901,214.546ZM442.401,218.923L439.718,218.923L439.718,219.923L442.401,219.923L442.401,218.923ZM440.218,219.423L440.218,214.546L439.218,214.546L439.218,219.423L440.218,219.423Z" fill="#454061"/>
<rect  x="559.209" y="217.993" width="3.068" height="2.662" fill="#454061"/>
<path d="M559.209,217.993L559.209,217.493C558.933,217.493 558.709,217.717 558.709,217.993L559.209,217.993ZM562.277,217.993L562.777,217.993C562.777,217.717 562.553,217.493 562.277,217.493L562.277,217.993ZM562.277,220.656L562.277,221.156C562.553,221.156 562.777,220.932 562.777,220.656L562.277,220.656ZM559.209,220.656L558.709,220.656C558.709,220.932 558.933,221.156 559.209,221.156L559.209,220.656ZM559.209,218.493L562.277,218.493L562.277,217.493L559.209,217.493L559.209,218.493ZM561.777,217.993L561.777,220.656L562.777,220.656L562.777,217.993L561.777,217.993ZM562.277,220.156L559.209,220.156L559.209,221.156L562.277,221.156L562.277,220.156ZM559.709,220.656L559.709,217.993L558.709,217.993L558.709,220.656L559.709,220.656Z" fill="#454061"/>
<rect  x="565.194" y="215.313" width="3.068" height="5.346" fill="#454061"/>
<path d="M565.194,215.313L565.194,214.813C564.918,214.813 564.694,215.037 564.694,215.313L565.194,215.313ZM568.262,215.313L568.762,215.313C568.762,215.037 568.538,214.813 568.262,214.813L568.262,215.313ZM568.262,220.658L568.262,221.158C568.538,221.158 568.762,220.935 568.762,220.658L568.262,220.658ZM565.194,220.658L564.694,220.658C564.694,220.935 564.918,221.158 565.194,221.158L565.194,220.658ZM565.194,215.813L568.262,215.813L568.262,214.813L565.194,214.813L565.194,215.813ZM567.762,215.313L567.762,220.658L568.762,220.658L568.762,215.313L567.762,215.313ZM568.262,220.158L565.194,220.158L565.194,221.158L568.262,221.158L568.262,220.158ZM565.694,220.658L565.694,215.313L564.694,215.313L564.694,220.658L565.694,220.658Z" fill="#454061"/>
<rect  x="571.177" y="212.63" width="3.068" height="8.029" fill="#454061"/>
<path d="M571.177,212.63L571.177,212.13C570.901,212.13 570.677,212.354 570.677,212.63L571.177,212.63ZM574.245,212.63L574.745,212.63C574.745,212.354 574.521,212.13 574.245,212.13L574.245,212.63ZM574.245,220.658L574.245,221.158C574.521,221.158 574.745,220.935 574.745,220.658L574.245,220.658ZM571.177,220.658L570.677,220.658C570.677,220.935 570.901,221.158 571.177,221.158L571.177,220.658ZM571.177,213.13L574.245,213.13L574.245,212.13L571.177,212.13L571.177,213.13ZM573.745,212.63L573.745,220.658L574.745,220.658L574.745,212.63L573.745,212.63ZM574.245,220.158L571.177,220.158L571.177,221.158L574.245,221.158L574.245,220.158ZM571.677,220.658L571.677,212.63L570.677,212.63L570.677,220.658L571.677,220.658Z" fill="#454061"/>
<rect  x="577.16" y="209.952" width="3.068" height="10.707" fill="#454061"/>
<path d="M577.16,209.952L577.16,209.452C576.884,209.452 576.66,209.676 576.66,209.952L577.16,209.952ZM580.228,209.952L580.728,209.952C580.728,209.676 580.504,209.452 580.228,209.452L580.228,209.952ZM580.228,220.658L580.228,221.158C580.504,221.158 580.728,220.935 580.728,220.658L580.228,220.658ZM577.16,220.658L576.66,220.658C576.66,220.935 576.884,221.158 577.16,221.158L577.16,220.658ZM577.16,210.452L580.228,210.452L580.228,209.452L577.16,209.452L577.16,210.452ZM579.728,209.952L579.728,220.658L580.728,220.658L580.728,209.952L579.728,209.952ZM580.228,220.158L577.16,220.158L577.16,221.158L580.228,221.158L580.228,220.158ZM577.66,220.658L577.66,209.952L576.66,209.952L576.66,220.658L577.66,220.658Z" fill="#454061"/>
<path d="M735.439,497.689L956.318,497.689C962.636,497.689 967.758,502.813 967.758,509.129L967.758,642.129C967.758,648.444 962.636,653.569 956.318,653.569L735.439,653.569C729.121,653.569 724.002,648.444 724.002,642.129L724.002,509.129C724.002,502.813 729.121,497.689 735.439,497.689Z" transform="rotate(3.253 845.88 575.629)" fill="#454061"/>
<path d="M735.372,497.711L959.57,497.711C964.974,497.711 969.35,502.09 969.35,507.487L969.35,541.261L725.594,541.261L725.594,507.487C725.594,502.09 729.972,497.711 735.372,497.711Z" transform="rotate(3.253 847.471 519.486)" fill="#79768E"/>
<path d="M752.06,556.065L797.266,556.065C800.864,556.065 803.784,558.983 803.784,562.584L803.784,588.781C803.784,592.382 800.864,595.299 797.266,595.299L752.06,595.299C748.459,595.299 745.539,592.382 745.539,588.781L745.539,562.584C745.539,558.983 748.459,556.065 752.06,556.065Z" transform="rotate(3.253 774.662 575.682)" fill="#575274"/>
<path d="M894.741,560.111L939.947,560.111C943.545,560.111 946.465,563.028 946.465,566.629L946.465,566.941C946.465,570.542 943.545,573.46 939.947,573.46L894.741,573.46C891.14,573.46 888.22,570.542 888.22,566.941L888.22,566.629C888.22,563.028 891.14,560.111 894.741,560.111Z" transform="rotate(3.253 917.342 566.785)" fill="#575274"/>
<path d="M915.696,581.981L939.33,581.981C942.931,581.981 945.849,584.898 945.849,588.499L945.849,588.811C945.849,592.412 942.931,595.329 939.33,595.329L915.696,595.329C912.095,595.329 909.178,592.412 909.178,588.811L909.178,588.499C909.178,584.898 912.095,581.981 915.696,581.981Z" transform="rotate(3.253 927.513 588.655)" fill="#575274"/>
<path d="M8.923,338.47L266.385,338.47C269.987,338.47 272.903,341.389 272.903,344.99L272.903,446.019C272.903,449.62 269.987,452.537 266.385,452.537L8.923,452.537C5.322,452.537 2.405,449.62 2.405,446.019L2.405,344.99C2.405,341.389 5.322,338.47 8.923,338.47Z" transform="rotate(-5.103 137.654 395.503)" fill="#454061"/>
<path d="M194.2,419.355L182.76,419.355L198.659,361.947L210.102,361.947L194.2,419.355Z" transform="rotate(-5.103 196.431 390.651)" fill="#79768E"/>
<path d="M188.322,365.926C187.454,364.795 186.068,364.184 184.646,364.301L121.785,364.301L118.684,375.543L175.863,375.543L172.524,387.555L126.788,387.555L126.788,387.532L115.35,387.532L105.863,421.802L117.303,421.802L123.66,398.816L175.08,398.816C176.731,398.805 178.333,398.228 179.612,397.183C180.967,396.174 181.949,394.742 182.404,393.117L188.761,370.13C189.297,368.739 189.133,367.176 188.322,365.926Z" transform="rotate(-5.103 147.468 393.044)" fill="#79768E"/>
<path d="M99.267,421.284C98.635,423.556 96.57,425.134 94.212,425.145L35.223,425.145C33.83,425.244 32.48,424.63 31.638,423.515C30.832,422.316 30.647,420.805 31.144,419.448L45.53,367.63L56.967,367.63L44.121,413.908L89.894,413.908L102.74,367.63L114.18,367.63L99.267,421.284Z" transform="rotate(-5.103 72.525 396.393)" fill="#79768E"/>
<path d="M229.832,360.593L244.295,389.367L213.881,418.136L229.832,360.593Z" transform="rotate(-5.103 229.088 389.365)" fill="#575274"/>
<path d="M219.679,361.046L234.14,389.821L203.699,418.59L219.679,361.046Z" transform="rotate(-5.103 218.919 389.818)" fill="#79768E"/>
<path d="M453.06,397.769C456.648,400.775 461.993,400.307 464.999,396.719C468.005,393.133 467.534,387.788 463.946,384.782C460.366,381.777 455.023,382.245 452.015,385.827C449.004,389.413 449.474,394.758 453.06,397.769Z" transform="rotate(-271.857 458.504 391.275)" fill="#454061"/>
<path d="M465.624,354.08C465.099,354.08 464.571,354.127 464.051,354.218C459.16,355.07 455.887,359.724 456.74,364.615C457.491,368.918 461.227,372.059 465.593,372.061C466.12,372.061 466.651,372.015 467.171,371.924C472.059,371.05 475.314,366.378 474.44,361.492C473.679,357.218 469.968,354.098 465.624,354.08Z" transform="rotate(-271.857 465.593 363.071)" fill="#454061"/>
<path d="M493.872,337.774C489.327,335.148 483.511,336.702 480.882,341.247C478.256,345.795 479.814,351.608 484.359,354.237C488.903,356.863 494.72,355.305 497.346,350.761L497.348,350.758C499.979,346.231 498.443,340.431 493.919,337.8C493.903,337.792 493.888,337.781 493.872,337.774Z" transform="rotate(-271.857 489.12 346.005)" fill="#454061"/>
<path d="M518.115,338.06C512.582,338.06 508.1,342.545 508.1,348.078C508.102,353.605 512.587,358.09 518.117,358.088C523.65,358.088 528.135,353.605 528.135,348.072C528.135,346.908 527.927,345.751 527.529,344.656C526.086,340.696 522.327,338.06 518.115,338.06Z" transform="rotate(-271.857 518.117 348.074)" fill="#454061"/>
<path d="M542.662,358.397C537.189,356.395 531.129,359.213 529.129,364.686C527.13,370.159 529.946,376.217 535.419,378.217C540.889,380.216 546.95,377.4 548.949,371.93C549.911,369.296 549.786,366.389 548.603,363.849C547.426,361.314 545.288,359.354 542.662,358.397Z" transform="rotate(-271.857 539.038 368.306)" fill="#454061"/>
<path d="M551.577,391.593C548.527,386.308 541.772,384.501 536.486,387.548L536.479,387.548C531.193,390.6 529.383,397.36 532.433,402.643C535.433,407.96 542.173,409.84 547.49,406.84C552.807,403.839 554.686,397.103 551.686,391.786C551.65,391.723 551.613,391.656 551.577,391.593Z" transform="rotate(-271.857 542.033 397.168)" fill="#454061"/>
<path d="M525.759,432.875C532.147,432.865 537.316,427.678 537.305,421.29C537.295,415.684 533.27,410.892 527.75,409.917C527.082,409.803 526.401,409.746 525.722,409.746C519.334,409.756 514.165,414.943 514.176,421.331C514.183,426.934 518.213,431.726 523.733,432.698C524.404,432.818 525.08,432.875 525.759,432.875Z" transform="rotate(-271.857 525.74 421.31)" fill="#454061"/>
<path d="M497.757,441.361C504.429,441.361 509.84,435.956 509.842,429.282C509.842,422.613 504.437,417.202 497.763,417.2C491.094,417.197 485.68,422.605 485.68,429.277C485.678,432.113 486.676,434.859 488.496,437.032C490.792,439.773 494.182,441.359 497.757,441.361Z" transform="rotate(-271.857 497.761 429.281)" fill="#454061"/>
<path d="M471.215,404.284C478.472,404.284 484.355,410.168 484.355,417.424C484.355,424.681 478.472,430.565 471.215,430.565C463.956,430.565 458.075,424.681 458.075,417.424C458.075,410.168 463.956,404.284 471.215,404.284Z" transform="rotate(-271.857 471.215 417.424)" fill="#454061"/>
<path d="M747.348,63.53C787.734,63.53 820.473,96.269 820.473,136.655C820.473,177.042 787.734,209.78 747.348,209.78C706.961,209.78 674.223,177.042 674.223,136.655C674.223,96.269 706.961,63.53 747.348,63.53Z" fill="#79768E"/>
<path d="M749.962,209.78C761.147,208.189 770.948,196.521 777.117,179.285C768.2,177.287 759.1,176.215 749.962,176.087L749.962,209.78Z" fill="#454061"/>
<path d="M767.832,207.04C768.492,206.849 769.152,206.658 769.807,206.448C770.358,206.271 770.899,206.074 771.442,205.889C772.086,205.665 772.724,205.439 773.363,205.207C773.908,204.999 774.446,204.778 774.986,204.56L776.85,203.777C777.385,203.539 777.917,203.291 778.452,203.043C779.052,202.759 779.655,202.47 780.25,202.17C780.771,201.902 781.295,201.627 781.819,201.348C782.405,201.035 782.989,200.713 783.568,200.385C784.089,200.088 784.591,199.793 785.098,199.487L786.79,198.442C787.295,198.123 787.789,197.798 788.283,197.463C788.834,197.092 789.377,196.699 789.92,196.314C790.403,195.973 790.891,195.629 791.363,195.269C791.887,194.865 792.422,194.45 792.946,194.033C793.41,193.659 793.879,193.293 794.338,192.911C794.859,192.475 795.361,192.025 795.86,191.574C796.308,191.181 796.753,190.791 797.186,190.387C797.686,189.921 798.171,189.438 798.657,188.96C799.077,188.543 799.503,188.134 799.915,187.705C799.991,187.626 800.065,187.541 800.144,187.46C794.444,184.515 788.444,182.204 782.239,180.567C779.014,190.857 773.27,200.183 765.534,207.695L766.173,207.542C766.735,207.379 767.286,207.193 767.832,207.04Z" fill="#454061"/>
<path d="M820.47,139.419L789.126,139.419C789.006,151.654 787.23,163.821 783.846,175.582C790.747,177.424 797.405,180.073 803.686,183.476C813.998,171.05 819.9,155.556 820.47,139.419Z" fill="#454061"/>
<path d="M749.965,134.191L783.904,134.191C783.778,122.384 782.051,110.649 778.774,99.303C769.322,101.453 759.671,102.602 749.976,102.725L749.965,134.191Z" fill="#454061"/>
<path d="M749.962,63.822L749.962,97.521C759.1,97.39 768.2,96.318 777.117,94.32C770.962,77.084 761.147,65.41 749.962,63.822Z" fill="#454061"/>
<path d="M749.962,170.856C759.654,170.979 769.308,172.127 778.76,174.278C782.037,162.932 783.764,151.196 783.892,139.389L749.948,139.389L749.962,170.856Z" fill="#454061"/>
<path d="M803.689,90.135C797.41,93.537 790.752,96.187 783.852,98.029C787.235,109.789 789.009,121.956 789.126,134.191L820.464,134.191C819.894,118.054 813.995,102.561 803.689,90.135Z" fill="#454061"/>
<path d="M800.163,86.17C800.087,86.091 800.01,86.012 799.937,85.93C799.525,85.501 799.091,85.092 798.671,84.677C798.185,84.2 797.707,83.717 797.208,83.253C796.777,82.849 796.327,82.47 795.882,82.066C795.374,81.619 794.856,81.163 794.346,80.726C793.893,80.344 793.429,79.981 792.976,79.616C792.455,79.19 791.917,78.773 791.38,78.369C790.908,78.025 790.433,77.684 789.95,77.321C789.404,76.928 788.85,76.538 788.294,76.161C787.805,75.82 787.309,75.512 786.812,75.198C786.247,74.835 785.685,74.478 785.101,74.134C784.602,73.834 784.075,73.531 783.579,73.244C782.995,72.909 782.405,72.584 781.816,72.27C781.292,72.011 780.773,71.722 780.25,71.463C779.647,71.157 779.041,70.865 778.416,70.576C777.895,70.327 777.368,70.087 776.825,69.853C776.206,69.577 775.578,69.329 774.956,69.067C774.416,68.849 773.881,68.627 773.338,68.423C772.702,68.18 772.058,67.956 771.417,67.741C770.871,67.55 770.328,67.356 769.78,67.181C769.128,66.968 768.473,66.775 767.804,66.578C767.259,66.417 766.707,66.259 766.162,66.112C765.949,66.054 765.739,66.008 765.526,65.953C773.264,73.465 779.003,82.792 782.231,93.082C788.441,91.442 794.455,89.122 800.163,86.17Z" fill="#454061"/>
<path d="M674.223,134.188L705.562,134.188C705.682,121.95 707.458,109.786 710.842,98.026C703.941,96.184 697.28,93.534 691.002,90.132C680.693,102.558 674.791,118.051 674.223,134.188Z" fill="#454061"/>
<path d="M744.731,209.78L744.731,176.087C735.593,176.215 726.493,177.287 717.576,179.285C723.751,196.521 733.549,208.186 744.731,209.78Z" fill="#454061"/>
<path d="M744.731,139.417L710.787,139.417C710.913,151.223 712.637,162.962 715.917,174.305C725.369,172.155 735.023,171.009 744.718,170.886L744.731,139.417Z" fill="#454061"/>
<path d="M744.731,63.822C733.546,65.413 723.742,77.084 717.576,94.32C726.493,96.32 735.593,97.393 744.731,97.521L744.731,63.822Z" fill="#454061"/>
<path d="M744.731,102.749C735.039,102.626 725.385,101.48 715.933,99.33C712.656,110.673 710.929,122.412 710.8,134.219L744.744,134.219L744.731,102.749Z" fill="#454061"/>
<path d="M729.151,65.94L728.515,66.095C727.958,66.24 727.41,66.406 726.861,66.565C726.204,66.758 725.554,66.952 724.894,67.165C724.34,67.345 723.792,67.536 723.246,67.724C722.607,67.951 721.969,68.177 721.339,68.409C720.79,68.617 720.25,68.838 719.71,69.059L717.851,69.842C717.314,70.079 716.782,70.325 716.247,70.573C715.647,70.857 715.044,71.146 714.449,71.449C713.927,71.714 713.404,71.989 712.882,72.268C712.296,72.581 711.709,72.903 711.133,73.231C710.612,73.523 710.099,73.82 709.592,74.128C709.024,74.47 708.462,74.813 707.903,75.176C707.398,75.495 706.901,75.826 706.407,76.159C705.856,76.532 705.313,76.914 704.773,77.302C704.287,77.646 703.802,77.987 703.327,78.35C702.792,78.753 702.282,79.171 701.744,79.586C701.28,79.96 700.808,80.325 700.353,80.713C699.831,81.144 699.327,81.594 698.83,82.039C698.382,82.434 697.932,82.819 697.493,83.234C696.999,83.695 696.513,84.178 696.03,84.656C695.61,85.073 695.182,85.485 694.77,85.911C694.696,85.99 694.622,86.08 694.541,86.159C700.241,89.103 706.246,91.417 712.451,93.052C715.677,82.77 721.42,73.449 729.151,65.94Z" fill="#454061"/>
<path d="M696.022,188.933C696.508,189.411 696.991,189.896 697.49,190.366C697.924,190.769 698.366,191.146 698.816,191.547C699.324,192 699.842,192.453 700.352,192.887C700.803,193.266 701.266,193.635 701.719,194C702.243,194.426 702.767,194.843 703.321,195.25C703.793,195.591 704.271,195.935 704.751,196.298C705.297,196.691 705.851,197.084 706.407,197.46C706.893,197.801 707.39,198.109 707.889,198.426C708.451,198.789 709.016,199.141 709.597,199.487C710.099,199.79 710.609,200.088 711.122,200.38C711.706,200.715 712.293,201.04 712.885,201.354C713.406,201.613 713.93,201.905 714.454,202.164C715.057,202.47 715.66,202.756 716.285,203.048C716.806,203.294 717.338,203.539 717.878,203.774C718.495,204.05 719.12,204.295 719.745,204.557C720.282,204.776 720.82,204.997 721.363,205.201C721.996,205.444 722.643,205.671 723.284,205.883C723.827,206.074 724.373,206.271 724.924,206.445C725.576,206.656 726.228,206.849 726.899,207.043C727.445,207.201 727.991,207.36 728.539,207.507C728.749,207.567 728.962,207.613 729.175,207.668C721.437,200.153 715.701,190.829 712.473,180.54C706.271,182.174 700.265,184.491 694.565,187.438C694.639,187.514 694.715,187.596 694.791,187.678C695.173,188.104 695.599,188.518 696.022,188.933Z" fill="#454061"/>
<path d="M691.004,183.47C697.286,180.068 703.941,177.418 710.844,175.576C707.458,163.816 705.684,151.652 705.564,139.414L674.226,139.414C674.796,155.551 680.696,171.044 691.004,183.47Z" fill="#454061"/>
</svg>
