<svg width="350" height="138" viewBox="0 0 350 138" fill="none" xmlns="http://www.w3.org/2000/svg" xmlns:xlink="http://www.w3.org/1999/xlink">
<rect  x="348.3" y="46.126" width="52.749" height="90.069" transform="rotate(360 348.3 46.126)" fill="#EBEBFF"/>
<rect  x="331.504" y="51.47" width="29.739" height="1.025" transform="rotate(360 331.504 51.47)" fill="#FFFFFF"/>
<rect  x="342.086" y="51.47" width="7.595" height="1.025" transform="rotate(360 342.086 51.47)" fill="#FFFFFF"/>
<rect  x="331.504" y="55.087" width="29.739" height="1.025" transform="rotate(360 331.504 55.087)" fill="#FFFFFF"/>
<rect  x="342.086" y="55.087" width="7.595" height="1.025" transform="rotate(360 342.086 55.087)" fill="#FFFFFF"/>
<rect  x="331.504" y="58.705" width="29.739" height="1.025" transform="rotate(360 331.504 58.705)" fill="#FFFFFF"/>
<rect  x="342.086" y="58.705" width="7.595" height="1.025" transform="rotate(360 342.086 58.705)" fill="#FFFFFF"/>
<rect  x="331.504" y="62.322" width="29.739" height="1.025" transform="rotate(360 331.504 62.322)" fill="#FFFFFF"/>
<rect  x="342.086" y="62.322" width="7.595" height="1.025" transform="rotate(360 342.086 62.322)" fill="#FFFFFF"/>
<rect  x="331.504" y="65.94" width="29.739" height="1.025" transform="rotate(360 331.504 65.94)" fill="#FFFFFF"/>
<rect  x="342.086" y="65.94" width="7.595" height="1.025" transform="rotate(360 342.086 65.94)" fill="#FFFFFF"/>
<rect  x="331.504" y="69.557" width="29.739" height="1.025" transform="rotate(360 331.504 69.557)" fill="#FFFFFF"/>
<rect  x="342.086" y="69.557" width="7.595" height="1.025" transform="rotate(360 342.086 69.557)" fill="#FFFFFF"/>
<rect  x="331.504" y="73.175" width="29.739" height="1.025" transform="rotate(360 331.504 73.175)" fill="#FFFFFF"/>
<rect  x="342.086" y="73.175" width="7.595" height="1.025" transform="rotate(360 342.086 73.175)" fill="#FFFFFF"/>
<rect  x="331.504" y="76.792" width="29.739" height="1.025" transform="rotate(360 331.504 76.792)" fill="#FFFFFF"/>
<rect  x="342.086" y="76.792" width="7.595" height="1.025" transform="rotate(360 342.086 76.792)" fill="#FFFFFF"/>
<rect  x="331.504" y="80.409" width="29.739" height="1.025" transform="rotate(360 331.504 80.409)" fill="#FFFFFF"/>
<rect  x="342.086" y="80.409" width="7.595" height="1.025" transform="rotate(360 342.086 80.409)" fill="#FFFFFF"/>
<rect  x="331.504" y="84.027" width="29.739" height="1.025" transform="rotate(360 331.504 84.027)" fill="#FFFFFF"/>
<rect  x="342.086" y="84.027" width="7.595" height="1.025" transform="rotate(360 342.086 84.027)" fill="#FFFFFF"/>
<rect  x="331.504" y="87.644" width="29.739" height="1.025" transform="rotate(360 331.504 87.644)" fill="#FFFFFF"/>
<rect  x="342.086" y="87.644" width="7.595" height="1.025" transform="rotate(360 342.086 87.644)" fill="#FFFFFF"/>
<rect  x="331.504" y="91.261" width="29.739" height="1.025" transform="rotate(360 331.504 91.261)" fill="#FFFFFF"/>
<rect  x="342.086" y="91.261" width="7.595" height="1.025" transform="rotate(360 342.086 91.261)" fill="#FFFFFF"/>
<rect  x="331.504" y="94.879" width="29.739" height="1.025" transform="rotate(360 331.504 94.879)" fill="#FFFFFF"/>
<rect  x="342.086" y="94.879" width="7.595" height="1.025" transform="rotate(360 342.086 94.879)" fill="#FFFFFF"/>
<rect  x="331.504" y="98.497" width="29.739" height="1.025" transform="rotate(360 331.504 98.497)" fill="#FFFFFF"/>
<rect  x="342.086" y="98.497" width="7.595" height="1.025" transform="rotate(360 342.086 98.497)" fill="#FFFFFF"/>
<rect  x="331.504" y="102.114" width="29.739" height="1.025" transform="rotate(360 331.504 102.114)" fill="#FFFFFF"/>
<rect  x="342.086" y="102.114" width="7.595" height="1.025" transform="rotate(360 342.086 102.114)" fill="#FFFFFF"/>
<rect  x="331.504" y="105.731" width="29.739" height="1.025" transform="rotate(360 331.504 105.731)" fill="#FFFFFF"/>
<rect  x="342.086" y="105.731" width="7.595" height="1.025" transform="rotate(360 342.086 105.731)" fill="#FFFFFF"/>
<rect  x="331.504" y="109.349" width="29.739" height="1.025" transform="rotate(360 331.504 109.349)" fill="#FFFFFF"/>
<rect  x="342.086" y="109.349" width="7.595" height="1.025" transform="rotate(360 342.086 109.349)" fill="#FFFFFF"/>
<rect  x="198.792" y="27.938" width="45.529" height="90.069" transform="rotate(360 198.792 27.938)" fill="#EBEBFF"/>
<path d="M36.749,62.055L36.749,20.686L11.799,20.686L11.799,9.561L11.163,9.561L11.163,20.686L6.158,20.686L6.158,62.055L0,62.055L0,129.997L42.907,129.997L42.907,62.055L36.749,62.055Z" transform="rotate(360 21.454 69.779)" fill="#EBEBFF"/>
<rect  x="33.432" y="24.114" width="2.916" height="1.949" transform="rotate(360 33.432 24.114)" fill="#FFFFFF"/>
<rect  x="28.172" y="24.114" width="2.916" height="1.949" transform="rotate(360 28.172 24.114)" fill="#FFFFFF"/>
<rect  x="22.912" y="24.114" width="2.916" height="1.949" transform="rotate(360 22.912 24.114)" fill="#FFFFFF"/>
<rect  x="17.651" y="24.114" width="2.916" height="1.949" transform="rotate(360 17.651 24.114)" fill="#FFFFFF"/>
<rect  x="12.392" y="24.114" width="2.916" height="1.949" transform="rotate(360 12.392 24.114)" fill="#FFFFFF"/>
<rect  x="33.432" y="27.408" width="2.916" height="1.949" transform="rotate(360 33.432 27.408)" fill="#FFFFFF"/>
<rect  x="28.172" y="27.408" width="2.916" height="1.949" transform="rotate(360 28.172 27.408)" fill="#FFFFFF"/>
<rect  x="22.912" y="27.408" width="2.916" height="1.949" transform="rotate(360 22.912 27.408)" fill="#FFFFFF"/>
<rect  x="17.651" y="27.408" width="2.916" height="1.949" transform="rotate(360 17.651 27.408)" fill="#FFFFFF"/>
<rect  x="12.392" y="27.408" width="2.916" height="1.949" transform="rotate(360 12.392 27.408)" fill="#FFFFFF"/>
<rect  x="33.432" y="30.701" width="2.916" height="1.949" transform="rotate(360 33.432 30.701)" fill="#FFFFFF"/>
<rect  x="28.172" y="30.701" width="2.916" height="1.949" transform="rotate(360 28.172 30.701)" fill="#FFFFFF"/>
<rect  x="22.912" y="30.701" width="2.916" height="1.949" transform="rotate(360 22.912 30.701)" fill="#FFFFFF"/>
<rect  x="17.651" y="30.701" width="2.916" height="1.949" transform="rotate(360 17.651 30.701)" fill="#FFFFFF"/>
<rect  x="12.392" y="30.701" width="2.916" height="1.949" transform="rotate(360 12.392 30.701)" fill="#FFFFFF"/>
<rect  x="33.432" y="33.994" width="2.916" height="1.949" transform="rotate(360 33.432 33.994)" fill="#FFFFFF"/>
<rect  x="28.172" y="33.994" width="2.916" height="1.949" transform="rotate(360 28.172 33.994)" fill="#FFFFFF"/>
<rect  x="12.392" y="33.994" width="2.916" height="1.949" transform="rotate(360 12.392 33.994)" fill="#FFFFFF"/>
<rect  x="33.432" y="37.287" width="2.916" height="1.949" transform="rotate(360 33.432 37.287)" fill="#FFFFFF"/>
<rect  x="28.172" y="37.287" width="2.916" height="1.949" transform="rotate(360 28.172 37.287)" fill="#FFFFFF"/>
<rect  x="22.912" y="37.287" width="2.916" height="1.949" transform="rotate(360 22.912 37.287)" fill="#FFFFFF"/>
<rect  x="17.651" y="37.287" width="2.916" height="1.949" transform="rotate(360 17.651 37.287)" fill="#FFFFFF"/>
<rect  x="12.392" y="37.287" width="2.916" height="1.949" transform="rotate(360 12.392 37.287)" fill="#FFFFFF"/>
<rect  x="33.432" y="40.58" width="2.916" height="1.949" transform="rotate(360 33.432 40.58)" fill="#FFFFFF"/>
<rect  x="28.172" y="40.58" width="2.916" height="1.949" transform="rotate(360 28.172 40.58)" fill="#FFFFFF"/>
<rect  x="22.912" y="40.58" width="2.916" height="1.949" transform="rotate(360 22.912 40.58)" fill="#FFFFFF"/>
<rect  x="17.651" y="40.58" width="2.916" height="1.949" transform="rotate(360 17.651 40.58)" fill="#FFFFFF"/>
<rect  x="12.392" y="40.58" width="2.916" height="1.949" transform="rotate(360 12.392 40.58)" fill="#FFFFFF"/>
<rect  x="33.432" y="43.873" width="2.916" height="1.949" transform="rotate(360 33.432 43.873)" fill="#FFFFFF"/>
<rect  x="22.912" y="43.873" width="2.916" height="1.949" transform="rotate(360 22.912 43.873)" fill="#FFFFFF"/>
<rect  x="17.651" y="43.873" width="2.916" height="1.949" transform="rotate(360 17.651 43.873)" fill="#FFFFFF"/>
<rect  x="12.392" y="43.873" width="2.916" height="1.949" transform="rotate(360 12.392 43.873)" fill="#FFFFFF"/>
<rect  x="33.432" y="47.167" width="2.916" height="1.949" transform="rotate(360 33.432 47.167)" fill="#FFFFFF"/>
<rect  x="17.651" y="47.167" width="2.916" height="1.949" transform="rotate(360 17.651 47.167)" fill="#FFFFFF"/>
<rect  x="12.392" y="47.167" width="2.916" height="1.949" transform="rotate(360 12.392 47.167)" fill="#FFFFFF"/>
<rect  x="33.432" y="50.459" width="2.916" height="1.949" transform="rotate(360 33.432 50.459)" fill="#FFFFFF"/>
<rect  x="17.651" y="50.459" width="2.916" height="1.949" transform="rotate(360 17.651 50.459)" fill="#FFFFFF"/>
<rect  x="12.392" y="50.459" width="2.916" height="1.949" transform="rotate(360 12.392 50.459)" fill="#FFFFFF"/>
<rect  x="33.432" y="53.752" width="2.916" height="1.949" transform="rotate(360 33.432 53.752)" fill="#FFFFFF"/>
<rect  x="28.172" y="53.752" width="2.916" height="1.949" transform="rotate(360 28.172 53.752)" fill="#FFFFFF"/>
<rect  x="22.912" y="53.752" width="2.916" height="1.949" transform="rotate(360 22.912 53.752)" fill="#FFFFFF"/>
<rect  x="17.651" y="53.752" width="2.916" height="1.949" transform="rotate(360 17.651 53.752)" fill="#FFFFFF"/>
<rect  x="33.432" y="57.046" width="2.916" height="1.949" transform="rotate(360 33.432 57.046)" fill="#FFFFFF"/>
<rect  x="28.172" y="57.046" width="2.916" height="1.949" transform="rotate(360 28.172 57.046)" fill="#FFFFFF"/>
<rect  x="22.912" y="57.046" width="2.916" height="1.949" transform="rotate(360 22.912 57.046)" fill="#FFFFFF"/>
<rect  x="12.392" y="57.046" width="2.916" height="1.949" transform="rotate(360 12.392 57.046)" fill="#FFFFFF"/>
<rect  x="39.008" y="64.648" width="3.02" height="1.949" transform="rotate(360 39.008 64.648)" fill="#FFFFFF"/>
<rect  x="33.66" y="64.648" width="3.02" height="1.949" transform="rotate(360 33.66 64.648)" fill="#FFFFFF"/>
<rect  x="28.311" y="64.648" width="3.02" height="1.949" transform="rotate(360 28.311 64.648)" fill="#FFFFFF"/>
<rect  x="22.963" y="64.648" width="3.02" height="1.949" transform="rotate(360 22.963 64.648)" fill="#FFFFFF"/>
<rect  x="17.615" y="64.648" width="3.02" height="1.949" transform="rotate(360 17.615 64.648)" fill="#FFFFFF"/>
<rect  x="39.008" y="67.804" width="3.02" height="1.949" transform="rotate(360 39.008 67.804)" fill="#FFFFFF"/>
<rect  x="33.66" y="67.804" width="3.02" height="1.949" transform="rotate(360 33.66 67.804)" fill="#FFFFFF"/>
<rect  x="28.311" y="67.804" width="3.02" height="1.949" transform="rotate(360 28.311 67.804)" fill="#FFFFFF"/>
<rect  x="22.963" y="67.804" width="3.02" height="1.949" transform="rotate(360 22.963 67.804)" fill="#FFFFFF"/>
<rect  x="17.615" y="67.804" width="3.02" height="1.949" transform="rotate(360 17.615 67.804)" fill="#FFFFFF"/>
<rect  x="12.267" y="67.804" width="3.019" height="1.949" transform="rotate(360 12.267 67.804)" fill="#FFFFFF"/>
<rect  x="39.008" y="70.959" width="3.02" height="1.949" transform="rotate(360 39.008 70.959)" fill="#FFFFFF"/>
<rect  x="33.66" y="70.959" width="3.02" height="1.949" transform="rotate(360 33.66 70.959)" fill="#FFFFFF"/>
<rect  x="28.311" y="70.959" width="3.02" height="1.949" transform="rotate(360 28.311 70.959)" fill="#FFFFFF"/>
<rect  x="22.963" y="70.959" width="3.02" height="1.949" transform="rotate(360 22.963 70.959)" fill="#FFFFFF"/>
<rect  x="17.615" y="70.959" width="3.02" height="1.949" transform="rotate(360 17.615 70.959)" fill="#FFFFFF"/>
<rect  x="12.267" y="70.959" width="3.019" height="1.949" transform="rotate(360 12.267 70.959)" fill="#FFFFFF"/>
<rect  x="6.919" y="70.959" width="3.019" height="1.949" transform="rotate(360 6.919 70.959)" fill="#FFFFFF"/>
<rect  x="39.008" y="74.114" width="3.02" height="1.949" transform="rotate(360 39.008 74.114)" fill="#FFFFFF"/>
<rect  x="28.311" y="74.114" width="3.02" height="1.949" transform="rotate(360 28.311 74.114)" fill="#FFFFFF"/>
<rect  x="22.963" y="74.114" width="3.02" height="1.949" transform="rotate(360 22.963 74.114)" fill="#FFFFFF"/>
<rect  x="17.615" y="74.114" width="3.02" height="1.949" transform="rotate(360 17.615 74.114)" fill="#FFFFFF"/>
<rect  x="12.267" y="74.114" width="3.019" height="1.949" transform="rotate(360 12.267 74.114)" fill="#FFFFFF"/>
<rect  x="6.919" y="74.114" width="3.019" height="1.949" transform="rotate(360 6.919 74.114)" fill="#FFFFFF"/>
<rect  x="39.008" y="77.269" width="3.02" height="1.949" transform="rotate(360 39.008 77.269)" fill="#FFFFFF"/>
<rect  x="33.66" y="77.269" width="3.02" height="1.949" transform="rotate(360 33.66 77.269)" fill="#FFFFFF"/>
<rect  x="28.311" y="77.269" width="3.02" height="1.949" transform="rotate(360 28.311 77.269)" fill="#FFFFFF"/>
<rect  x="22.963" y="77.269" width="3.02" height="1.949" transform="rotate(360 22.963 77.269)" fill="#FFFFFF"/>
<rect  x="17.615" y="77.269" width="3.02" height="1.949" transform="rotate(360 17.615 77.269)" fill="#FFFFFF"/>
<rect  x="12.267" y="77.269" width="3.019" height="1.949" transform="rotate(360 12.267 77.269)" fill="#FFFFFF"/>
<rect  x="6.919" y="77.269" width="3.019" height="1.949" transform="rotate(360 6.919 77.269)" fill="#FFFFFF"/>
<rect  x="39.008" y="80.424" width="3.02" height="1.949" transform="rotate(360 39.008 80.424)" fill="#FFFFFF"/>
<rect  x="33.66" y="80.424" width="3.02" height="1.949" transform="rotate(360 33.66 80.424)" fill="#FFFFFF"/>
<rect  x="28.311" y="80.424" width="3.02" height="1.949" transform="rotate(360 28.311 80.424)" fill="#FFFFFF"/>
<rect  x="22.963" y="80.424" width="3.02" height="1.949" transform="rotate(360 22.963 80.424)" fill="#FFFFFF"/>
<rect  x="12.267" y="80.424" width="3.019" height="1.949" transform="rotate(360 12.267 80.424)" fill="#FFFFFF"/>
<rect  x="6.919" y="80.424" width="3.019" height="1.949" transform="rotate(360 6.919 80.424)" fill="#FFFFFF"/>
<rect  x="39.008" y="83.579" width="3.02" height="1.949" transform="rotate(360 39.008 83.579)" fill="#FFFFFF"/>
<rect  x="33.66" y="83.579" width="3.02" height="1.949" transform="rotate(360 33.66 83.579)" fill="#FFFFFF"/>
<rect  x="28.311" y="83.579" width="3.02" height="1.949" transform="rotate(360 28.311 83.579)" fill="#FFFFFF"/>
<rect  x="12.267" y="83.579" width="3.019" height="1.949" transform="rotate(360 12.267 83.579)" fill="#FFFFFF"/>
<rect  x="6.919" y="83.579" width="3.019" height="1.949" transform="rotate(360 6.919 83.579)" fill="#FFFFFF"/>
<rect  x="39.008" y="86.734" width="3.02" height="1.949" transform="rotate(360 39.008 86.734)" fill="#FFFFFF"/>
<rect  x="33.66" y="86.734" width="3.02" height="1.949" transform="rotate(360 33.66 86.734)" fill="#FFFFFF"/>
<rect  x="28.311" y="86.734" width="3.02" height="1.949" transform="rotate(360 28.311 86.734)" fill="#FFFFFF"/>
<rect  x="12.267" y="86.734" width="3.019" height="1.949" transform="rotate(360 12.267 86.734)" fill="#FFFFFF"/>
<rect  x="6.919" y="86.734" width="3.019" height="1.949" transform="rotate(360 6.919 86.734)" fill="#FFFFFF"/>
<rect  x="39.008" y="89.889" width="3.02" height="1.949" transform="rotate(360 39.008 89.889)" fill="#FFFFFF"/>
<rect  x="33.66" y="89.889" width="3.02" height="1.949" transform="rotate(360 33.66 89.889)" fill="#FFFFFF"/>
<rect  x="28.311" y="89.889" width="3.02" height="1.949" transform="rotate(360 28.311 89.889)" fill="#FFFFFF"/>
<rect  x="22.963" y="89.889" width="3.02" height="1.949" transform="rotate(360 22.963 89.889)" fill="#FFFFFF"/>
<rect  x="17.615" y="89.889" width="3.02" height="1.949" transform="rotate(360 17.615 89.889)" fill="#FFFFFF"/>
<rect  x="12.267" y="89.889" width="3.019" height="1.949" transform="rotate(360 12.267 89.889)" fill="#FFFFFF"/>
<rect  x="6.919" y="89.889" width="3.019" height="1.949" transform="rotate(360 6.919 89.889)" fill="#FFFFFF"/>
<rect  x="39.008" y="93.044" width="3.02" height="1.949" transform="rotate(360 39.008 93.044)" fill="#FFFFFF"/>
<rect  x="33.66" y="93.044" width="3.02" height="1.949" transform="rotate(360 33.66 93.044)" fill="#FFFFFF"/>
<rect  x="22.963" y="93.044" width="3.02" height="1.949" transform="rotate(360 22.963 93.044)" fill="#FFFFFF"/>
<rect  x="17.615" y="93.044" width="3.02" height="1.949" transform="rotate(360 17.615 93.044)" fill="#FFFFFF"/>
<rect  x="12.267" y="93.044" width="3.019" height="1.949" transform="rotate(360 12.267 93.044)" fill="#FFFFFF"/>
<rect  x="6.919" y="93.044" width="3.019" height="1.949" transform="rotate(360 6.919 93.044)" fill="#FFFFFF"/>
<rect  x="39.008" y="96.199" width="3.02" height="1.949" transform="rotate(360 39.008 96.199)" fill="#FFFFFF"/>
<rect  x="33.66" y="96.199" width="3.02" height="1.949" transform="rotate(360 33.66 96.199)" fill="#FFFFFF"/>
<rect  x="22.963" y="96.199" width="3.02" height="1.949" transform="rotate(360 22.963 96.199)" fill="#FFFFFF"/>
<rect  x="17.615" y="96.199" width="3.02" height="1.949" transform="rotate(360 17.615 96.199)" fill="#FFFFFF"/>
<rect  x="12.267" y="96.199" width="3.019" height="1.949" transform="rotate(360 12.267 96.199)" fill="#FFFFFF"/>
<rect  x="6.919" y="96.199" width="3.019" height="1.949" transform="rotate(360 6.919 96.199)" fill="#FFFFFF"/>
<rect  x="39.008" y="99.354" width="3.02" height="1.949" transform="rotate(360 39.008 99.354)" fill="#FFFFFF"/>
<rect  x="33.66" y="99.354" width="3.02" height="1.949" transform="rotate(360 33.66 99.354)" fill="#FFFFFF"/>
<rect  x="22.963" y="99.354" width="3.02" height="1.949" transform="rotate(360 22.963 99.354)" fill="#FFFFFF"/>
<rect  x="17.615" y="99.354" width="3.02" height="1.949" transform="rotate(360 17.615 99.354)" fill="#FFFFFF"/>
<rect  x="12.267" y="99.354" width="3.019" height="1.949" transform="rotate(360 12.267 99.354)" fill="#FFFFFF"/>
<rect  x="6.919" y="99.354" width="3.019" height="1.949" transform="rotate(360 6.919 99.354)" fill="#FFFFFF"/>
<rect  x="39.008" y="102.51" width="3.02" height="1.949" transform="rotate(360 39.008 102.51)" fill="#FFFFFF"/>
<rect  x="33.66" y="102.509" width="3.02" height="1.949" transform="rotate(360 33.66 102.509)" fill="#FFFFFF"/>
<rect  x="28.311" y="102.509" width="3.02" height="1.949" transform="rotate(360 28.311 102.509)" fill="#FFFFFF"/>
<rect  x="22.963" y="102.509" width="3.02" height="1.949" transform="rotate(360 22.963 102.509)" fill="#FFFFFF"/>
<rect  x="12.267" y="102.509" width="3.019" height="1.949" transform="rotate(360 12.267 102.509)" fill="#FFFFFF"/>
<rect  x="6.919" y="102.509" width="3.019" height="1.949" transform="rotate(360 6.919 102.509)" fill="#FFFFFF"/>
<rect  x="39.008" y="105.665" width="3.02" height="1.949" transform="rotate(360 39.008 105.665)" fill="#FFFFFF"/>
<rect  x="33.66" y="105.665" width="3.02" height="1.949" transform="rotate(360 33.66 105.665)" fill="#FFFFFF"/>
<rect  x="28.311" y="105.665" width="3.02" height="1.949" transform="rotate(360 28.311 105.665)" fill="#FFFFFF"/>
<rect  x="22.963" y="105.665" width="3.02" height="1.949" transform="rotate(360 22.963 105.665)" fill="#FFFFFF"/>
<rect  x="12.267" y="105.665" width="3.019" height="1.949" transform="rotate(360 12.267 105.665)" fill="#FFFFFF"/>
<rect  x="6.919" y="105.665" width="3.019" height="1.949" transform="rotate(360 6.919 105.665)" fill="#FFFFFF"/>
<rect  x="39.008" y="108.82" width="3.02" height="1.949" transform="rotate(360 39.008 108.82)" fill="#FFFFFF"/>
<rect  x="33.66" y="108.82" width="3.02" height="1.949" transform="rotate(360 33.66 108.82)" fill="#FFFFFF"/>
<rect  x="28.311" y="108.82" width="3.02" height="1.949" transform="rotate(360 28.311 108.82)" fill="#FFFFFF"/>
<rect  x="6.919" y="108.82" width="3.019" height="1.949" transform="rotate(360 6.919 108.82)" fill="#FFFFFF"/>
<rect  x="39.008" y="111.975" width="3.02" height="1.949" transform="rotate(360 39.008 111.975)" fill="#FFFFFF"/>
<rect  x="33.66" y="111.975" width="3.02" height="1.949" transform="rotate(360 33.66 111.975)" fill="#FFFFFF"/>
<rect  x="28.311" y="111.975" width="3.02" height="1.949" transform="rotate(360 28.311 111.975)" fill="#FFFFFF"/>
<rect  x="17.615" y="111.975" width="3.02" height="1.949" transform="rotate(360 17.615 111.975)" fill="#FFFFFF"/>
<rect  x="12.267" y="111.975" width="3.019" height="1.949" transform="rotate(360 12.267 111.975)" fill="#FFFFFF"/>
<rect  x="6.919" y="111.975" width="3.019" height="1.949" transform="rotate(360 6.919 111.975)" fill="#FFFFFF"/>
<rect  x="39.008" y="115.13" width="3.02" height="1.949" transform="rotate(360 39.008 115.13)" fill="#FFFFFF"/>
<rect  x="28.311" y="115.13" width="3.02" height="1.949" transform="rotate(360 28.311 115.13)" fill="#FFFFFF"/>
<rect  x="22.963" y="115.13" width="3.02" height="1.949" transform="rotate(360 22.963 115.13)" fill="#FFFFFF"/>
<rect  x="17.615" y="115.13" width="3.02" height="1.949" transform="rotate(360 17.615 115.13)" fill="#FFFFFF"/>
<rect  x="12.267" y="115.13" width="3.019" height="1.949" transform="rotate(360 12.267 115.13)" fill="#FFFFFF"/>
<rect  x="6.919" y="115.13" width="3.019" height="1.949" transform="rotate(360 6.919 115.13)" fill="#FFFFFF"/>
<rect  x="39.008" y="118.285" width="3.02" height="1.949" transform="rotate(360 39.008 118.285)" fill="#FFFFFF"/>
<rect  x="33.66" y="118.285" width="3.02" height="1.949" transform="rotate(360 33.66 118.285)" fill="#FFFFFF"/>
<rect  x="28.311" y="118.285" width="3.02" height="1.949" transform="rotate(360 28.311 118.285)" fill="#FFFFFF"/>
<rect  x="22.963" y="118.285" width="3.02" height="1.949" transform="rotate(360 22.963 118.285)" fill="#FFFFFF"/>
<rect  x="17.615" y="118.285" width="3.02" height="1.949" transform="rotate(360 17.615 118.285)" fill="#FFFFFF"/>
<rect  x="12.267" y="118.285" width="3.019" height="1.949" transform="rotate(360 12.267 118.285)" fill="#FFFFFF"/>
<rect  x="6.919" y="118.285" width="3.019" height="1.949" transform="rotate(360 6.919 118.285)" fill="#FFFFFF"/>
<path d="M258.455,52.494L258.455,11.125L233.505,11.125L233.505,0L232.869,0L232.869,11.125L227.863,11.125L227.863,52.494L221.705,52.494L221.705,120.436L264.612,120.436L264.612,52.494L258.455,52.494Z" transform="rotate(360 243.159 60.218)" fill="#EBEBFF"/>
<rect  x="255.137" y="14.553" width="2.916" height="1.949" transform="rotate(360 255.137 14.553)" fill="#FFFFFF"/>
<rect  x="249.876" y="14.553" width="2.916" height="1.949" transform="rotate(360 249.876 14.553)" fill="#FFFFFF"/>
<rect  x="244.617" y="14.553" width="2.916" height="1.949" transform="rotate(360 244.617 14.553)" fill="#FFFFFF"/>
<rect  x="239.357" y="14.553" width="2.916" height="1.949" transform="rotate(360 239.357 14.553)" fill="#FFFFFF"/>
<rect  x="234.096" y="14.553" width="2.916" height="1.949" transform="rotate(360 234.096 14.553)" fill="#FFFFFF"/>
<rect  x="255.137" y="17.847" width="2.916" height="1.949" transform="rotate(360 255.137 17.847)" fill="#FFFFFF"/>
<rect  x="249.876" y="17.847" width="2.916" height="1.949" transform="rotate(360 249.876 17.847)" fill="#FFFFFF"/>
<rect  x="244.617" y="17.847" width="2.916" height="1.949" transform="rotate(360 244.617 17.847)" fill="#FFFFFF"/>
<rect  x="239.357" y="17.847" width="2.916" height="1.949" transform="rotate(360 239.357 17.847)" fill="#FFFFFF"/>
<rect  x="234.096" y="17.847" width="2.916" height="1.949" transform="rotate(360 234.096 17.847)" fill="#FFFFFF"/>
<rect  x="255.137" y="21.14" width="2.916" height="1.949" transform="rotate(360 255.137 21.14)" fill="#FFFFFF"/>
<rect  x="249.876" y="21.14" width="2.916" height="1.949" transform="rotate(360 249.876 21.14)" fill="#FFFFFF"/>
<rect  x="244.617" y="21.14" width="2.916" height="1.949" transform="rotate(360 244.617 21.14)" fill="#FFFFFF"/>
<rect  x="239.357" y="21.14" width="2.916" height="1.949" transform="rotate(360 239.357 21.14)" fill="#FFFFFF"/>
<rect  x="234.096" y="21.14" width="2.916" height="1.949" transform="rotate(360 234.096 21.14)" fill="#FFFFFF"/>
<rect  x="255.137" y="24.433" width="2.916" height="1.949" transform="rotate(360 255.137 24.433)" fill="#FFFFFF"/>
<rect  x="249.876" y="24.433" width="2.916" height="1.949" transform="rotate(360 249.876 24.433)" fill="#FFFFFF"/>
<rect  x="234.096" y="24.433" width="2.916" height="1.949" transform="rotate(360 234.096 24.433)" fill="#FFFFFF"/>
<rect  x="255.137" y="27.726" width="2.916" height="1.949" transform="rotate(360 255.137 27.726)" fill="#FFFFFF"/>
<rect  x="249.876" y="27.726" width="2.916" height="1.949" transform="rotate(360 249.876 27.726)" fill="#FFFFFF"/>
<rect  x="244.617" y="27.726" width="2.916" height="1.949" transform="rotate(360 244.617 27.726)" fill="#FFFFFF"/>
<rect  x="239.357" y="27.726" width="2.916" height="1.949" transform="rotate(360 239.357 27.726)" fill="#FFFFFF"/>
<rect  x="234.096" y="27.726" width="2.916" height="1.949" transform="rotate(360 234.096 27.726)" fill="#FFFFFF"/>
<rect  x="255.137" y="31.019" width="2.916" height="1.949" transform="rotate(360 255.137 31.019)" fill="#FFFFFF"/>
<rect  x="249.876" y="31.019" width="2.916" height="1.949" transform="rotate(360 249.876 31.019)" fill="#FFFFFF"/>
<rect  x="244.617" y="31.019" width="2.916" height="1.949" transform="rotate(360 244.617 31.019)" fill="#FFFFFF"/>
<rect  x="239.357" y="31.019" width="2.916" height="1.949" transform="rotate(360 239.357 31.019)" fill="#FFFFFF"/>
<rect  x="234.096" y="31.019" width="2.916" height="1.949" transform="rotate(360 234.096 31.019)" fill="#FFFFFF"/>
<rect  x="255.137" y="34.312" width="2.916" height="1.949" transform="rotate(360 255.137 34.312)" fill="#FFFFFF"/>
<rect  x="244.617" y="34.312" width="2.916" height="1.949" transform="rotate(360 244.617 34.312)" fill="#FFFFFF"/>
<rect  x="239.357" y="34.312" width="2.916" height="1.949" transform="rotate(360 239.357 34.312)" fill="#FFFFFF"/>
<rect  x="234.096" y="34.312" width="2.916" height="1.949" transform="rotate(360 234.096 34.312)" fill="#FFFFFF"/>
<rect  x="255.137" y="37.606" width="2.916" height="1.949" transform="rotate(360 255.137 37.606)" fill="#FFFFFF"/>
<rect  x="239.357" y="37.606" width="2.916" height="1.949" transform="rotate(360 239.357 37.606)" fill="#FFFFFF"/>
<rect  x="234.096" y="37.606" width="2.916" height="1.949" transform="rotate(360 234.096 37.606)" fill="#FFFFFF"/>
<rect  x="255.137" y="40.899" width="2.916" height="1.949" transform="rotate(360 255.137 40.899)" fill="#FFFFFF"/>
<rect  x="239.357" y="40.899" width="2.916" height="1.949" transform="rotate(360 239.357 40.899)" fill="#FFFFFF"/>
<rect  x="234.096" y="40.899" width="2.916" height="1.949" transform="rotate(360 234.096 40.899)" fill="#FFFFFF"/>
<rect  x="255.137" y="44.192" width="2.916" height="1.949" transform="rotate(360 255.137 44.192)" fill="#FFFFFF"/>
<rect  x="249.876" y="44.192" width="2.916" height="1.949" transform="rotate(360 249.876 44.192)" fill="#FFFFFF"/>
<rect  x="244.617" y="44.192" width="2.916" height="1.949" transform="rotate(360 244.617 44.192)" fill="#FFFFFF"/>
<rect  x="239.357" y="44.192" width="2.916" height="1.949" transform="rotate(360 239.357 44.192)" fill="#FFFFFF"/>
<rect  x="255.137" y="47.485" width="2.916" height="1.949" transform="rotate(360 255.137 47.485)" fill="#FFFFFF"/>
<rect  x="249.876" y="47.485" width="2.916" height="1.949" transform="rotate(360 249.876 47.485)" fill="#FFFFFF"/>
<rect  x="244.617" y="47.485" width="2.916" height="1.949" transform="rotate(360 244.617 47.485)" fill="#FFFFFF"/>
<rect  x="234.096" y="47.485" width="2.916" height="1.949" transform="rotate(360 234.096 47.485)" fill="#FFFFFF"/>
<rect  x="260.713" y="55.087" width="3.02" height="1.949" transform="rotate(360 260.713 55.087)" fill="#FFFFFF"/>
<rect  x="255.365" y="55.087" width="3.02" height="1.949" transform="rotate(360 255.365 55.087)" fill="#FFFFFF"/>
<rect  x="250.017" y="55.087" width="3.02" height="1.949" transform="rotate(360 250.017 55.087)" fill="#FFFFFF"/>
<rect  x="244.669" y="55.087" width="3.02" height="1.949" transform="rotate(360 244.669 55.087)" fill="#FFFFFF"/>
<rect  x="239.32" y="55.087" width="3.02" height="1.949" transform="rotate(360 239.32 55.087)" fill="#FFFFFF"/>
<rect  x="260.713" y="58.243" width="3.02" height="1.949" transform="rotate(360 260.713 58.243)" fill="#FFFFFF"/>
<rect  x="255.365" y="58.243" width="3.02" height="1.949" transform="rotate(360 255.365 58.243)" fill="#FFFFFF"/>
<rect  x="250.017" y="58.243" width="3.02" height="1.949" transform="rotate(360 250.017 58.243)" fill="#FFFFFF"/>
<rect  x="244.669" y="58.243" width="3.02" height="1.949" transform="rotate(360 244.669 58.243)" fill="#FFFFFF"/>
<rect  x="239.32" y="58.243" width="3.02" height="1.949" transform="rotate(360 239.32 58.243)" fill="#FFFFFF"/>
<rect  x="233.972" y="58.243" width="3.02" height="1.949" transform="rotate(360 233.972 58.243)" fill="#FFFFFF"/>
<rect  x="260.713" y="61.398" width="3.02" height="1.949" transform="rotate(360 260.713 61.398)" fill="#FFFFFF"/>
<rect  x="255.365" y="61.398" width="3.02" height="1.949" transform="rotate(360 255.365 61.398)" fill="#FFFFFF"/>
<rect  x="250.017" y="61.398" width="3.02" height="1.949" transform="rotate(360 250.017 61.398)" fill="#FFFFFF"/>
<rect  x="244.669" y="61.398" width="3.02" height="1.949" transform="rotate(360 244.669 61.398)" fill="#FFFFFF"/>
<rect  x="239.32" y="61.398" width="3.02" height="1.949" transform="rotate(360 239.32 61.398)" fill="#FFFFFF"/>
<rect  x="233.972" y="61.398" width="3.02" height="1.949" transform="rotate(360 233.972 61.398)" fill="#FFFFFF"/>
<rect  x="228.624" y="61.398" width="3.02" height="1.949" transform="rotate(360 228.624 61.398)" fill="#FFFFFF"/>
<rect  x="260.713" y="64.553" width="3.02" height="1.949" transform="rotate(360 260.713 64.553)" fill="#FFFFFF"/>
<rect  x="250.017" y="64.553" width="3.02" height="1.949" transform="rotate(360 250.017 64.553)" fill="#FFFFFF"/>
<rect  x="244.669" y="64.553" width="3.02" height="1.949" transform="rotate(360 244.669 64.553)" fill="#FFFFFF"/>
<rect  x="239.32" y="64.553" width="3.02" height="1.949" transform="rotate(360 239.32 64.553)" fill="#FFFFFF"/>
<rect  x="233.972" y="64.553" width="3.02" height="1.949" transform="rotate(360 233.972 64.553)" fill="#FFFFFF"/>
<rect  x="228.624" y="64.553" width="3.02" height="1.949" transform="rotate(360 228.624 64.553)" fill="#FFFFFF"/>
<rect  x="260.713" y="67.708" width="3.02" height="1.949" transform="rotate(360 260.713 67.708)" fill="#FFFFFF"/>
<rect  x="255.365" y="67.708" width="3.02" height="1.949" transform="rotate(360 255.365 67.708)" fill="#FFFFFF"/>
<rect  x="250.017" y="67.708" width="3.02" height="1.949" transform="rotate(360 250.017 67.708)" fill="#FFFFFF"/>
<rect  x="244.669" y="67.708" width="3.02" height="1.949" transform="rotate(360 244.669 67.708)" fill="#FFFFFF"/>
<rect  x="239.32" y="67.708" width="3.02" height="1.949" transform="rotate(360 239.32 67.708)" fill="#FFFFFF"/>
<rect  x="233.972" y="67.708" width="3.02" height="1.949" transform="rotate(360 233.972 67.708)" fill="#FFFFFF"/>
<rect  x="228.624" y="67.708" width="3.02" height="1.949" transform="rotate(360 228.624 67.708)" fill="#FFFFFF"/>
<rect  x="260.713" y="70.863" width="3.02" height="1.949" transform="rotate(360 260.713 70.863)" fill="#FFFFFF"/>
<rect  x="255.365" y="70.863" width="3.02" height="1.949" transform="rotate(360 255.365 70.863)" fill="#FFFFFF"/>
<rect  x="250.017" y="70.863" width="3.02" height="1.949" transform="rotate(360 250.017 70.863)" fill="#FFFFFF"/>
<rect  x="244.669" y="70.863" width="3.02" height="1.949" transform="rotate(360 244.669 70.863)" fill="#FFFFFF"/>
<rect  x="233.972" y="70.863" width="3.02" height="1.949" transform="rotate(360 233.972 70.863)" fill="#FFFFFF"/>
<rect  x="228.624" y="70.863" width="3.02" height="1.949" transform="rotate(360 228.624 70.863)" fill="#FFFFFF"/>
<rect  x="260.713" y="74.018" width="3.02" height="1.949" transform="rotate(360 260.713 74.018)" fill="#FFFFFF"/>
<rect  x="255.365" y="74.018" width="3.02" height="1.949" transform="rotate(360 255.365 74.018)" fill="#FFFFFF"/>
<rect  x="250.017" y="74.018" width="3.02" height="1.949" transform="rotate(360 250.017 74.018)" fill="#FFFFFF"/>
<rect  x="233.972" y="74.018" width="3.02" height="1.949" transform="rotate(360 233.972 74.018)" fill="#FFFFFF"/>
<rect  x="228.624" y="74.018" width="3.02" height="1.949" transform="rotate(360 228.624 74.018)" fill="#FFFFFF"/>
<rect  x="260.713" y="77.173" width="3.02" height="1.949" transform="rotate(360 260.713 77.173)" fill="#FFFFFF"/>
<rect  x="255.365" y="77.173" width="3.02" height="1.949" transform="rotate(360 255.365 77.173)" fill="#FFFFFF"/>
<rect  x="250.017" y="77.173" width="3.02" height="1.949" transform="rotate(360 250.017 77.173)" fill="#FFFFFF"/>
<rect  x="233.972" y="77.173" width="3.02" height="1.949" transform="rotate(360 233.972 77.173)" fill="#FFFFFF"/>
<rect  x="228.624" y="77.173" width="3.02" height="1.949" transform="rotate(360 228.624 77.173)" fill="#FFFFFF"/>
<rect  x="260.713" y="80.328" width="3.02" height="1.949" transform="rotate(360 260.713 80.328)" fill="#FFFFFF"/>
<rect  x="255.365" y="80.328" width="3.02" height="1.949" transform="rotate(360 255.365 80.328)" fill="#FFFFFF"/>
<rect  x="250.017" y="80.328" width="3.02" height="1.949" transform="rotate(360 250.017 80.328)" fill="#FFFFFF"/>
<rect  x="244.669" y="80.328" width="3.02" height="1.949" transform="rotate(360 244.669 80.328)" fill="#FFFFFF"/>
<rect  x="239.32" y="80.328" width="3.02" height="1.949" transform="rotate(360 239.32 80.328)" fill="#FFFFFF"/>
<rect  x="233.972" y="80.328" width="3.02" height="1.949" transform="rotate(360 233.972 80.328)" fill="#FFFFFF"/>
<rect  x="228.624" y="80.328" width="3.02" height="1.949" transform="rotate(360 228.624 80.328)" fill="#FFFFFF"/>
<rect  x="260.713" y="83.483" width="3.02" height="1.949" transform="rotate(360 260.713 83.483)" fill="#FFFFFF"/>
<rect  x="255.365" y="83.483" width="3.02" height="1.949" transform="rotate(360 255.365 83.483)" fill="#FFFFFF"/>
<rect  x="244.669" y="83.483" width="3.02" height="1.949" transform="rotate(360 244.669 83.483)" fill="#FFFFFF"/>
<rect  x="239.32" y="83.483" width="3.02" height="1.949" transform="rotate(360 239.32 83.483)" fill="#FFFFFF"/>
<rect  x="233.972" y="83.483" width="3.02" height="1.949" transform="rotate(360 233.972 83.483)" fill="#FFFFFF"/>
<rect  x="228.624" y="83.483" width="3.02" height="1.949" transform="rotate(360 228.624 83.483)" fill="#FFFFFF"/>
<rect  x="260.713" y="86.639" width="3.02" height="1.949" transform="rotate(360 260.713 86.639)" fill="#FFFFFF"/>
<rect  x="255.365" y="86.639" width="3.02" height="1.949" transform="rotate(360 255.365 86.639)" fill="#FFFFFF"/>
<rect  x="244.669" y="86.639" width="3.02" height="1.949" transform="rotate(360 244.669 86.639)" fill="#FFFFFF"/>
<rect  x="239.32" y="86.639" width="3.02" height="1.949" transform="rotate(360 239.32 86.639)" fill="#FFFFFF"/>
<rect  x="233.972" y="86.639" width="3.02" height="1.949" transform="rotate(360 233.972 86.639)" fill="#FFFFFF"/>
<rect  x="228.624" y="86.639" width="3.02" height="1.949" transform="rotate(360 228.624 86.639)" fill="#FFFFFF"/>
<rect  x="260.713" y="89.793" width="3.02" height="1.949" transform="rotate(360 260.713 89.793)" fill="#FFFFFF"/>
<rect  x="255.365" y="89.793" width="3.02" height="1.949" transform="rotate(360 255.365 89.793)" fill="#FFFFFF"/>
<rect  x="244.669" y="89.793" width="3.02" height="1.949" transform="rotate(360 244.669 89.793)" fill="#FFFFFF"/>
<rect  x="239.32" y="89.793" width="3.02" height="1.949" transform="rotate(360 239.32 89.793)" fill="#FFFFFF"/>
<rect  x="233.972" y="89.793" width="3.02" height="1.949" transform="rotate(360 233.972 89.793)" fill="#FFFFFF"/>
<rect  x="228.624" y="89.793" width="3.02" height="1.949" transform="rotate(360 228.624 89.793)" fill="#FFFFFF"/>
<rect  x="260.713" y="92.948" width="3.02" height="1.949" transform="rotate(360 260.713 92.948)" fill="#FFFFFF"/>
<rect  x="255.365" y="92.948" width="3.02" height="1.949" transform="rotate(360 255.365 92.948)" fill="#FFFFFF"/>
<rect  x="250.017" y="92.948" width="3.02" height="1.949" transform="rotate(360 250.017 92.948)" fill="#FFFFFF"/>
<rect  x="244.669" y="92.948" width="3.02" height="1.949" transform="rotate(360 244.669 92.948)" fill="#FFFFFF"/>
<rect  x="233.972" y="92.948" width="3.02" height="1.949" transform="rotate(360 233.972 92.948)" fill="#FFFFFF"/>
<rect  x="228.624" y="92.948" width="3.02" height="1.949" transform="rotate(360 228.624 92.948)" fill="#FFFFFF"/>
<rect  x="260.713" y="96.104" width="3.02" height="1.949" transform="rotate(360 260.713 96.104)" fill="#FFFFFF"/>
<rect  x="255.365" y="96.104" width="3.02" height="1.949" transform="rotate(360 255.365 96.104)" fill="#FFFFFF"/>
<rect  x="250.017" y="96.104" width="3.02" height="1.949" transform="rotate(360 250.017 96.104)" fill="#FFFFFF"/>
<rect  x="244.669" y="96.104" width="3.02" height="1.949" transform="rotate(360 244.669 96.104)" fill="#FFFFFF"/>
<rect  x="233.972" y="96.104" width="3.02" height="1.949" transform="rotate(360 233.972 96.104)" fill="#FFFFFF"/>
<rect  x="228.624" y="96.104" width="3.02" height="1.949" transform="rotate(360 228.624 96.104)" fill="#FFFFFF"/>
<rect  x="260.713" y="99.259" width="3.02" height="1.949" transform="rotate(360 260.713 99.259)" fill="#FFFFFF"/>
<rect  x="255.365" y="99.259" width="3.02" height="1.949" transform="rotate(360 255.365 99.259)" fill="#FFFFFF"/>
<rect  x="250.017" y="99.259" width="3.02" height="1.949" transform="rotate(360 250.017 99.259)" fill="#FFFFFF"/>
<rect  x="228.624" y="99.259" width="3.02" height="1.949" transform="rotate(360 228.624 99.259)" fill="#FFFFFF"/>
<rect  x="260.713" y="102.414" width="3.02" height="1.949" transform="rotate(360 260.713 102.414)" fill="#FFFFFF"/>
<rect  x="255.365" y="102.414" width="3.02" height="1.949" transform="rotate(360 255.365 102.414)" fill="#FFFFFF"/>
<rect  x="250.017" y="102.414" width="3.02" height="1.949" transform="rotate(360 250.017 102.414)" fill="#FFFFFF"/>
<rect  x="239.32" y="102.414" width="3.02" height="1.949" transform="rotate(360 239.32 102.414)" fill="#FFFFFF"/>
<rect  x="233.972" y="102.414" width="3.02" height="1.949" transform="rotate(360 233.972 102.414)" fill="#FFFFFF"/>
<rect  x="228.624" y="102.414" width="3.02" height="1.949" transform="rotate(360 228.624 102.414)" fill="#FFFFFF"/>
<rect  x="260.713" y="105.569" width="3.02" height="1.949" transform="rotate(360 260.713 105.569)" fill="#FFFFFF"/>
<rect  x="250.017" y="105.569" width="3.02" height="1.949" transform="rotate(360 250.017 105.569)" fill="#FFFFFF"/>
<rect  x="244.669" y="105.569" width="3.02" height="1.949" transform="rotate(360 244.669 105.569)" fill="#FFFFFF"/>
<rect  x="239.32" y="105.569" width="3.02" height="1.949" transform="rotate(360 239.32 105.569)" fill="#FFFFFF"/>
<rect  x="233.972" y="105.569" width="3.02" height="1.949" transform="rotate(360 233.972 105.569)" fill="#FFFFFF"/>
<rect  x="228.624" y="105.569" width="3.02" height="1.949" transform="rotate(360 228.624 105.569)" fill="#FFFFFF"/>
<rect  x="260.713" y="108.724" width="3.02" height="1.949" transform="rotate(360 260.713 108.724)" fill="#FFFFFF"/>
<rect  x="255.365" y="108.724" width="3.02" height="1.949" transform="rotate(360 255.365 108.724)" fill="#FFFFFF"/>
<rect  x="250.017" y="108.724" width="3.02" height="1.949" transform="rotate(360 250.017 108.724)" fill="#FFFFFF"/>
<rect  x="244.669" y="108.724" width="3.02" height="1.949" transform="rotate(360 244.669 108.724)" fill="#FFFFFF"/>
<rect  x="239.32" y="108.724" width="3.02" height="1.949" transform="rotate(360 239.32 108.724)" fill="#FFFFFF"/>
<rect  x="233.972" y="108.724" width="3.02" height="1.949" transform="rotate(360 233.972 108.724)" fill="#FFFFFF"/>
<rect  x="228.624" y="108.724" width="3.02" height="1.949" transform="rotate(360 228.624 108.724)" fill="#FFFFFF"/>
<rect  x="144.444" y="67.173" width="45.529" height="68.071" transform="rotate(360 144.444 67.173)" fill="#EBEBFF"/>
<rect  x="129.947" y="72.516" width="25.669" height="1.025" transform="rotate(360 129.947 72.516)" fill="#FFFFFF"/>
<rect  x="139.08" y="72.516" width="6.555" height="1.025" transform="rotate(360 139.08 72.516)" fill="#FFFFFF"/>
<rect  x="129.947" y="76.134" width="25.669" height="1.025" transform="rotate(360 129.947 76.134)" fill="#FFFFFF"/>
<rect  x="139.08" y="76.134" width="6.555" height="1.025" transform="rotate(360 139.08 76.134)" fill="#FFFFFF"/>
<rect  x="129.947" y="79.751" width="25.669" height="1.025" transform="rotate(360 129.947 79.751)" fill="#FFFFFF"/>
<rect  x="139.08" y="79.751" width="6.555" height="1.025" transform="rotate(360 139.08 79.751)" fill="#FFFFFF"/>
<rect  x="129.947" y="83.368" width="25.669" height="1.025" transform="rotate(360 129.947 83.368)" fill="#FFFFFF"/>
<rect  x="139.08" y="83.368" width="6.555" height="1.025" transform="rotate(360 139.08 83.368)" fill="#FFFFFF"/>
<rect  x="129.947" y="86.986" width="25.669" height="1.025" transform="rotate(360 129.947 86.986)" fill="#FFFFFF"/>
<rect  x="139.08" y="86.986" width="6.555" height="1.025" transform="rotate(360 139.08 86.986)" fill="#FFFFFF"/>
<rect  x="129.947" y="90.603" width="25.669" height="1.025" transform="rotate(360 129.947 90.603)" fill="#FFFFFF"/>
<rect  x="139.08" y="90.603" width="6.555" height="1.025" transform="rotate(360 139.08 90.603)" fill="#FFFFFF"/>
<rect  x="129.947" y="94.221" width="25.669" height="1.025" transform="rotate(360 129.947 94.221)" fill="#FFFFFF"/>
<rect  x="139.08" y="94.221" width="6.555" height="1.025" transform="rotate(360 139.08 94.221)" fill="#FFFFFF"/>
<rect  x="129.947" y="97.838" width="25.669" height="1.025" transform="rotate(360 129.947 97.838)" fill="#FFFFFF"/>
<rect  x="139.08" y="97.838" width="6.555" height="1.025" transform="rotate(360 139.08 97.838)" fill="#FFFFFF"/>
<rect  x="129.947" y="101.456" width="25.669" height="1.025" transform="rotate(360 129.947 101.456)" fill="#FFFFFF"/>
<rect  x="139.08" y="101.456" width="6.555" height="1.025" transform="rotate(360 139.08 101.456)" fill="#FFFFFF"/>
<rect  x="129.947" y="105.073" width="25.669" height="1.025" transform="rotate(360 129.947 105.073)" fill="#FFFFFF"/>
<rect  x="139.08" y="105.073" width="6.555" height="1.025" transform="rotate(360 139.08 105.073)" fill="#FFFFFF"/>
<rect  x="184.296" y="33.282" width="25.669" height="1.025" transform="rotate(360 184.296 33.282)" fill="#FFFFFF"/>
<rect  x="193.429" y="33.282" width="6.555" height="1.025" transform="rotate(360 193.429 33.282)" fill="#FFFFFF"/>
<rect  x="184.296" y="36.899" width="25.669" height="1.025" transform="rotate(360 184.296 36.899)" fill="#FFFFFF"/>
<rect  x="193.429" y="36.899" width="6.555" height="1.025" transform="rotate(360 193.429 36.899)" fill="#FFFFFF"/>
<rect  x="184.296" y="40.517" width="25.669" height="1.025" transform="rotate(360 184.296 40.517)" fill="#FFFFFF"/>
<rect  x="193.429" y="40.517" width="6.555" height="1.025" transform="rotate(360 193.429 40.517)" fill="#FFFFFF"/>
<rect  x="184.296" y="44.134" width="25.669" height="1.025" transform="rotate(360 184.296 44.134)" fill="#FFFFFF"/>
<rect  x="193.429" y="44.134" width="6.555" height="1.025" transform="rotate(360 193.429 44.134)" fill="#FFFFFF"/>
<rect  x="184.296" y="47.751" width="25.669" height="1.025" transform="rotate(360 184.296 47.751)" fill="#FFFFFF"/>
<rect  x="193.429" y="47.751" width="6.555" height="1.025" transform="rotate(360 193.429 47.751)" fill="#FFFFFF"/>
<rect  x="184.296" y="51.369" width="25.669" height="1.025" transform="rotate(360 184.296 51.369)" fill="#FFFFFF"/>
<rect  x="193.429" y="51.369" width="6.555" height="1.025" transform="rotate(360 193.429 51.369)" fill="#FFFFFF"/>
<rect  x="184.296" y="54.986" width="25.669" height="1.025" transform="rotate(360 184.296 54.986)" fill="#FFFFFF"/>
<rect  x="193.429" y="54.986" width="6.555" height="1.025" transform="rotate(360 193.429 54.986)" fill="#FFFFFF"/>
<rect  x="184.296" y="58.604" width="25.669" height="1.025" transform="rotate(360 184.296 58.604)" fill="#FFFFFF"/>
<rect  x="193.429" y="58.604" width="6.555" height="1.025" transform="rotate(360 193.429 58.604)" fill="#FFFFFF"/>
<rect  x="184.296" y="62.221" width="25.669" height="1.025" transform="rotate(360 184.296 62.221)" fill="#FFFFFF"/>
<rect  x="193.429" y="62.221" width="6.555" height="1.025" transform="rotate(360 193.429 62.221)" fill="#FFFFFF"/>
<rect  x="184.296" y="65.839" width="25.669" height="1.025" transform="rotate(360 184.296 65.839)" fill="#FFFFFF"/>
<rect  x="193.429" y="65.839" width="6.555" height="1.025" transform="rotate(360 193.429 65.839)" fill="#FFFFFF"/>
<rect  x="184.296" y="69.456" width="25.669" height="1.025" transform="rotate(360 184.296 69.456)" fill="#FFFFFF"/>
<rect  x="193.429" y="69.456" width="6.555" height="1.025" transform="rotate(360 193.429 69.456)" fill="#FFFFFF"/>
<rect  x="184.296" y="73.073" width="25.669" height="1.025" transform="rotate(360 184.296 73.073)" fill="#FFFFFF"/>
<rect  x="193.429" y="73.073" width="6.555" height="1.025" transform="rotate(360 193.429 73.073)" fill="#FFFFFF"/>
<rect  x="184.296" y="76.691" width="25.669" height="1.025" transform="rotate(360 184.296 76.691)" fill="#FFFFFF"/>
<rect  x="193.429" y="76.691" width="6.555" height="1.025" transform="rotate(360 193.429 76.691)" fill="#FFFFFF"/>
<rect  x="184.296" y="80.308" width="25.669" height="1.025" transform="rotate(360 184.296 80.308)" fill="#FFFFFF"/>
<rect  x="193.429" y="80.308" width="6.555" height="1.025" transform="rotate(360 193.429 80.308)" fill="#FFFFFF"/>
<rect  x="184.296" y="83.926" width="25.669" height="1.025" transform="rotate(360 184.296 83.926)" fill="#FFFFFF"/>
<rect  x="193.429" y="83.926" width="6.555" height="1.025" transform="rotate(360 193.429 83.926)" fill="#FFFFFF"/>
<rect  x="184.296" y="87.543" width="25.669" height="1.025" transform="rotate(360 184.296 87.543)" fill="#FFFFFF"/>
<rect  x="193.429" y="87.543" width="6.555" height="1.025" transform="rotate(360 193.429 87.543)" fill="#FFFFFF"/>
<rect  x="184.296" y="91.161" width="25.669" height="1.025" transform="rotate(360 184.296 91.161)" fill="#FFFFFF"/>
<rect  x="193.429" y="91.161" width="6.555" height="1.025" transform="rotate(360 193.429 91.161)" fill="#FFFFFF"/>
<rect  x="184.296" y="94.778" width="25.669" height="1.025" transform="rotate(360 184.296 94.778)" fill="#FFFFFF"/>
<rect  x="193.429" y="94.778" width="6.555" height="1.025" transform="rotate(360 193.429 94.778)" fill="#FFFFFF"/>
<rect  x="184.296" y="98.396" width="25.669" height="1.025" transform="rotate(360 184.296 98.396)" fill="#FFFFFF"/>
<rect  x="193.429" y="98.396" width="6.555" height="1.025" transform="rotate(360 193.429 98.396)" fill="#FFFFFF"/>
<rect  x="184.296" y="102.013" width="25.669" height="1.025" transform="rotate(360 184.296 102.013)" fill="#FFFFFF"/>
<rect  x="193.429" y="102.013" width="6.555" height="1.025" transform="rotate(360 193.429 102.013)" fill="#FFFFFF"/>
<rect  x="184.296" y="105.63" width="25.669" height="1.025" transform="rotate(360 184.296 105.63)" fill="#FFFFFF"/>
<rect  x="193.429" y="105.63" width="6.555" height="1.025" transform="rotate(360 193.429 105.63)" fill="#FFFFFF"/>
<path d="M315.713,100.581L315.713,119.479L307.421,119.479L307.421,104.051C304.644,104.204 298.677,103.338 298.677,93.111L303.446,94.041C303.446,94.041 302.133,100.259 307.421,101.177L307.421,87.377L315.713,87.377L315.713,97.719C317.077,97.27 318.445,96.039 318.445,92.897L322.053,92.897C322.053,92.897 323.869,99.414 315.713,100.581Z" transform="rotate(360 310.451 103.428)" fill="#65240F"/>
<path d="M272.899,106.955L272.899,125.853L265.749,125.853L265.749,110.425C263.354,110.578 258.208,109.711 258.208,99.484L262.321,100.415C262.321,100.415 261.188,106.633 265.749,107.551L265.749,93.751L272.899,93.751L272.899,104.093C274.075,103.643 275.255,102.413 275.255,99.271L278.366,99.271C278.366,99.271 279.932,105.788 272.899,106.955Z" transform="rotate(360 268.361 109.802)" fill="#65240F"/>
<path d="M324.707,94.689L296.195,94.689C291.471,94.689 287.641,92.263 287.641,89.271L287.641,46.126C287.641,43.134 291.471,40.709 296.195,40.709L324.707,40.709C329.431,40.709 333.26,43.134 333.26,46.126L333.26,89.271C333.26,92.263 329.431,94.689 324.707,94.689Z" transform="rotate(360 310.451 67.699)" fill="#ACD7B8"/>
<path d="M275.913,101.063L261.131,101.063C256.407,101.063 252.578,98.637 252.578,95.645L252.578,70.391C252.578,67.399 256.407,64.973 261.131,64.973L275.913,64.973C280.637,64.973 284.466,67.399 284.466,70.391L284.466,95.645C284.466,98.637 280.637,101.063 275.913,101.063Z" transform="rotate(360 268.522 83.018)" fill="#ACD7B8"/>
<path d="M75.911,100.581L75.911,119.479L67.619,119.479L67.619,104.051C64.842,104.204 58.875,103.337 58.875,93.11L63.644,94.041C63.644,94.041 62.331,100.259 67.619,101.177L67.619,87.377L75.911,87.377L75.911,97.719C77.275,97.269 78.643,96.039 78.643,92.897L82.251,92.897C82.251,92.897 84.067,99.414 75.911,100.581Z" transform="rotate(360 70.649 103.428)" fill="#65240F"/>
<path d="M75.911,100.581L75.911,119.479L67.619,119.479L67.619,104.051C64.842,104.204 58.875,103.337 58.875,93.11L63.644,94.041C63.644,94.041 62.331,100.259 67.619,101.177L67.619,87.377L75.911,87.377L75.911,97.719C77.275,97.269 78.643,96.039 78.643,92.897L82.251,92.897C82.251,92.897 84.067,99.414 75.911,100.581Z" transform="rotate(360 70.649 103.428)" fill="#65240F"/>
<path d="M22.442,100.581L22.442,119.479L29.77,119.479L29.77,104.051C32.224,104.204 37.498,103.337 37.498,93.11L33.283,94.041C33.283,94.041 34.443,100.259 29.77,101.177L29.77,87.377L22.442,87.377L22.442,97.719C21.237,97.269 20.027,96.039 20.027,92.897L16.839,92.897C16.839,92.897 15.235,99.414 22.442,100.581Z" transform="rotate(360 27.093 103.428)" fill="#65240F"/>
<path d="M113.315,106.222L113.315,125.853L106.435,125.853L106.435,109.827C104.131,109.986 99.18,109.086 99.18,98.463L103.137,99.429C103.137,99.429 102.048,105.888 106.435,106.841L106.435,92.507L113.315,92.507L113.315,103.249C114.446,102.782 115.582,101.505 115.582,98.24L118.575,98.24C118.575,98.24 120.082,105.01 113.315,106.222Z" transform="rotate(360 108.949 109.18)" fill="#65240F"/>
<path d="M83.789,94.689L55.277,94.689C50.553,94.689 46.724,92.263 46.724,89.271L46.724,48.835C46.724,45.843 50.553,43.417 55.277,43.417L83.789,43.417C88.513,43.417 92.343,45.843 92.343,48.835L92.343,89.271C92.343,92.263 88.513,94.689 83.789,94.689Z" transform="rotate(360 69.533 69.053)" fill="#ACD7B8"/>
<path d="M34.995,94.689L20.213,94.689C15.489,94.689 11.66,92.263 11.66,89.271L11.66,64.017C11.66,61.025 15.489,58.6 20.213,58.6L34.995,58.6C39.719,58.6 43.549,61.025 43.549,64.017L43.549,89.271C43.549,92.263 39.719,94.689 34.995,94.689Z" transform="rotate(360 27.604 76.644)" fill="#ACD7B8"/>
<path d="M113.587,101.063L104.311,101.063C99.587,101.063 95.757,98.637 95.757,95.645L95.757,79.425C95.757,76.432 99.587,74.007 104.311,74.007L113.587,74.007C118.311,74.007 122.141,76.432 122.141,79.425L122.141,95.645C122.141,98.637 118.311,101.063 113.587,101.063Z" transform="rotate(360 108.949 87.535)" fill="#ACD7B8"/>
</svg>
