<svg width="44" height="58" viewBox="0 0 44 58" fill="none" xmlns="http://www.w3.org/2000/svg" xmlns:xlink="http://www.w3.org/1999/xlink">
<path d="M2.325,38.715L2.316,38.727L2.307,38.74C1.808,39.439 0.697,39.639 -0.168,39.021C-0.86,38.527 -1.063,37.432 -0.467,36.571C0.422,35.451 1.07,34.139 1.498,32.855C1.943,31.518 2.155,29.998 2.155,28.506C2.155,27.013 1.943,25.493 1.498,24.157C1.07,22.873 0.422,21.561 -0.467,20.44C-1.063,19.579 -0.86,18.484 -0.168,17.99C0.697,17.372 1.808,17.572 2.307,18.271L2.316,18.284L2.325,18.296C3.431,19.771 4.336,21.407 4.873,23.011C5.438,24.897 5.794,26.72 5.794,28.506C5.794,30.385 5.605,32.162 4.906,33.909C4.145,35.811 3.41,37.268 2.325,38.715ZM10.358,42.245L10.38,42.214L10.401,42.183C12.89,38.241 14.339,33.477 14.339,28.506C14.339,23.536 12.891,18.772 10.402,14.832C9.863,13.966 10.113,12.948 11.033,12.291C11.651,11.85 12.806,12.013 13.486,12.936C16.295,17.445 17.977,22.888 17.977,28.506C17.977,34.315 16.297,39.563 13.486,44.076C12.836,44.96 11.848,45.203 10.999,44.696C10.08,44.015 9.918,42.862 10.358,42.245ZM24.995,7.089L25.019,7.138L25.047,7.184C28.852,13.462 30.947,20.692 30.947,28.506C30.947,36.316 28.854,43.542 25.052,49.819C24.469,50.745 23.493,51.002 22.506,50.536C21.609,49.945 21.373,48.972 21.848,47.992C25.083,42.318 27.112,35.622 27.112,28.506C27.112,21.421 25.295,14.715 21.841,9.005C21.375,8.03 21.614,7.064 22.506,6.475C23.582,5.968 24.625,6.35 24.995,7.089ZM36.392,1.194L36.409,1.227L36.427,1.259C41.036,9.324 43.72,18.531 43.72,28.506C43.72,38.47 41.041,47.668 36.441,55.727C35.857,56.643 34.885,56.895 33.904,56.431C33.01,55.842 32.772,54.873 33.241,53.897C37.671,46.428 40.081,37.76 40.081,28.506C40.081,19.228 37.463,10.567 33.246,3.125C32.719,2.04 33.1,0.981 33.847,0.608C34.942,0.06 36.016,0.441 36.392,1.194Z" clip-rule="evenodd" fill-rule="evenodd" transform="rotate(-0.61 21.45 28.503)" fill="url(#pf_0_29_1555)"/>
<defs>
<linearGradient id="pf_0_29_1555" x1="21.3" y1="0.349" x2="21.6" y2="56.658" gradientUnits="userSpaceOnUse">
<stop stop-color="#1A1A1A" stop-opacity="0.84"/>
<stop offset="1" stop-color="#101010"/>
</linearGradient>
</defs>
</svg>
