<svg width="38" height="58" viewBox="0 0 38 58" fill="none" xmlns="http://www.w3.org/2000/svg" xmlns:xlink="http://www.w3.org/1999/xlink">
<path d="M1.9,38.726L1.892,38.738L1.885,38.75C1.464,39.449 0.53,39.65 -0.197,39.034C-0.779,38.541 -0.949,37.447 -0.447,36.586C0.301,35.466 0.848,34.154 1.209,32.871C1.584,31.535 1.764,30.016 1.765,28.525C1.766,27.034 1.589,25.515 1.215,24.18C0.856,22.897 0.311,21.587 -0.435,20.468C-0.936,19.608 -0.765,18.514 -0.182,18.02C0.546,17.402 1.48,17.601 1.899,18.299L1.907,18.311L1.915,18.323C2.844,19.796 3.604,21.43 4.055,23.031C4.528,24.915 4.827,26.737 4.825,28.521C4.824,30.398 4.664,32.174 4.075,33.921C3.433,35.822 2.814,37.279 1.9,38.726ZM8.655,42.245L8.674,42.214L8.691,42.182C10.787,38.242 12.01,33.48 12.013,28.513C12.017,23.546 10.802,18.789 8.712,14.854C8.259,13.99 8.47,12.972 9.244,12.315C9.764,11.873 10.735,12.035 11.307,12.956C13.667,17.459 15.078,22.896 15.074,28.509C15.07,34.314 13.653,39.559 11.285,44.071C10.738,44.955 9.906,45.199 9.193,44.693C8.42,44.013 8.284,42.862 8.655,42.245ZM20.992,7.103L21.013,7.151L21.036,7.197C24.233,13.467 25.989,20.689 25.984,28.496C25.978,36.3 24.213,43.523 21.01,49.798C20.519,50.724 19.698,50.981 18.868,50.517C18.114,49.927 17.916,48.955 18.316,47.976C21.042,42.303 22.753,35.61 22.758,28.5C22.763,21.421 21.24,14.723 18.338,9.02C17.947,8.047 18.148,7.081 18.899,6.492C19.805,5.984 20.682,6.364 20.992,7.103ZM30.584,1.201L30.598,1.234L30.613,1.266C34.484,9.32 36.735,18.517 36.728,28.483C36.721,38.439 34.462,47.633 30.586,55.69C30.095,56.605 29.277,56.858 28.451,56.396C27.7,55.808 27.5,54.84 27.896,53.864C31.628,46.397 33.661,37.734 33.668,28.487C33.674,19.217 31.478,10.565 27.936,3.134C27.493,2.05 27.815,0.992 28.443,0.618C29.365,0.069 30.268,0.45 30.584,1.201Z" clip-rule="evenodd" fill-rule="evenodd" transform="rotate(-0.726 17.992 28.49)" fill="url(#pf_0_29_1986)"/>
<defs>
<linearGradient id="pf_0_29_1986" x1="17.814" y1="0.359" x2="18.171" y2="56.621" gradientUnits="userSpaceOnUse">
<stop stop-color="#1A1A1A" stop-opacity="0.84"/>
<stop offset="1" stop-color="#101010"/>
</linearGradient>
</defs>
</svg>
