<svg width="12" height="18" viewBox="0 0 12 18" fill="none" xmlns="http://www.w3.org/2000/svg" xmlns:xlink="http://www.w3.org/1999/xlink">
<path d="M3.311,-0.561C2.725,-1.146 1.775,-1.146 1.189,-0.561C0.604,0.025 0.604,0.975 1.189,1.561L3.311,-0.561ZM9.75,8L10.811,9.061C11.396,8.475 11.396,7.525 10.811,6.939L9.75,8ZM1.189,14.439C0.604,15.025 0.604,15.975 1.189,16.561C1.775,17.146 2.725,17.146 3.311,16.561L1.189,14.439ZM1.189,1.561L8.689,9.061L10.811,6.939L3.311,-0.561L1.189,1.561ZM8.689,6.939L1.189,14.439L3.311,16.561L10.811,9.061L8.689,6.939Z" fill="#3B3B3B"/>
</svg>
